ply
format ascii 1.0
comment Created by Blender 2.68 (sub 0) - www.blender.org, source file: 'explosion00.blend'
element vertex 384
property float x
property float y
property float z
property float nx
property float ny
property float nz
property uchar red
property uchar green
property uchar blue
element face 96
property list uchar uint vertex_indices
end_header
0.426879 -0.213439 0.213439 0.926741 0.265661 -0.265661 255 255 255
0.426879 -0.213439 0.426879 0.926741 0.265661 -0.265661 255 255 255
0.713676 -0.713676 0.713676 0.926741 0.265661 -0.265661 255 255 255
0.426879 -0.426879 0.213439 0.926741 0.265661 -0.265661 255 255 255
-0.213439 -0.213439 0.426879 0.265661 0.265661 0.926741 255 255 255
-0.426879 -0.213439 0.426879 0.265661 0.265661 0.926741 255 255 255
-0.713676 -0.713676 0.713676 0.265661 0.265661 0.926741 255 255 255
-0.213439 -0.426879 0.426879 0.265661 0.265661 0.926741 255 255 255
-0.426879 -0.213439 -0.213439 -0.747094 -0.204238 0.632564 255 255 255
-0.426879 -0.213439 -0.426879 -0.747094 -0.204238 0.632564 255 255 255
-0.713676 -0.713676 -0.713676 -0.747094 -0.204238 0.632564 255 255 255
-0.145631 -0.145631 -0.072815 -0.747094 -0.204238 0.632564 255 255 255
0.713676 -0.713676 -0.713676 -0.265661 0.265661 -0.926741 255 255 255
0.213439 -0.426879 -0.426879 -0.265661 0.265661 -0.926741 255 255 255
0.213439 -0.213439 -0.426879 -0.265661 0.265661 -0.926741 255 255 255
0.426879 -0.213439 -0.426879 -0.265661 0.265661 -0.926741 255 255 255
-0.213439 -0.426879 0.213439 -0.204238 -0.747094 -0.632564 255 255 255
-0.213439 -0.426879 0.426879 -0.204238 -0.747094 -0.632564 255 255 255
-0.713676 -0.713676 0.713676 -0.204238 -0.747094 -0.632564 255 255 255
-0.145631 -0.145631 0.072815 -0.204238 -0.747094 -0.632564 255 255 255
0.213439 0.426879 0.213439 0.204238 0.747094 -0.632564 255 255 255
0.213439 0.426879 0.426879 0.204238 0.747094 -0.632564 255 255 255
0.713676 0.713676 0.713676 0.204238 0.747094 -0.632564 255 255 255
0.145631 0.145631 0.072815 0.204238 0.747094 -0.632564 255 255 255
0.426879 -0.213439 -0.213439 0.796882 0.427188 -0.427188 255 255 255
0.426879 -0.213439 0.000000 0.796882 0.427188 -0.427188 255 255 255
0.920144 -0.920144 0.000000 0.796882 0.427188 -0.427188 255 255 255
0.426879 -0.426879 -0.213439 0.796882 0.427188 -0.427188 255 255 255
0.426879 0.213439 -0.213439 0.362311 0.659064 -0.659064 255 255 255
0.426879 0.213439 0.000000 0.362311 0.659064 -0.659064 255 255 255
1.203395 0.000000 0.000000 0.362311 0.659064 -0.659064 255 255 255
0.426879 0.000000 -0.213439 0.362311 0.659064 -0.659064 255 255 255
0.426879 0.213439 0.213439 0.796882 0.427188 -0.427188 255 255 255
0.426879 0.213439 0.426879 0.796882 0.427188 -0.427188 255 255 255
0.920144 0.000000 0.920144 0.796882 0.427188 -0.427188 255 255 255
0.426879 0.000000 0.213439 0.796882 0.427188 -0.427188 255 255 255
0.213439 -0.213439 0.426879 0.427188 0.427188 0.796882 255 255 255
0.000000 -0.213439 0.426879 0.427188 0.427188 0.796882 255 255 255
0.000000 -0.920144 0.920144 0.427188 0.427188 0.796882 255 255 255
0.213439 -0.426879 0.426879 0.427188 0.427188 0.796882 255 255 255
0.213439 0.213439 0.426879 0.659064 0.659064 0.362311 255 255 255
0.000000 0.213439 0.426879 0.659064 0.659064 0.362311 255 255 255
0.000000 0.000000 1.203395 0.659064 0.659064 0.362311 255 255 255
0.213439 0.000000 0.426879 0.659064 0.659064 0.362311 255 255 255
-0.213439 0.213439 0.426879 0.427188 0.427188 0.796882 255 255 255
-0.426879 0.213439 0.426879 0.427188 0.427188 0.796882 255 255 255
-0.920144 0.000000 0.920144 0.427188 0.427188 0.796882 255 255 255
-0.213439 0.000000 0.426879 0.427188 0.427188 0.796882 255 255 255
-0.426879 -0.213439 0.213439 -0.216157 -0.140920 0.966135 255 255 255
-0.426879 -0.213439 0.000000 -0.216157 -0.140920 0.966135 255 255 255
-0.920144 -0.920144 0.000000 -0.216157 -0.140920 0.966135 255 255 255
-0.145631 -0.145631 0.072815 -0.216157 -0.140920 0.966135 255 255 255
-0.426879 0.213439 0.213439 -0.362311 0.659064 0.659064 255 255 255
-0.426879 0.213439 0.000000 -0.362311 0.659064 0.659064 255 255 255
-1.203395 0.000000 0.000000 -0.362311 0.659064 0.659064 255 255 255
-0.426879 0.000000 0.213439 -0.362311 0.659064 0.659064 255 255 255
-0.426879 0.213439 -0.213439 -0.796882 0.427188 0.427188 255 255 255
-0.426879 0.213439 -0.426879 -0.796882 0.427188 0.427188 255 255 255
-0.920144 0.000000 -0.920144 -0.796882 0.427188 0.427188 255 255 255
-0.426879 0.000000 -0.213439 -0.796882 0.427188 0.427188 255 255 255
-0.213439 -0.213439 -0.426879 -0.427188 0.427188 -0.796882 255 255 255
0.000000 -0.213439 -0.426879 -0.427188 0.427188 -0.796882 255 255 255
0.000000 -0.920144 -0.920144 -0.427188 0.427188 -0.796882 255 255 255
-0.213439 -0.426879 -0.426879 -0.427188 0.427188 -0.796882 255 255 255
-0.213439 0.213439 -0.426879 -0.659064 0.659064 -0.362311 255 255 255
0.000000 0.213439 -0.426879 -0.659064 0.659064 -0.362311 255 255 255
0.000000 0.000000 -1.203395 -0.659064 0.659064 -0.362311 255 255 255
-0.213439 0.000000 -0.426879 -0.659064 0.659064 -0.362311 255 255 255
0.213439 0.213439 -0.426879 -0.427188 0.427188 -0.796882 255 255 255
0.426879 0.213439 -0.426879 -0.427188 0.427188 -0.796882 255 255 255
0.920144 0.000000 -0.920144 -0.427188 0.427188 -0.796882 255 255 255
0.213439 0.000000 -0.426879 -0.427188 0.427188 -0.796882 255 255 255
-0.213439 -0.426879 -0.213439 -0.140920 -0.216157 -0.966135 255 255 255
-0.213439 -0.426879 0.000000 -0.140920 -0.216157 -0.966135 255 255 255
-0.920144 -0.920144 0.000000 -0.140920 -0.216157 -0.966135 255 255 255
-0.145631 -0.145631 -0.072815 -0.140920 -0.216157 -0.966135 255 255 255
0.213439 -0.426879 -0.213439 0.659064 -0.362311 -0.659064 255 255 255
0.213439 -0.426879 0.000000 0.659064 -0.362311 -0.659064 255 255 255
0.000000 -1.203395 0.000000 0.659064 -0.362311 -0.659064 255 255 255
0.000000 -0.426879 -0.213439 0.659064 -0.362311 -0.659064 255 255 255
0.213439 -0.426879 0.213439 0.427188 -0.796882 -0.427188 255 255 255
0.213439 -0.426879 0.426879 0.427188 -0.796882 -0.427188 255 255 255
0.000000 -0.920144 0.920144 0.427188 -0.796882 -0.427188 255 255 255
0.000000 -0.426879 0.213439 0.427188 -0.796882 -0.427188 255 255 255
0.213439 0.426879 -0.213439 0.140920 0.216157 -0.966135 255 255 255
0.213439 0.426879 0.000000 0.140920 0.216157 -0.966135 255 255 255
0.920144 0.920144 0.000000 0.140920 0.216157 -0.966135 255 255 255
0.145631 0.145631 -0.072815 0.140920 0.216157 -0.966135 255 255 255
-0.213439 0.426879 -0.213439 -0.659064 0.362311 -0.659064 255 255 255
-0.213439 0.426879 0.000000 -0.659064 0.362311 -0.659064 255 255 255
0.000000 1.203395 0.000000 -0.659064 0.362311 -0.659064 255 255 255
0.000000 0.426879 -0.213439 -0.659064 0.362311 -0.659064 255 255 255
-0.213439 0.426879 0.213439 -0.427188 0.796882 -0.427188 255 255 255
-0.213439 0.426879 0.426879 -0.427188 0.796882 -0.427188 255 255 255
0.000000 0.920144 0.920144 -0.427188 0.796882 -0.427188 255 255 255
0.000000 0.426879 0.213439 -0.427188 0.796882 -0.427188 255 255 255
0.426879 -0.213439 0.000000 0.796882 0.427188 0.427188 255 255 255
0.426879 -0.213439 0.213439 0.796882 0.427188 0.427188 255 255 255
0.426879 -0.426879 0.213439 0.796882 0.427188 0.427188 255 255 255
0.920144 -0.920144 0.000000 0.796882 0.427188 0.427188 255 255 255
1.203395 0.000000 0.000000 0.362311 -0.659064 0.659064 255 255 255
0.426879 0.000000 0.213439 0.362311 -0.659064 0.659064 255 255 255
0.426879 -0.213439 0.213439 0.362311 -0.659064 0.659064 255 255 255
0.426879 -0.213439 0.000000 0.362311 -0.659064 0.659064 255 255 255
0.426879 0.000000 0.213439 0.796882 -0.427188 -0.427188 255 255 255
0.920144 0.000000 0.920144 0.796882 -0.427188 -0.427188 255 255 255
0.426879 -0.213439 0.426879 0.796882 -0.427188 -0.427188 255 255 255
0.426879 -0.213439 0.213439 0.796882 -0.427188 -0.427188 255 255 255
0.000000 -0.213439 0.426879 -0.427188 0.427188 0.796882 255 255 255
-0.213439 -0.213439 0.426879 -0.427188 0.427188 0.796882 255 255 255
-0.213439 -0.426879 0.426879 -0.427188 0.427188 0.796882 255 255 255
0.000000 -0.920144 0.920144 -0.427188 0.427188 0.796882 255 255 255
0.000000 0.000000 1.203395 -0.659064 -0.659064 0.362311 255 255 255
-0.213439 0.000000 0.426879 -0.659064 -0.659064 0.362311 255 255 255
-0.213439 -0.213439 0.426879 -0.659064 -0.659064 0.362311 255 255 255
0.000000 -0.213439 0.426879 -0.659064 -0.659064 0.362311 255 255 255
-0.213439 0.000000 0.426879 0.427188 -0.427188 0.796882 255 255 255
-0.920144 0.000000 0.920144 0.427188 -0.427188 0.796882 255 255 255
-0.426879 -0.213439 0.426879 0.427188 -0.427188 0.796882 255 255 255
-0.213439 -0.213439 0.426879 0.427188 -0.427188 0.796882 255 255 255
-0.426879 -0.213439 0.000000 -0.216157 -0.140920 -0.966135 255 255 255
-0.426879 -0.213439 -0.213439 -0.216157 -0.140920 -0.966135 255 255 255
-0.145631 -0.145631 -0.072815 -0.216157 -0.140920 -0.966135 255 255 255
-0.920144 -0.920144 0.000000 -0.216157 -0.140920 -0.966135 255 255 255
-1.203395 0.000000 0.000000 -0.362311 -0.659064 -0.659064 255 255 255
-0.426879 0.000000 -0.213439 -0.362311 -0.659064 -0.659064 255 255 255
-0.426879 -0.213439 -0.213439 -0.362311 -0.659064 -0.659064 255 255 255
-0.426879 -0.213439 0.000000 -0.362311 -0.659064 -0.659064 255 255 255
-0.426879 0.000000 -0.213439 -0.796882 -0.427188 0.427188 255 255 255
-0.920144 0.000000 -0.920144 -0.796882 -0.427188 0.427188 255 255 255
-0.426879 -0.213439 -0.426879 -0.796882 -0.427188 0.427188 255 255 255
-0.426879 -0.213439 -0.213439 -0.796882 -0.427188 0.427188 255 255 255
0.000000 -0.213439 -0.426879 0.427188 0.427188 -0.796882 255 255 255
0.213439 -0.213439 -0.426879 0.427188 0.427188 -0.796882 255 255 255
0.213439 -0.426879 -0.426879 0.427188 0.427188 -0.796882 255 255 255
0.000000 -0.920144 -0.920144 0.427188 0.427188 -0.796882 255 255 255
0.000000 0.000000 -1.203395 0.659064 -0.659064 -0.362311 255 255 255
0.213439 0.000000 -0.426879 0.659064 -0.659064 -0.362311 255 255 255
0.213439 -0.213439 -0.426879 0.659064 -0.659064 -0.362311 255 255 255
0.000000 -0.213439 -0.426879 0.659064 -0.659064 -0.362311 255 255 255
0.213439 0.000000 -0.426879 -0.427188 -0.427188 -0.796882 255 255 255
0.920144 0.000000 -0.920144 -0.427188 -0.427188 -0.796882 255 255 255
0.426879 -0.213439 -0.426879 -0.427188 -0.427188 -0.796882 255 255 255
0.213439 -0.213439 -0.426879 -0.427188 -0.427188 -0.796882 255 255 255
-0.213439 -0.426879 0.000000 -0.140920 -0.216157 0.966135 255 255 255
-0.213439 -0.426879 0.213439 -0.140920 -0.216157 0.966135 255 255 255
-0.145631 -0.145631 0.072815 -0.140920 -0.216157 0.966135 255 255 255
-0.920144 -0.920144 0.000000 -0.140920 -0.216157 0.966135 255 255 255
0.000000 -1.203395 0.000000 -0.659064 -0.362311 0.659064 255 255 255
0.000000 -0.426879 0.213439 -0.659064 -0.362311 0.659064 255 255 255
-0.213439 -0.426879 0.213439 -0.659064 -0.362311 0.659064 255 255 255
-0.213439 -0.426879 0.000000 -0.659064 -0.362311 0.659064 255 255 255
0.000000 -0.426879 0.213439 -0.427188 -0.796882 -0.427188 255 255 255
0.000000 -0.920144 0.920144 -0.427188 -0.796882 -0.427188 255 255 255
-0.213439 -0.426879 0.426879 -0.427188 -0.796882 -0.427188 255 255 255
-0.213439 -0.426879 0.213439 -0.427188 -0.796882 -0.427188 255 255 255
0.213439 0.426879 0.000000 0.140920 0.216157 0.966135 255 255 255
0.213439 0.426879 0.213439 0.140920 0.216157 0.966135 255 255 255
0.145631 0.145631 0.072815 0.140920 0.216157 0.966135 255 255 255
0.920144 0.920144 0.000000 0.140920 0.216157 0.966135 255 255 255
0.000000 1.203395 0.000000 0.659064 0.362311 0.659064 255 255 255
0.000000 0.426879 0.213439 0.659064 0.362311 0.659064 255 255 255
0.213439 0.426879 0.213439 0.659064 0.362311 0.659064 255 255 255
0.213439 0.426879 0.000000 0.659064 0.362311 0.659064 255 255 255
0.000000 0.426879 0.213439 0.427188 0.796882 -0.427188 255 255 255
0.000000 0.920144 0.920144 0.427188 0.796882 -0.427188 255 255 255
0.213439 0.426879 0.426879 0.427188 0.796882 -0.427188 255 255 255
0.213439 0.426879 0.213439 0.427188 0.796882 -0.427188 255 255 255
0.426879 -0.426879 -0.213439 0.926741 0.265661 0.265661 255 255 255
0.713676 -0.713676 -0.713676 0.926741 0.265661 0.265661 255 255 255
0.426879 -0.213439 -0.426879 0.926741 0.265661 0.265661 255 255 255
0.426879 -0.213439 -0.213439 0.926741 0.265661 0.265661 255 255 255
0.920144 0.000000 -0.920144 0.796882 -0.427188 0.427188 255 255 255
0.426879 0.000000 -0.213439 0.796882 -0.427188 0.427188 255 255 255
0.426879 -0.213439 -0.213439 0.796882 -0.427188 0.427188 255 255 255
0.426879 -0.213439 -0.426879 0.796882 -0.427188 0.427188 255 255 255
0.426879 0.000000 -0.213439 0.362311 -0.659064 -0.659064 255 255 255
1.203395 0.000000 0.000000 0.362311 -0.659064 -0.659064 255 255 255
0.426879 -0.213439 0.000000 0.362311 -0.659064 -0.659064 255 255 255
0.426879 -0.213439 -0.213439 0.362311 -0.659064 -0.659064 255 255 255
0.426879 0.213439 -0.426879 0.796882 0.427188 0.427188 255 255 255
0.426879 0.213439 -0.213439 0.796882 0.427188 0.427188 255 255 255
0.426879 0.000000 -0.213439 0.796882 0.427188 0.427188 255 255 255
0.920144 0.000000 -0.920144 0.796882 0.427188 0.427188 255 255 255
0.713676 0.713676 -0.713676 0.747094 0.204238 0.632564 255 255 255
0.145631 0.145631 -0.072815 0.747094 0.204238 0.632564 255 255 255
0.426879 0.213439 -0.213439 0.747094 0.204238 0.632564 255 255 255
0.426879 0.213439 -0.426879 0.747094 0.204238 0.632564 255 255 255
0.145631 0.145631 -0.072815 0.216157 0.140920 -0.966135 255 255 255
0.920144 0.920144 0.000000 0.216157 0.140920 -0.966135 255 255 255
0.426879 0.213439 0.000000 0.216157 0.140920 -0.966135 255 255 255
0.426879 0.213439 -0.213439 0.216157 0.140920 -0.966135 255 255 255
0.426879 0.213439 0.000000 0.362311 0.659064 0.659064 255 255 255
0.426879 0.213439 0.213439 0.362311 0.659064 0.659064 255 255 255
0.426879 0.000000 0.213439 0.362311 0.659064 0.659064 255 255 255
1.203395 0.000000 0.000000 0.362311 0.659064 0.659064 255 255 255
0.920144 0.920144 0.000000 0.216157 0.140920 0.966135 255 255 255
0.145631 0.145631 0.072815 0.216157 0.140920 0.966135 255 255 255
0.426879 0.213439 0.213439 0.216157 0.140920 0.966135 255 255 255
0.426879 0.213439 0.000000 0.216157 0.140920 0.966135 255 255 255
0.145631 0.145631 0.072815 0.747094 0.204238 -0.632564 255 255 255
0.713676 0.713676 0.713676 0.747094 0.204238 -0.632564 255 255 255
0.426879 0.213439 0.426879 0.747094 0.204238 -0.632564 255 255 255
0.426879 0.213439 0.213439 0.747094 0.204238 -0.632564 255 255 255
0.426879 -0.213439 0.426879 -0.265661 0.265661 0.926741 255 255 255
0.213439 -0.213439 0.426879 -0.265661 0.265661 0.926741 255 255 255
0.213439 -0.426879 0.426879 -0.265661 0.265661 0.926741 255 255 255
0.713676 -0.713676 0.713676 -0.265661 0.265661 0.926741 255 255 255
0.920144 0.000000 0.920144 -0.427188 -0.427188 0.796882 255 255 255
0.213439 0.000000 0.426879 -0.427188 -0.427188 0.796882 255 255 255
0.213439 -0.213439 0.426879 -0.427188 -0.427188 0.796882 255 255 255
0.426879 -0.213439 0.426879 -0.427188 -0.427188 0.796882 255 255 255
0.213439 0.000000 0.426879 0.659064 -0.659064 0.362311 255 255 255
0.000000 0.000000 1.203395 0.659064 -0.659064 0.362311 255 255 255
0.000000 -0.213439 0.426879 0.659064 -0.659064 0.362311 255 255 255
0.213439 -0.213439 0.426879 0.659064 -0.659064 0.362311 255 255 255
0.426879 0.213439 0.426879 -0.427188 0.427188 0.796882 255 255 255
0.213439 0.213439 0.426879 -0.427188 0.427188 0.796882 255 255 255
0.213439 0.000000 0.426879 -0.427188 0.427188 0.796882 255 255 255
0.920144 0.000000 0.920144 -0.427188 0.427188 0.796882 255 255 255
0.713676 0.713676 0.713676 -0.265661 -0.265661 0.926741 255 255 255
0.213439 0.426879 0.426879 -0.265661 -0.265661 0.926741 255 255 255
0.213439 0.213439 0.426879 -0.265661 -0.265661 0.926741 255 255 255
0.426879 0.213439 0.426879 -0.265661 -0.265661 0.926741 255 255 255
0.213439 0.426879 0.426879 0.427188 -0.427188 0.796882 255 255 255
0.000000 0.920144 0.920144 0.427188 -0.427188 0.796882 255 255 255
0.000000 0.213439 0.426879 0.427188 -0.427188 0.796882 255 255 255
0.213439 0.213439 0.426879 0.427188 -0.427188 0.796882 255 255 255
0.000000 0.213439 0.426879 -0.659064 0.659064 0.362311 255 255 255
-0.213439 0.213439 0.426879 -0.659064 0.659064 0.362311 255 255 255
-0.213439 0.000000 0.426879 -0.659064 0.659064 0.362311 255 255 255
0.000000 0.000000 1.203395 -0.659064 0.659064 0.362311 255 255 255
0.000000 0.920144 0.920144 -0.427188 -0.427188 0.796882 255 255 255
-0.213439 0.426879 0.426879 -0.427188 -0.427188 0.796882 255 255 255
-0.213439 0.213439 0.426879 -0.427188 -0.427188 0.796882 255 255 255
0.000000 0.213439 0.426879 -0.427188 -0.427188 0.796882 255 255 255
-0.213439 0.426879 0.426879 0.265661 -0.265661 0.926741 255 255 255
-0.713676 0.713676 0.713676 0.265661 -0.265661 0.926741 255 255 255
-0.426879 0.213439 0.426879 0.265661 -0.265661 0.926741 255 255 255
-0.213439 0.213439 0.426879 0.265661 -0.265661 0.926741 255 255 255
-0.426879 -0.213439 0.426879 -0.747094 -0.204238 -0.632564 255 255 255
-0.426879 -0.213439 0.213439 -0.747094 -0.204238 -0.632564 255 255 255
-0.145631 -0.145631 0.072815 -0.747094 -0.204238 -0.632564 255 255 255
-0.713676 -0.713676 0.713676 -0.747094 -0.204238 -0.632564 255 255 255
-0.920144 0.000000 0.920144 -0.796882 -0.427188 -0.427188 255 255 255
-0.426879 0.000000 0.213439 -0.796882 -0.427188 -0.427188 255 255 255
-0.426879 -0.213439 0.213439 -0.796882 -0.427188 -0.427188 255 255 255
-0.426879 -0.213439 0.426879 -0.796882 -0.427188 -0.427188 255 255 255
-0.426879 0.000000 0.213439 -0.362311 -0.659064 0.659064 255 255 255
-1.203395 0.000000 0.000000 -0.362311 -0.659064 0.659064 255 255 255
-0.426879 -0.213439 0.000000 -0.362311 -0.659064 0.659064 255 255 255
-0.426879 -0.213439 0.213439 -0.362311 -0.659064 0.659064 255 255 255
-0.426879 0.213439 0.426879 -0.796882 0.427188 -0.427188 255 255 255
-0.426879 0.213439 0.213439 -0.796882 0.427188 -0.427188 255 255 255
-0.426879 0.000000 0.213439 -0.796882 0.427188 -0.427188 255 255 255
-0.920144 0.000000 0.920144 -0.796882 0.427188 -0.427188 255 255 255
-0.713676 0.713676 0.713676 -0.926741 -0.265661 -0.265661 255 255 255
-0.426879 0.426879 0.213439 -0.926741 -0.265661 -0.265661 255 255 255
-0.426879 0.213439 0.213439 -0.926741 -0.265661 -0.265661 255 255 255
-0.426879 0.213439 0.426879 -0.926741 -0.265661 -0.265661 255 255 255
-0.426879 0.426879 0.213439 -0.796882 -0.427188 0.427188 255 255 255
-0.920144 0.920144 0.000000 -0.796882 -0.427188 0.427188 255 255 255
-0.426879 0.213439 0.000000 -0.796882 -0.427188 0.427188 255 255 255
-0.426879 0.213439 0.213439 -0.796882 -0.427188 0.427188 255 255 255
-0.426879 0.213439 0.000000 -0.362311 0.659064 -0.659064 255 255 255
-0.426879 0.213439 -0.213439 -0.362311 0.659064 -0.659064 255 255 255
-0.426879 0.000000 -0.213439 -0.362311 0.659064 -0.659064 255 255 255
-1.203395 0.000000 0.000000 -0.362311 0.659064 -0.659064 255 255 255
-0.920144 0.920144 0.000000 -0.796882 -0.427188 -0.427188 255 255 255
-0.426879 0.426879 -0.213439 -0.796882 -0.427188 -0.427188 255 255 255
-0.426879 0.213439 -0.213439 -0.796882 -0.427188 -0.427188 255 255 255
-0.426879 0.213439 0.000000 -0.796882 -0.427188 -0.427188 255 255 255
-0.426879 0.426879 -0.213439 -0.926741 -0.265661 0.265661 255 255 255
-0.713676 0.713676 -0.713676 -0.926741 -0.265661 0.265661 255 255 255
-0.426879 0.213439 -0.426879 -0.926741 -0.265661 0.265661 255 255 255
-0.426879 0.213439 -0.213439 -0.926741 -0.265661 0.265661 255 255 255
-0.426879 -0.213439 -0.426879 0.265661 0.265661 -0.926741 255 255 255
-0.213439 -0.213439 -0.426879 0.265661 0.265661 -0.926741 255 255 255
-0.213439 -0.426879 -0.426879 0.265661 0.265661 -0.926741 255 255 255
-0.713676 -0.713676 -0.713676 0.265661 0.265661 -0.926741 255 255 255
-0.920144 0.000000 -0.920144 0.427188 -0.427188 -0.796882 255 255 255
-0.213439 0.000000 -0.426879 0.427188 -0.427188 -0.796882 255 255 255
-0.213439 -0.213439 -0.426879 0.427188 -0.427188 -0.796882 255 255 255
-0.426879 -0.213439 -0.426879 0.427188 -0.427188 -0.796882 255 255 255
-0.213439 0.000000 -0.426879 -0.659064 -0.659064 -0.362311 255 255 255
0.000000 0.000000 -1.203395 -0.659064 -0.659064 -0.362311 255 255 255
0.000000 -0.213439 -0.426879 -0.659064 -0.659064 -0.362311 255 255 255
-0.213439 -0.213439 -0.426879 -0.659064 -0.659064 -0.362311 255 255 255
-0.426879 0.213439 -0.426879 0.427188 0.427188 -0.796882 255 255 255
-0.213439 0.213439 -0.426879 0.427188 0.427188 -0.796882 255 255 255
-0.213439 0.000000 -0.426879 0.427188 0.427188 -0.796882 255 255 255
-0.920144 0.000000 -0.920144 0.427188 0.427188 -0.796882 255 255 255
-0.713676 0.713676 -0.713676 0.265661 -0.265661 -0.926741 255 255 255
-0.213439 0.426879 -0.426879 0.265661 -0.265661 -0.926741 255 255 255
-0.213439 0.213439 -0.426879 0.265661 -0.265661 -0.926741 255 255 255
-0.426879 0.213439 -0.426879 0.265661 -0.265661 -0.926741 255 255 255
-0.213439 0.426879 -0.426879 -0.427188 -0.427188 -0.796882 255 255 255
0.000000 0.920144 -0.920144 -0.427188 -0.427188 -0.796882 255 255 255
0.000000 0.213439 -0.426879 -0.427188 -0.427188 -0.796882 255 255 255
-0.213439 0.213439 -0.426879 -0.427188 -0.427188 -0.796882 255 255 255
0.000000 0.213439 -0.426879 0.659064 0.659064 -0.362311 255 255 255
0.213439 0.213439 -0.426879 0.659064 0.659064 -0.362311 255 255 255
0.213439 0.000000 -0.426879 0.659064 0.659064 -0.362311 255 255 255
0.000000 0.000000 -1.203395 0.659064 0.659064 -0.362311 255 255 255
0.000000 0.920144 -0.920144 0.427188 -0.427188 -0.796882 255 255 255
0.213439 0.426879 -0.426879 0.427188 -0.427188 -0.796882 255 255 255
0.213439 0.213439 -0.426879 0.427188 -0.427188 -0.796882 255 255 255
0.000000 0.213439 -0.426879 0.427188 -0.427188 -0.796882 255 255 255
0.213439 0.426879 -0.426879 -0.265661 -0.265661 -0.926741 255 255 255
0.713676 0.713676 -0.713676 -0.265661 -0.265661 -0.926741 255 255 255
0.426879 0.213439 -0.426879 -0.265661 -0.265661 -0.926741 255 255 255
0.213439 0.213439 -0.426879 -0.265661 -0.265661 -0.926741 255 255 255
-0.213439 -0.426879 -0.426879 -0.204238 -0.747094 0.632564 255 255 255
-0.213439 -0.426879 -0.213439 -0.204238 -0.747094 0.632564 255 255 255
-0.145631 -0.145631 -0.072815 -0.204238 -0.747094 0.632564 255 255 255
-0.713676 -0.713676 -0.713676 -0.204238 -0.747094 0.632564 255 255 255
0.000000 -0.920144 -0.920144 -0.427188 -0.796882 0.427188 255 255 255
0.000000 -0.426879 -0.213439 -0.427188 -0.796882 0.427188 255 255 255
-0.213439 -0.426879 -0.213439 -0.427188 -0.796882 0.427188 255 255 255
-0.213439 -0.426879 -0.426879 -0.427188 -0.796882 0.427188 255 255 255
0.000000 -0.426879 -0.213439 -0.659064 -0.362311 -0.659064 255 255 255
0.000000 -1.203395 0.000000 -0.659064 -0.362311 -0.659064 255 255 255
-0.213439 -0.426879 0.000000 -0.659064 -0.362311 -0.659064 255 255 255
-0.213439 -0.426879 -0.213439 -0.659064 -0.362311 -0.659064 255 255 255
0.213439 -0.426879 -0.426879 0.427188 -0.796882 0.427188 255 255 255
0.213439 -0.426879 -0.213439 0.427188 -0.796882 0.427188 255 255 255
0.000000 -0.426879 -0.213439 0.427188 -0.796882 0.427188 255 255 255
0.000000 -0.920144 -0.920144 0.427188 -0.796882 0.427188 255 255 255
0.713676 -0.713676 -0.713676 -0.265661 -0.926741 0.265661 255 255 255
0.426879 -0.426879 -0.213439 -0.265661 -0.926741 0.265661 255 255 255
0.213439 -0.426879 -0.213439 -0.265661 -0.926741 0.265661 255 255 255
0.213439 -0.426879 -0.426879 -0.265661 -0.926741 0.265661 255 255 255
0.426879 -0.426879 -0.213439 -0.427188 -0.796882 -0.427188 255 255 255
0.920144 -0.920144 0.000000 -0.427188 -0.796882 -0.427188 255 255 255
0.213439 -0.426879 0.000000 -0.427188 -0.796882 -0.427188 255 255 255
0.213439 -0.426879 -0.213439 -0.427188 -0.796882 -0.427188 255 255 255
0.213439 -0.426879 0.000000 0.659064 -0.362311 0.659064 255 255 255
0.213439 -0.426879 0.213439 0.659064 -0.362311 0.659064 255 255 255
0.000000 -0.426879 0.213439 0.659064 -0.362311 0.659064 255 255 255
0.000000 -1.203395 0.000000 0.659064 -0.362311 0.659064 255 255 255
0.920144 -0.920144 0.000000 -0.427188 -0.796882 0.427188 255 255 255
0.426879 -0.426879 0.213439 -0.427188 -0.796882 0.427188 255 255 255
0.213439 -0.426879 0.213439 -0.427188 -0.796882 0.427188 255 255 255
0.213439 -0.426879 0.000000 -0.427188 -0.796882 0.427188 255 255 255
0.426879 -0.426879 0.213439 -0.265661 -0.926741 -0.265661 255 255 255
0.713676 -0.713676 0.713676 -0.265661 -0.926741 -0.265661 255 255 255
0.213439 -0.426879 0.426879 -0.265661 -0.926741 -0.265661 255 255 255
0.213439 -0.426879 0.213439 -0.265661 -0.926741 -0.265661 255 255 255
0.213439 0.426879 -0.426879 0.204238 0.747094 0.632564 255 255 255
0.213439 0.426879 -0.213439 0.204238 0.747094 0.632564 255 255 255
0.145631 0.145631 -0.072815 0.204238 0.747094 0.632564 255 255 255
0.713676 0.713676 -0.713676 0.204238 0.747094 0.632564 255 255 255
0.000000 0.920144 -0.920144 0.427188 0.796882 0.427188 255 255 255
0.000000 0.426879 -0.213439 0.427188 0.796882 0.427188 255 255 255
0.213439 0.426879 -0.213439 0.427188 0.796882 0.427188 255 255 255
0.213439 0.426879 -0.426879 0.427188 0.796882 0.427188 255 255 255
0.000000 0.426879 -0.213439 0.659064 0.362311 -0.659064 255 255 255
0.000000 1.203395 0.000000 0.659064 0.362311 -0.659064 255 255 255
0.213439 0.426879 0.000000 0.659064 0.362311 -0.659064 255 255 255
0.213439 0.426879 -0.213439 0.659064 0.362311 -0.659064 255 255 255
-0.213439 0.426879 -0.426879 -0.427188 0.796882 0.427188 255 255 255
-0.213439 0.426879 -0.213439 -0.427188 0.796882 0.427188 255 255 255
0.000000 0.426879 -0.213439 -0.427188 0.796882 0.427188 255 255 255
0.000000 0.920144 -0.920144 -0.427188 0.796882 0.427188 255 255 255
-0.713676 0.713676 -0.713676 0.265661 0.926741 0.265661 255 255 255
-0.426879 0.426879 -0.213439 0.265661 0.926741 0.265661 255 255 255
-0.213439 0.426879 -0.213439 0.265661 0.926741 0.265661 255 255 255
-0.213439 0.426879 -0.426879 0.265661 0.926741 0.265661 255 255 255
-0.426879 0.426879 -0.213439 0.427188 0.796882 -0.427188 255 255 255
-0.920144 0.920144 0.000000 0.427188 0.796882 -0.427188 255 255 255
-0.213439 0.426879 0.000000 0.427188 0.796882 -0.427188 255 255 255
-0.213439 0.426879 -0.213439 0.427188 0.796882 -0.427188 255 255 255
-0.213439 0.426879 0.000000 -0.659064 0.362311 0.659064 255 255 255
-0.213439 0.426879 0.213439 -0.659064 0.362311 0.659064 255 255 255
0.000000 0.426879 0.213439 -0.659064 0.362311 0.659064 255 255 255
0.000000 1.203395 0.000000 -0.659064 0.362311 0.659064 255 255 255
-0.920144 0.920144 0.000000 0.427188 0.796882 0.427188 255 255 255
-0.426879 0.426879 0.213439 0.427188 0.796882 0.427188 255 255 255
-0.213439 0.426879 0.213439 0.427188 0.796882 0.427188 255 255 255
-0.213439 0.426879 0.000000 0.427188 0.796882 0.427188 255 255 255
-0.426879 0.426879 0.213439 0.265661 0.926741 -0.265661 255 255 255
-0.713676 0.713676 0.713676 0.265661 0.926741 -0.265661 255 255 255
-0.213439 0.426879 0.426879 0.265661 0.926741 -0.265661 255 255 255
-0.213439 0.426879 0.213439 0.265661 0.926741 -0.265661 255 255 255
4 0 1 2 3
4 4 5 6 7
4 8 9 10 11
4 12 13 14 15
4 16 17 18 19
4 20 21 22 23
4 24 25 26 27
4 28 29 30 31
4 32 33 34 35
4 36 37 38 39
4 40 41 42 43
4 44 45 46 47
4 48 49 50 51
4 52 53 54 55
4 56 57 58 59
4 60 61 62 63
4 64 65 66 67
4 68 69 70 71
4 72 73 74 75
4 76 77 78 79
4 80 81 82 83
4 84 85 86 87
4 88 89 90 91
4 92 93 94 95
4 96 97 98 99
4 100 101 102 103
4 104 105 106 107
4 108 109 110 111
4 112 113 114 115
4 116 117 118 119
4 120 121 122 123
4 124 125 126 127
4 128 129 130 131
4 132 133 134 135
4 136 137 138 139
4 140 141 142 143
4 144 145 146 147
4 148 149 150 151
4 152 153 154 155
4 156 157 158 159
4 160 161 162 163
4 164 165 166 167
4 168 169 170 171
4 172 173 174 175
4 176 177 178 179
4 180 181 182 183
4 184 185 186 187
4 188 189 190 191
4 192 193 194 195
4 196 197 198 199
4 200 201 202 203
4 204 205 206 207
4 208 209 210 211
4 212 213 214 215
4 216 217 218 219
4 220 221 222 223
4 224 225 226 227
4 228 229 230 231
4 232 233 234 235
4 236 237 238 239
4 240 241 242 243
4 244 245 246 247
4 248 249 250 251
4 252 253 254 255
4 256 257 258 259
4 260 261 262 263
4 264 265 266 267
4 268 269 270 271
4 272 273 274 275
4 276 277 278 279
4 280 281 282 283
4 284 285 286 287
4 288 289 290 291
4 292 293 294 295
4 296 297 298 299
4 300 301 302 303
4 304 305 306 307
4 308 309 310 311
4 312 313 314 315
4 316 317 318 319
4 320 321 322 323
4 324 325 326 327
4 328 329 330 331
4 332 333 334 335
4 336 337 338 339
4 340 341 342 343
4 344 345 346 347
4 348 349 350 351
4 352 353 354 355
4 356 357 358 359
4 360 361 362 363
4 364 365 366 367
4 368 369 370 371
4 372 373 374 375
4 376 377 378 379
4 380 381 382 383
