ply
format ascii 1.0
comment Created by Blender 2.68 (sub 0) - www.blender.org, source file: 'Head 3.blend'
element vertex 464
property float x
property float y
property float z
property float nx
property float ny
property float nz
element face 128
property list uchar uint vertex_indices
end_header
-0.236884 0.915671 0.804126 -0.505914 0.319919 0.801064
-0.654454 0.747645 0.637381 -0.505914 0.319919 0.801064
-0.654454 0.373823 0.756805 -0.505914 0.319919 0.801064
-0.236884 0.500000 1.000000 -0.505914 0.319919 0.801064
-0.236884 -0.376966 0.826634 -0.352665 -0.243475 0.903519
-0.606000 -0.267566 0.718998 -0.352665 -0.243475 0.903519
-0.545964 -0.641389 0.634738 -0.352665 -0.243475 0.903519
-0.236884 -0.821042 0.713926 -0.352665 -0.243475 0.903519
-0.679864 -0.442612 -0.420505 -0.779797 -0.437820 -0.447470
-0.525827 -0.390600 -0.602365 -0.779797 -0.437820 -0.447470
-0.436348 -0.725276 -0.568307 -0.779797 -0.437820 -0.447470
-0.490958 -0.829299 -0.233892 -0.779797 -0.437820 -0.447470
-0.072549 0.915671 0.804126 0.000000 0.426268 0.904597
-0.236884 0.915671 0.804126 0.000000 0.426268 0.904597
-0.236884 0.500000 1.000000 0.000000 0.426268 0.904597
-0.072549 0.500000 1.000000 0.000000 0.426268 0.904597
-0.209983 -1.044064 0.465232 -0.561473 -0.671837 0.483098
-0.236884 -0.821042 0.713926 -0.561473 -0.671837 0.483098
-0.545964 -0.641389 0.634738 -0.561473 -0.671837 0.483098
-0.490958 -0.829299 0.407148 -0.561473 -0.671837 0.483098
-0.072549 0.500000 1.000000 0.000000 -0.000000 1.000000
-0.236884 0.500000 1.000000 0.000000 -0.000000 1.000000
-0.236884 0.000000 1.000000 0.000000 -0.000000 1.000000
-0.072549 0.000000 1.000000 0.000000 -0.000000 1.000000
-0.022785 -1.077618 0.465232 -0.142739 -0.747699 0.648515
-0.072549 -0.854596 0.713926 -0.142739 -0.747699 0.648515
-0.236884 -0.821042 0.713926 -0.142739 -0.747699 0.648515
-0.209983 -1.044064 0.465232 -0.142739 -0.747699 0.648515
-0.023354 -1.145565 0.107629 -0.180231 -0.966941 0.180394
-0.022785 -1.077618 0.465232 -0.180231 -0.966941 0.180394
-0.209983 -1.044064 0.465232 -0.180231 -0.966941 0.180394
-0.196198 -1.112010 0.107629 -0.180231 -0.966941 0.180394
-0.196198 -1.112010 0.107629 -0.601458 -0.784897 0.148949
-0.209983 -1.044064 0.465232 -0.601458 -0.784897 0.148949
-0.490958 -0.829299 0.407148 -0.601458 -0.784897 0.148949
-0.516978 -0.880099 0.089607 -0.601458 -0.784897 0.148949
-0.861975 0.000000 -0.420505 -0.650050 -0.220911 -0.727072
-0.654454 0.000000 -0.577705 -0.650050 -0.220911 -0.727072
-0.525827 -0.390600 -0.602365 -0.650050 -0.220911 -0.727072
-0.679864 -0.442612 -0.420505 -0.650050 -0.220911 -0.727072
-0.887995 0.000000 0.003459 -0.938821 -0.320360 -0.126432
-0.861975 0.000000 -0.420505 -0.938821 -0.320360 -0.126432
-0.679864 -0.442612 -0.420505 -0.938821 -0.320360 -0.126432
-0.759369 -0.468012 0.003459 -0.938821 -0.320360 -0.126432
-0.236884 0.500000 1.000000 -0.503273 0.000000 0.864128
-0.654454 0.373823 0.756805 -0.503273 0.000000 0.864128
-0.654454 0.000000 0.756805 -0.503273 0.000000 0.864128
-0.236884 0.000000 1.000000 -0.503273 0.000000 0.864128
-0.733349 -0.442612 0.431164 -0.853360 -0.509225 0.111656
-0.759369 -0.468012 0.003459 -0.853360 -0.509225 0.111656
-0.516978 -0.880099 0.089607 -0.853360 -0.509225 0.111656
-0.490958 -0.829299 0.407148 -0.853360 -0.509225 0.111656
-0.861975 0.425835 0.431164 -0.998155 0.000000 0.060723
-0.887995 0.451235 0.003459 -0.998155 0.000000 0.060723
-0.887995 0.000000 0.003459 -0.998155 0.000000 0.060723
-0.861975 0.000000 0.431164 -0.998155 0.000000 0.060723
-0.861975 0.425835 -0.420505 -0.753794 -0.129528 -0.644218
-0.654454 0.373823 -0.738486 -0.753794 -0.129528 -0.644218
-0.654454 0.000000 -0.577705 -0.753794 -0.129528 -0.644218
-0.861975 0.000000 -0.420505 -0.753794 -0.129528 -0.644218
-0.072549 -0.500000 -0.784950 0.000000 -0.279681 -0.960093
0.000000 -0.500000 -0.784950 0.000000 -0.279681 -0.960093
0.000000 -1.053633 -0.623673 0.000000 -0.279681 -0.960093
-0.072549 -1.053633 -0.623673 0.000000 -0.279681 -0.960093
-0.072549 0.321260 -1.000000 0.000000 0.010553 -0.999944
0.000000 0.321260 -1.000000 0.000000 0.010553 -0.999944
0.000000 -0.374489 -1.007343 0.000000 0.010553 -0.999944
-0.072549 -0.374489 -1.007343 0.000000 0.010553 -0.999944
-0.759369 -0.468012 0.003459 -0.841358 -0.512698 -0.171047
-0.679864 -0.442612 -0.420505 -0.841358 -0.512698 -0.171047
-0.490958 -0.829299 -0.233892 -0.841358 -0.512698 -0.171047
-0.516978 -0.880099 0.089607 -0.841358 -0.512698 -0.171047
-0.209983 -1.105581 -0.325070 -0.648529 -0.758158 -0.067870
-0.196198 -1.112010 0.107629 -0.648529 -0.758158 -0.067870
-0.516978 -0.880099 0.089607 -0.648529 -0.758158 -0.067870
-0.490958 -0.829299 -0.233892 -0.648529 -0.758158 -0.067870
-0.236884 0.000000 1.000000 -0.422843 -0.310697 0.851276
-0.654454 0.000000 0.756805 -0.422843 -0.310697 0.851276
-0.606000 -0.267566 0.718998 -0.422843 -0.310697 0.851276
-0.236884 -0.376966 0.826634 -0.422843 -0.310697 0.851276
-0.072549 0.000000 1.000000 0.000000 -0.417829 0.908526
-0.236884 0.000000 1.000000 0.000000 -0.417829 0.908526
-0.236884 -0.376966 0.826634 0.000000 -0.417829 0.908526
-0.072549 -0.376966 0.826634 0.000000 -0.417829 0.908526
-0.072549 -0.376966 0.826634 -0.024246 -0.237494 0.971086
-0.236884 -0.376966 0.826634 -0.024246 -0.237494 0.971086
-0.236884 -0.821042 0.713926 -0.024246 -0.237494 0.971086
-0.072549 -0.854596 0.713926 -0.024246 -0.237494 0.971086
-0.022785 1.154668 -0.483693 0.000000 0.989969 -0.141285
-0.025978 1.222615 -0.007597 0.000000 0.989969 -0.141285
0.000000 1.222615 -0.007597 0.000000 0.989969 -0.141285
0.000000 1.154668 -0.483693 0.000000 0.989969 -0.141285
-0.022785 1.154668 0.473485 0.000000 0.810445 0.585814
-0.072549 0.915671 0.804126 0.000000 0.810445 0.585814
0.000000 0.915671 0.804126 0.000000 0.810445 0.585814
0.000000 1.154668 0.473485 0.000000 0.810445 0.585814
-0.606000 -0.267566 0.718998 -0.835140 -0.387660 0.390205
-0.733349 -0.442612 0.431164 -0.835140 -0.387660 0.390205
-0.490958 -0.829299 0.407148 -0.835140 -0.387660 0.390205
-0.545964 -0.641389 0.634738 -0.835140 -0.387660 0.390205
-0.654454 0.000000 0.756805 -0.824099 -0.232973 0.516318
-0.861975 0.000000 0.431164 -0.824099 -0.232973 0.516318
-0.733349 -0.442612 0.431164 -0.824099 -0.232973 0.516318
-0.606000 -0.267566 0.718998 -0.824099 -0.232973 0.516318
-0.861975 0.000000 0.431164 -0.960208 -0.271260 0.066469
-0.887995 0.000000 0.003459 -0.960208 -0.271260 0.066469
-0.759369 -0.468012 0.003459 -0.960208 -0.271260 0.066469
-0.733349 -0.442612 0.431164 -0.960208 -0.271260 0.066469
-0.654454 0.373823 0.756805 -0.843314 0.000000 0.537421
-0.861975 0.425835 0.431164 -0.843314 0.000000 0.537421
-0.861975 0.000000 0.431164 -0.843314 0.000000 0.537421
-0.654454 0.000000 0.756805 -0.843314 0.000000 0.537421
-0.654454 0.747645 0.637381 -0.855468 0.267520 0.443404
-0.709063 0.851669 0.363144 -0.855468 0.267520 0.443404
-0.861975 0.425835 0.431164 -0.855468 0.267520 0.443404
-0.654454 0.373823 0.756805 -0.855468 0.267520 0.443404
-0.709063 0.851669 0.363144 -0.937737 0.334294 0.094327
-0.735083 0.902469 0.003459 -0.937737 0.334294 0.094327
-0.887995 0.451235 0.003459 -0.937737 0.334294 0.094327
-0.861975 0.425835 0.431164 -0.937737 0.334294 0.094327
-0.887995 0.451235 0.003459 -0.998122 0.000000 -0.061257
-0.861975 0.425835 -0.420505 -0.998122 0.000000 -0.061257
-0.861975 0.000000 -0.420505 -0.998122 0.000000 -0.061257
-0.887995 0.000000 0.003459 -0.998122 0.000000 -0.061257
-0.735083 0.902469 0.003459 -0.937634 0.334327 -0.095228
-0.709063 0.851669 -0.352485 -0.937634 0.334327 -0.095228
-0.861975 0.425835 -0.420505 -0.937634 0.334327 -0.095228
-0.887995 0.451235 0.003459 -0.937634 0.334327 -0.095228
-0.709063 0.851669 -0.352485 -0.850083 0.268724 -0.452930
-0.654454 0.747645 -0.619062 -0.850083 0.268724 -0.452930
-0.654454 0.373823 -0.738486 -0.850083 0.268724 -0.452930
-0.861975 0.425835 -0.420505 -0.850083 0.268724 -0.452930
-0.525827 -0.390600 -0.602365 -0.577869 -0.238836 -0.780400
-0.236884 -0.500000 -0.784950 -0.577869 -0.238836 -0.780400
-0.236884 -1.020078 -0.623673 -0.577869 -0.238836 -0.780400
-0.436348 -0.725276 -0.568307 -0.577869 -0.238836 -0.780400
-0.654454 0.000000 -0.577705 -0.488080 -0.046359 -0.871567
-0.236884 0.000000 -0.784950 -0.488080 -0.046359 -0.871567
-0.236884 -0.500000 -0.784950 -0.488080 -0.046359 -0.871567
-0.525827 -0.390600 -0.602365 -0.488080 -0.046359 -0.871567
-0.072549 -0.374489 -1.007343 0.000000 -0.870881 -0.491494
0.000000 -0.374489 -1.007343 0.000000 -0.870881 -0.491494
0.000000 -0.500000 -0.784950 0.000000 -0.870881 -0.491494
-0.072549 -0.500000 -0.784950 0.000000 -0.870881 -0.491494
-0.654454 0.373823 -0.738486 -0.463914 -0.421347 -0.779262
-0.236884 0.321260 -1.000000 -0.463914 -0.421347 -0.779262
-0.236884 0.000000 -0.784950 -0.463914 -0.421347 -0.779262
-0.654454 0.000000 -0.577705 -0.463914 -0.421347 -0.779262
-0.654454 0.747645 -0.619062 -0.510153 0.238635 -0.826316
-0.236884 0.825789 -0.865761 -0.510153 0.238635 -0.826316
-0.236884 0.321260 -1.000000 -0.510153 0.238635 -0.826316
-0.654454 0.373823 -0.738486 -0.510153 0.238635 -0.826316
-0.072549 0.825789 -0.865761 0.000000 0.257122 -0.966379
0.000000 0.825789 -0.865761 0.000000 0.257122 -0.966379
0.000000 0.321260 -1.000000 0.000000 0.257122 -0.966379
-0.072549 0.321260 -1.000000 0.000000 0.257122 -0.966379
-0.236884 -1.020078 -0.623673 -0.773928 -0.596561 -0.212488
-0.209983 -1.105581 -0.325070 -0.773928 -0.596561 -0.212488
-0.490958 -0.829299 -0.233892 -0.773928 -0.596561 -0.212488
-0.436348 -0.725276 -0.568307 -0.773928 -0.596561 -0.212488
-0.072549 -1.053633 -0.623673 -0.181608 -0.951302 -0.249083
-0.022785 -1.139135 -0.325070 -0.181608 -0.951302 -0.249083
-0.209983 -1.105581 -0.325070 -0.181608 -0.951302 -0.249083
-0.236884 -1.020078 -0.623673 -0.181608 -0.951302 -0.249083
-0.022785 -1.139135 -0.325070 -0.183224 -0.983000 -0.011809
-0.023354 -1.145565 0.107629 -0.183224 -0.983000 -0.011809
-0.196198 -1.112010 0.107629 -0.183224 -0.983000 -0.011809
-0.209983 -1.105581 -0.325070 -0.183224 -0.983000 -0.011809
-0.072549 0.825789 -0.865761 0.000000 0.757891 -0.652382
-0.022785 1.154668 -0.483693 0.000000 0.757891 -0.652382
0.000000 1.154668 -0.483693 0.000000 0.757891 -0.652382
0.000000 0.825789 -0.865761 0.000000 0.757891 -0.652382
-0.654454 0.747645 -0.619062 -0.489284 0.723755 -0.486601
-0.709063 0.851669 -0.352485 -0.489284 0.723755 -0.486601
-0.209983 1.139135 -0.483693 -0.489284 0.723755 -0.486601
-0.236884 0.825789 -0.865761 -0.489284 0.723755 -0.486601
-0.709063 0.851669 -0.352485 -0.504631 0.853606 -0.129244
-0.735083 0.902469 0.003459 -0.504631 0.853606 -0.129244
-0.196198 1.207082 -0.007597 -0.504631 0.853606 -0.129244
-0.209983 1.139135 -0.483693 -0.504631 0.853606 -0.129244
-0.025978 1.222615 -0.007597 0.000000 0.990173 0.139849
-0.022785 1.154668 0.473485 0.000000 0.990173 0.139849
0.000000 1.154668 0.473485 0.000000 0.990173 0.139849
0.000000 1.222615 -0.007597 0.000000 0.990173 0.139849
-0.735083 0.902469 0.003459 -0.500615 0.856124 0.128200
-0.709063 0.851669 0.363144 -0.500615 0.856124 0.128200
-0.209983 1.139135 0.473485 -0.500615 0.856124 0.128200
-0.196198 1.207082 -0.007597 -0.500615 0.856124 0.128200
-0.709063 0.851669 0.363144 -0.502636 0.750379 0.429290
-0.654454 0.747645 0.637381 -0.502636 0.750379 0.429290
-0.236884 0.915671 0.804126 -0.502636 0.750379 0.429290
-0.209983 1.139135 0.473485 -0.502636 0.750379 0.429290
0.000000 0.915671 0.804126 0.000000 0.426268 0.904597
0.000000 0.500000 1.000000 0.000000 0.426268 0.904597
0.000000 0.500000 1.000000 0.000000 -0.000000 1.000000
0.000000 0.000000 1.000000 0.000000 -0.000000 1.000000
0.000000 -1.077618 0.465232 0.000000 -0.744488 0.667636
0.000000 -0.854596 0.713926 0.000000 -0.744488 0.667636
-0.072549 -0.854596 0.713926 0.000000 -0.744488 0.667636
-0.022785 -1.077618 0.465232 0.000000 -0.744488 0.667636
0.000000 -1.145565 0.107629 0.000000 -0.982423 0.186666
0.000000 -1.077618 0.465232 0.000000 -0.982423 0.186666
-0.022785 -1.077618 0.465232 0.000000 -0.982423 0.186666
-0.023354 -1.145565 0.107629 0.000000 -0.982423 0.186666
-0.236884 -0.500000 -0.784950 -0.029360 -0.287583 -0.957306
-0.072549 -0.500000 -0.784950 -0.029360 -0.287583 -0.957306
-0.072549 -1.053633 -0.623673 -0.029360 -0.287583 -0.957306
-0.236884 -1.020078 -0.623673 -0.029360 -0.287583 -0.957306
-0.236884 0.321260 -1.000000 -0.665228 -0.149405 -0.731539
-0.072549 0.321260 -1.000000 -0.665228 -0.149405 -0.731539
-0.072549 -0.374489 -1.007343 -0.665228 -0.149405 -0.731539
-0.236884 0.000000 -0.784950 -0.665228 -0.149405 -0.731539
0.000000 0.000000 1.000000 0.000000 -0.417829 0.908526
0.000000 -0.376966 0.826634 0.000000 -0.417829 0.908526
0.000000 -0.376966 0.826634 0.000000 -0.229667 0.973269
-0.072549 -0.376966 0.826634 0.000000 -0.229667 0.973269
-0.072549 -0.854596 0.713926 0.000000 -0.229667 0.973269
0.000000 -0.854596 0.713926 0.000000 -0.229667 0.973269
-0.209983 1.139135 -0.483693 -0.085740 0.986456 -0.139830
-0.196198 1.207082 -0.007597 -0.085740 0.986456 -0.139830
-0.025978 1.222615 -0.007597 -0.085740 0.986456 -0.139830
-0.022785 1.154668 -0.483693 -0.085740 0.986456 -0.139830
-0.209983 1.139135 0.473485 -0.036273 0.820916 0.569895
-0.236884 0.915671 0.804126 -0.036273 0.820916 0.569895
-0.072549 0.915671 0.804126 -0.036273 0.820916 0.569895
-0.022785 1.154668 0.473485 -0.036273 0.820916 0.569895
-0.236884 0.000000 -0.784950 -0.713815 -0.234609 -0.659869
-0.072549 -0.374489 -1.007343 -0.713815 -0.234609 -0.659869
-0.072549 -0.500000 -0.784950 -0.713815 -0.234609 -0.659869
-0.236884 -0.500000 -0.784950 -0.713815 -0.234609 -0.659869
-0.236884 0.825789 -0.865761 0.000000 0.257122 -0.966379
-0.236884 0.321260 -1.000000 0.000000 0.257122 -0.966379
0.000000 -1.053633 -0.623673 0.000000 -0.961365 -0.275278
0.000000 -1.139135 -0.325070 0.000000 -0.961365 -0.275278
-0.022785 -1.139135 -0.325070 0.000000 -0.961365 -0.275278
-0.072549 -1.053633 -0.623673 0.000000 -0.961365 -0.275278
0.000000 -1.139135 -0.325070 0.000000 -0.999890 -0.014858
0.000000 -1.145565 0.107629 0.000000 -0.999890 -0.014858
-0.023354 -1.145565 0.107629 0.000000 -0.999890 -0.014858
-0.022785 -1.139135 -0.325070 0.000000 -0.999890 -0.014858
-0.236884 0.825789 -0.865761 -0.033880 0.766764 -0.641034
-0.209983 1.139135 -0.483693 -0.033880 0.766764 -0.641034
-0.022785 1.154668 -0.483693 -0.033880 0.766764 -0.641034
-0.072549 0.825789 -0.865761 -0.033880 0.766764 -0.641034
-0.196198 1.207082 -0.007597 -0.085758 0.986655 0.138408
-0.209983 1.139135 0.473485 -0.085758 0.986655 0.138408
-0.022785 1.154668 0.473485 -0.085758 0.986655 0.138408
-0.025978 1.222615 -0.007597 -0.085758 0.986655 0.138408
0.236884 0.915671 0.804126 0.505914 0.319919 0.801064
0.236884 0.500000 1.000000 0.505914 0.319919 0.801064
0.654454 0.373823 0.756805 0.505914 0.319919 0.801064
0.654454 0.747645 0.637381 0.505914 0.319919 0.801064
0.236884 -0.376966 0.826634 0.352665 -0.243475 0.903519
0.236884 -0.821042 0.713926 0.352665 -0.243475 0.903519
0.545964 -0.641389 0.634738 0.352665 -0.243475 0.903519
0.606000 -0.267566 0.718998 0.352665 -0.243475 0.903519
0.679864 -0.442612 -0.420505 0.779797 -0.437820 -0.447470
0.490958 -0.829299 -0.233892 0.779797 -0.437820 -0.447470
0.436348 -0.725276 -0.568307 0.779797 -0.437820 -0.447470
0.525827 -0.390600 -0.602365 0.779797 -0.437820 -0.447470
0.072549 0.915671 0.804126 0.000000 0.426268 0.904597
0.072549 0.500000 1.000000 0.000000 0.426268 0.904597
0.236884 0.500000 1.000000 0.000000 0.426268 0.904597
0.236884 0.915671 0.804126 0.000000 0.426268 0.904597
0.209983 -1.044064 0.465232 0.561473 -0.671837 0.483098
0.490958 -0.829299 0.407148 0.561473 -0.671837 0.483098
0.545964 -0.641389 0.634738 0.561473 -0.671837 0.483098
0.236884 -0.821042 0.713926 0.561473 -0.671837 0.483098
0.072549 0.500000 1.000000 0.000000 0.000000 1.000000
0.072549 0.000000 1.000000 0.000000 0.000000 1.000000
0.236884 0.000000 1.000000 0.000000 0.000000 1.000000
0.236884 0.500000 1.000000 0.000000 0.000000 1.000000
0.022785 -1.077618 0.465232 0.142739 -0.747699 0.648515
0.209983 -1.044064 0.465232 0.142739 -0.747699 0.648515
0.236884 -0.821042 0.713926 0.142739 -0.747699 0.648515
0.072549 -0.854596 0.713926 0.142739 -0.747699 0.648515
0.023354 -1.145565 0.107629 0.180231 -0.966941 0.180394
0.196198 -1.112010 0.107629 0.180231 -0.966941 0.180394
0.209983 -1.044064 0.465232 0.180231 -0.966941 0.180394
0.022785 -1.077618 0.465232 0.180231 -0.966941 0.180394
0.196198 -1.112010 0.107629 0.601458 -0.784897 0.148949
0.516978 -0.880099 0.089607 0.601458 -0.784897 0.148949
0.490958 -0.829299 0.407148 0.601458 -0.784897 0.148949
0.209983 -1.044064 0.465232 0.601458 -0.784897 0.148949
0.861975 0.000000 -0.420505 0.650050 -0.220911 -0.727072
0.679864 -0.442612 -0.420505 0.650050 -0.220911 -0.727072
0.525827 -0.390600 -0.602365 0.650050 -0.220911 -0.727072
0.654454 0.000000 -0.577705 0.650050 -0.220911 -0.727072
0.887995 0.000000 0.003459 0.938821 -0.320360 -0.126432
0.759369 -0.468012 0.003459 0.938821 -0.320360 -0.126432
0.679864 -0.442612 -0.420505 0.938821 -0.320360 -0.126432
0.861975 0.000000 -0.420505 0.938821 -0.320360 -0.126432
0.236884 0.500000 1.000000 0.503273 0.000000 0.864128
0.236884 0.000000 1.000000 0.503273 0.000000 0.864128
0.654454 0.000000 0.756805 0.503273 0.000000 0.864128
0.654454 0.373823 0.756805 0.503273 0.000000 0.864128
0.733349 -0.442612 0.431164 0.853360 -0.509225 0.111656
0.490958 -0.829299 0.407148 0.853360 -0.509225 0.111656
0.516978 -0.880099 0.089607 0.853360 -0.509225 0.111656
0.759369 -0.468012 0.003459 0.853360 -0.509225 0.111656
0.861975 0.425835 0.431164 0.998155 0.000000 0.060723
0.861975 0.000000 0.431164 0.998155 0.000000 0.060723
0.887995 0.000000 0.003459 0.998155 0.000000 0.060723
0.887995 0.451235 0.003459 0.998155 0.000000 0.060723
0.861975 0.425835 -0.420505 0.753794 -0.129528 -0.644218
0.861975 0.000000 -0.420505 0.753794 -0.129528 -0.644218
0.654454 0.000000 -0.577705 0.753794 -0.129528 -0.644218
0.654454 0.373823 -0.738486 0.753794 -0.129528 -0.644218
0.072549 -0.500000 -0.784950 0.000000 -0.279681 -0.960093
0.072549 -1.053633 -0.623673 0.000000 -0.279681 -0.960093
0.072549 0.321260 -1.000000 0.000000 0.010553 -0.999944
0.072549 -0.374489 -1.007343 0.000000 0.010553 -0.999944
0.759369 -0.468012 0.003459 0.841358 -0.512698 -0.171047
0.516978 -0.880099 0.089607 0.841358 -0.512698 -0.171047
0.490958 -0.829299 -0.233892 0.841358 -0.512698 -0.171047
0.679864 -0.442612 -0.420505 0.841358 -0.512698 -0.171047
0.209983 -1.105581 -0.325070 0.648529 -0.758158 -0.067870
0.490958 -0.829299 -0.233892 0.648529 -0.758158 -0.067870
0.516978 -0.880099 0.089607 0.648529 -0.758158 -0.067870
0.196198 -1.112010 0.107629 0.648529 -0.758158 -0.067870
0.236884 0.000000 1.000000 0.422843 -0.310697 0.851276
0.236884 -0.376966 0.826634 0.422843 -0.310697 0.851276
0.606000 -0.267566 0.718998 0.422843 -0.310697 0.851276
0.654454 0.000000 0.756805 0.422843 -0.310697 0.851276
0.072549 0.000000 1.000000 0.000000 -0.417829 0.908526
0.072549 -0.376966 0.826634 0.000000 -0.417829 0.908526
0.236884 -0.376966 0.826634 0.000000 -0.417829 0.908526
0.236884 0.000000 1.000000 0.000000 -0.417829 0.908526
0.072549 -0.376966 0.826634 0.024246 -0.237494 0.971086
0.072549 -0.854596 0.713926 0.024246 -0.237494 0.971086
0.236884 -0.821042 0.713926 0.024246 -0.237494 0.971086
0.236884 -0.376966 0.826634 0.024246 -0.237494 0.971086
0.022785 1.154668 -0.483693 0.000000 0.989969 -0.141285
0.025978 1.222615 -0.007597 0.000000 0.989969 -0.141285
0.022785 1.154668 0.473485 0.000000 0.810445 0.585814
0.072549 0.915671 0.804126 0.000000 0.810445 0.585814
0.606000 -0.267566 0.718998 0.835140 -0.387660 0.390205
0.545964 -0.641389 0.634738 0.835140 -0.387660 0.390205
0.490958 -0.829299 0.407148 0.835140 -0.387660 0.390205
0.733349 -0.442612 0.431164 0.835140 -0.387660 0.390205
0.654454 0.000000 0.756805 0.824099 -0.232973 0.516318
0.606000 -0.267566 0.718998 0.824099 -0.232973 0.516318
0.733349 -0.442612 0.431164 0.824099 -0.232973 0.516318
0.861975 0.000000 0.431164 0.824099 -0.232973 0.516318
0.861975 0.000000 0.431164 0.960208 -0.271260 0.066469
0.733349 -0.442612 0.431164 0.960208 -0.271260 0.066469
0.759369 -0.468012 0.003459 0.960208 -0.271260 0.066469
0.887995 0.000000 0.003459 0.960208 -0.271260 0.066469
0.654454 0.373823 0.756805 0.843314 0.000000 0.537421
0.654454 0.000000 0.756805 0.843314 0.000000 0.537421
0.861975 0.000000 0.431164 0.843314 0.000000 0.537421
0.861975 0.425835 0.431164 0.843314 0.000000 0.537421
0.654454 0.747645 0.637381 0.855468 0.267520 0.443404
0.654454 0.373823 0.756805 0.855468 0.267520 0.443404
0.861975 0.425835 0.431164 0.855468 0.267520 0.443404
0.709063 0.851669 0.363144 0.855468 0.267520 0.443404
0.709063 0.851669 0.363144 0.937737 0.334294 0.094327
0.861975 0.425835 0.431164 0.937737 0.334294 0.094327
0.887995 0.451235 0.003459 0.937737 0.334294 0.094327
0.735083 0.902469 0.003459 0.937737 0.334294 0.094327
0.887995 0.451235 0.003459 0.998122 0.000000 -0.061257
0.887995 0.000000 0.003459 0.998122 0.000000 -0.061257
0.861975 0.000000 -0.420505 0.998122 0.000000 -0.061257
0.861975 0.425835 -0.420505 0.998122 0.000000 -0.061257
0.735083 0.902469 0.003459 0.937634 0.334327 -0.095228
0.887995 0.451235 0.003459 0.937634 0.334327 -0.095228
0.861975 0.425835 -0.420505 0.937634 0.334327 -0.095228
0.709063 0.851669 -0.352485 0.937634 0.334327 -0.095228
0.709063 0.851669 -0.352485 0.850083 0.268724 -0.452930
0.861975 0.425835 -0.420505 0.850083 0.268724 -0.452930
0.654454 0.373823 -0.738486 0.850083 0.268724 -0.452930
0.654454 0.747645 -0.619062 0.850083 0.268724 -0.452930
0.525827 -0.390600 -0.602365 0.577869 -0.238836 -0.780400
0.436348 -0.725276 -0.568307 0.577869 -0.238836 -0.780400
0.236884 -1.020078 -0.623673 0.577869 -0.238836 -0.780400
0.236884 -0.500000 -0.784950 0.577869 -0.238836 -0.780400
0.654454 0.000000 -0.577705 0.488080 -0.046359 -0.871567
0.525827 -0.390600 -0.602365 0.488080 -0.046359 -0.871567
0.236884 -0.500000 -0.784950 0.488080 -0.046359 -0.871567
0.236884 0.000000 -0.784950 0.488080 -0.046359 -0.871567
0.072549 -0.374489 -1.007343 0.000000 -0.870881 -0.491494
0.072549 -0.500000 -0.784950 0.000000 -0.870881 -0.491494
0.654454 0.373823 -0.738486 0.463914 -0.421347 -0.779262
0.654454 0.000000 -0.577705 0.463914 -0.421347 -0.779262
0.236884 0.000000 -0.784950 0.463914 -0.421347 -0.779262
0.236884 0.321260 -1.000000 0.463914 -0.421347 -0.779262
0.654454 0.747645 -0.619062 0.510153 0.238635 -0.826316
0.654454 0.373823 -0.738486 0.510153 0.238635 -0.826316
0.236884 0.321260 -1.000000 0.510153 0.238635 -0.826316
0.236884 0.825789 -0.865761 0.510153 0.238635 -0.826316
0.072549 0.825789 -0.865761 0.000000 0.257122 -0.966379
0.072549 0.321260 -1.000000 0.000000 0.257122 -0.966379
0.236884 -1.020078 -0.623673 0.773928 -0.596561 -0.212488
0.436348 -0.725276 -0.568307 0.773928 -0.596561 -0.212488
0.490958 -0.829299 -0.233892 0.773928 -0.596561 -0.212488
0.209983 -1.105581 -0.325070 0.773928 -0.596561 -0.212488
0.072549 -1.053633 -0.623673 0.181608 -0.951302 -0.249083
0.236884 -1.020078 -0.623673 0.181608 -0.951302 -0.249083
0.209983 -1.105581 -0.325070 0.181608 -0.951302 -0.249083
0.022785 -1.139135 -0.325070 0.181608 -0.951302 -0.249083
0.022785 -1.139135 -0.325070 0.183224 -0.983000 -0.011809
0.209983 -1.105581 -0.325070 0.183224 -0.983000 -0.011809
0.196198 -1.112010 0.107629 0.183224 -0.983000 -0.011809
0.023354 -1.145565 0.107629 0.183224 -0.983000 -0.011809
0.072549 0.825789 -0.865761 0.000000 0.757891 -0.652382
0.022785 1.154668 -0.483693 0.000000 0.757891 -0.652382
0.654454 0.747645 -0.619062 0.489284 0.723755 -0.486601
0.236884 0.825789 -0.865761 0.489284 0.723755 -0.486601
0.209983 1.139135 -0.483693 0.489284 0.723755 -0.486601
0.709063 0.851669 -0.352485 0.489284 0.723755 -0.486601
0.709063 0.851669 -0.352485 0.504631 0.853606 -0.129244
0.209983 1.139135 -0.483693 0.504631 0.853606 -0.129244
0.196198 1.207082 -0.007597 0.504631 0.853606 -0.129244
0.735083 0.902469 0.003459 0.504631 0.853606 -0.129244
0.025978 1.222615 -0.007597 0.000000 0.990173 0.139849
0.022785 1.154668 0.473485 0.000000 0.990173 0.139849
0.735083 0.902469 0.003459 0.500615 0.856124 0.128200
0.196198 1.207082 -0.007597 0.500615 0.856124 0.128200
0.209983 1.139135 0.473485 0.500615 0.856124 0.128200
0.709063 0.851669 0.363144 0.500615 0.856124 0.128200
0.709063 0.851669 0.363144 0.502636 0.750379 0.429290
0.209983 1.139135 0.473485 0.502636 0.750379 0.429290
0.236884 0.915671 0.804126 0.502636 0.750379 0.429290
0.654454 0.747645 0.637381 0.502636 0.750379 0.429290
0.022785 -1.077618 0.465232 0.000000 -0.744488 0.667636
0.072549 -0.854596 0.713926 0.000000 -0.744488 0.667636
0.023354 -1.145565 0.107629 0.000000 -0.982423 0.186666
0.022785 -1.077618 0.465232 0.000000 -0.982423 0.186666
0.236884 -0.500000 -0.784950 0.029360 -0.287583 -0.957306
0.236884 -1.020078 -0.623673 0.029360 -0.287583 -0.957306
0.072549 -1.053633 -0.623673 0.029360 -0.287583 -0.957306
0.072549 -0.500000 -0.784950 0.029360 -0.287583 -0.957306
0.236884 0.321260 -1.000000 0.665228 -0.149405 -0.731539
0.236884 0.000000 -0.784950 0.665228 -0.149405 -0.731539
0.072549 -0.374489 -1.007343 0.665228 -0.149405 -0.731539
0.072549 0.321260 -1.000000 0.665228 -0.149405 -0.731539
0.072549 -0.854596 0.713926 0.000000 -0.229667 0.973269
0.072549 -0.376966 0.826634 0.000000 -0.229667 0.973269
0.209983 1.139135 -0.483693 0.085740 0.986456 -0.139830
0.022785 1.154668 -0.483693 0.085740 0.986456 -0.139830
0.025978 1.222615 -0.007597 0.085740 0.986456 -0.139830
0.196198 1.207082 -0.007597 0.085740 0.986456 -0.139830
0.209983 1.139135 0.473485 0.036273 0.820916 0.569895
0.022785 1.154668 0.473485 0.036273 0.820916 0.569895
0.072549 0.915671 0.804126 0.036273 0.820916 0.569895
0.236884 0.915671 0.804126 0.036273 0.820916 0.569895
0.236884 0.000000 -0.784950 0.713815 -0.234609 -0.659869
0.236884 -0.500000 -0.784950 0.713815 -0.234609 -0.659869
0.072549 -0.500000 -0.784950 0.713815 -0.234609 -0.659869
0.072549 -0.374489 -1.007343 0.713815 -0.234609 -0.659869
0.236884 0.825789 -0.865761 0.000000 0.257122 -0.966379
0.236884 0.321260 -1.000000 0.000000 0.257122 -0.966379
0.072549 -1.053633 -0.623673 0.000000 -0.961365 -0.275278
0.022785 -1.139135 -0.325070 0.000000 -0.961365 -0.275278
0.022785 -1.139135 -0.325070 0.000000 -0.999890 -0.014858
0.023354 -1.145565 0.107629 0.000000 -0.999890 -0.014858
0.236884 0.825789 -0.865761 0.033880 0.766764 -0.641034
0.072549 0.825789 -0.865761 0.033880 0.766764 -0.641034
0.022785 1.154668 -0.483693 0.033880 0.766764 -0.641034
0.209983 1.139135 -0.483693 0.033880 0.766764 -0.641034
0.196198 1.207082 -0.007597 0.085758 0.986655 0.138408
0.025978 1.222615 -0.007597 0.085758 0.986655 0.138408
0.022785 1.154668 0.473485 0.085758 0.986655 0.138408
0.209983 1.139135 0.473485 0.085758 0.986655 0.138408
4 0 1 2 3
4 4 5 6 7
4 8 9 10 11
4 12 13 14 15
4 16 17 18 19
4 20 21 22 23
4 24 25 26 27
4 28 29 30 31
4 32 33 34 35
4 36 37 38 39
4 40 41 42 43
4 44 45 46 47
4 48 49 50 51
4 52 53 54 55
4 56 57 58 59
4 60 61 62 63
4 64 65 66 67
4 68 69 70 71
4 72 73 74 75
4 76 77 78 79
4 80 81 82 83
4 84 85 86 87
4 88 89 90 91
4 92 93 94 95
4 96 97 98 99
4 100 101 102 103
4 104 105 106 107
4 108 109 110 111
4 112 113 114 115
4 116 117 118 119
4 120 121 122 123
4 124 125 126 127
4 128 129 130 131
4 132 133 134 135
4 136 137 138 139
4 140 141 142 143
4 144 145 146 147
4 148 149 150 151
4 152 153 154 155
4 156 157 158 159
4 160 161 162 163
4 164 165 166 167
4 168 169 170 171
4 172 173 174 175
4 176 177 178 179
4 180 181 182 183
4 184 185 186 187
4 188 189 190 191
4 192 12 15 193
4 194 20 23 195
4 196 197 198 199
4 200 201 202 203
4 204 205 206 207
4 208 209 210 211
4 212 80 83 213
4 214 215 216 217
4 218 219 220 221
4 222 223 224 225
4 226 227 228 229
4 230 152 155 231
4 232 233 234 235
4 236 237 238 239
4 240 241 242 243
4 244 245 246 247
4 248 249 250 251
4 252 253 254 255
4 256 257 258 259
4 260 261 262 263
4 264 265 266 267
4 268 269 270 271
4 272 273 274 275
4 276 277 278 279
4 280 281 282 283
4 284 285 286 287
4 288 289 290 291
4 292 293 294 295
4 296 297 298 299
4 300 301 302 303
4 304 305 306 307
4 308 309 62 61
4 310 311 66 65
4 312 313 314 315
4 316 317 318 319
4 320 321 322 323
4 324 325 326 327
4 328 329 330 331
4 332 91 90 333
4 334 95 94 335
4 336 337 338 339
4 340 341 342 343
4 344 345 346 347
4 348 349 350 351
4 352 353 354 355
4 356 357 358 359
4 360 361 362 363
4 364 365 366 367
4 368 369 370 371
4 372 373 374 375
4 376 377 378 379
4 380 381 142 141
4 382 383 384 385
4 386 387 388 389
4 390 391 154 153
4 392 393 394 395
4 396 397 398 399
4 400 401 402 403
4 404 171 170 405
4 406 407 408 409
4 410 411 412 413
4 414 183 182 415
4 416 417 418 419
4 420 421 422 423
4 192 193 261 260
4 194 195 269 268
4 196 424 425 197
4 200 426 427 201
4 428 429 430 431
4 432 433 434 435
4 212 213 325 324
4 214 217 436 437
4 438 439 440 441
4 442 443 444 445
4 446 447 448 449
4 450 451 391 390
4 232 452 453 233
4 236 454 455 237
4 456 457 458 459
4 460 461 462 463
