ply
format ascii 1.0
comment Created by Blender 2.68 (sub 0) - www.blender.org, source file: 'Knife01.blend'
element vertex 256
property float x
property float y
property float z
property float nx
property float ny
property float nz
element face 64
property list uchar uint vertex_indices
end_header
-0.015343 0.042767 -1.943703 0.163060 0.986589 -0.007346
0.015369 0.042767 -1.008583 0.163060 0.986589 -0.007346
0.210119 0.012466 -1.008583 0.163060 0.986589 -0.007346
0.156580 0.012466 -1.943703 0.163060 0.986589 -0.007346
0.156580 0.012466 -1.943703 0.301659 0.953257 -0.017428
0.210119 0.012466 -1.008583 0.301659 0.953257 -0.017428
0.250000 0.000000 -1.008583 0.301659 0.953257 -0.017428
0.195486 0.000000 -1.943703 0.301659 0.953257 -0.017428
0.210119 0.012466 -1.008583 0.082007 0.562724 -0.822567
0.015369 0.042767 -1.008583 0.082007 0.562724 -0.822567
-0.001435 0.135121 -0.945765 0.082007 0.562724 -0.822567
0.172720 0.111661 -0.945765 0.082007 0.562724 -0.822567
-0.234631 0.030931 -2.637293 -0.849665 0.527314 -0.003144
-0.234631 0.019764 -3.475973 -0.849665 0.527314 -0.003144
-0.250000 0.000000 -3.671691 -0.849665 0.527314 -0.003144
-0.250000 0.000000 -2.637293 -0.849665 0.527314 -0.003144
-0.192113 0.019764 -3.375042 0.267896 0.959820 -0.083524
-0.127445 0.015832 -3.180196 0.267896 0.959820 -0.083524
-0.117840 0.000000 -3.363938 0.267896 0.959820 -0.083524
-0.196034 0.000000 -3.582121 0.267896 0.959820 -0.083524
-0.083686 0.030931 -2.637293 0.152863 0.987888 -0.026653
-0.015343 0.042767 -1.943703 0.152863 0.987888 -0.026653
0.156580 0.012466 -1.943703 0.152863 0.987888 -0.026653
0.035989 0.016111 -2.637293 0.152863 0.987888 -0.026653
0.035989 0.016111 -2.637293 0.337521 0.939663 -0.055789
0.156580 0.012466 -1.943703 0.337521 0.939663 -0.055789
0.195486 0.000000 -1.943703 0.337521 0.939663 -0.055789
0.076642 0.000000 -2.637293 0.337521 0.939663 -0.055789
-0.234631 0.042767 -1.008583 -0.941079 0.338188 0.000000
-0.234631 0.042767 -1.943703 -0.941079 0.338188 0.000000
-0.250000 0.000000 -1.943703 -0.941079 0.338188 0.000000
-0.250000 0.000000 -1.008583 -0.941079 0.338188 0.000000
-0.234631 0.042767 -1.943703 0.000000 1.000000 0.000000
-0.234631 0.042767 -1.008583 0.000000 1.000000 0.000000
0.015369 0.042767 -1.008583 0.000000 1.000000 0.000000
-0.015343 0.042767 -1.943703 0.000000 1.000000 0.000000
-0.234631 0.042767 -1.008583 -0.775597 0.559223 0.292778
-0.250000 0.000000 -1.008583 -0.775597 0.559223 0.292778
-0.241754 0.000000 -0.945765 -0.775597 0.559223 0.292778
-0.146070 0.111255 -0.945765 -0.775597 0.559223 0.292778
-0.234631 0.019764 -3.475973 0.208091 0.972415 -0.105393
-0.192113 0.019764 -3.375042 0.208091 0.972415 -0.105393
-0.196034 0.000000 -3.582121 0.208091 0.972415 -0.105393
-0.250000 0.000000 -3.671691 0.208091 0.972415 -0.105393
-0.234631 0.030931 -2.637293 0.000000 0.999854 -0.017063
-0.234631 0.042767 -1.943703 0.000000 0.999854 -0.017063
-0.015343 0.042767 -1.943703 0.000000 0.999854 -0.017063
-0.083686 0.030931 -2.637293 0.000000 0.999854 -0.017063
-0.234631 0.042767 -1.943703 -0.922937 0.384937 -0.003285
-0.234631 0.030931 -2.637293 -0.922937 0.384937 -0.003285
-0.250000 0.000000 -2.637293 -0.922937 0.384937 -0.003285
-0.250000 0.000000 -1.943703 -0.922937 0.384937 -0.003285
0.035989 0.016111 -2.637293 0.141777 0.989132 -0.038938
-0.127445 0.015832 -3.180196 0.141777 0.989132 -0.038938
-0.192113 0.019764 -3.375042 0.141777 0.989132 -0.038938
-0.083686 0.030931 -2.637293 0.141777 0.989132 -0.038938
-0.127445 0.015832 -3.180196 0.297293 0.951082 -0.084023
0.035989 0.016111 -2.637293 0.297293 0.951082 -0.084023
0.076642 0.000000 -2.637293 0.297293 0.951082 -0.084023
-0.117840 0.000000 -3.363938 0.297293 0.951082 -0.084023
-0.234631 0.019764 -3.475973 0.007665 0.999863 -0.014692
-0.234631 0.030931 -2.637293 0.007665 0.999863 -0.014692
-0.083686 0.030931 -2.637293 0.007665 0.999863 -0.014692
-0.192113 0.019764 -3.375042 0.007665 0.999863 -0.014692
0.244557 0.000000 -0.945765 0.931370 0.355371 -0.079135
0.172720 0.111661 -0.945765 0.931370 0.355371 -0.079135
0.204700 0.181069 -0.601727 0.931370 0.355371 -0.079135
0.244557 0.000000 -0.601727 0.931370 0.355371 -0.079135
-0.146070 0.111255 -0.945765 -0.885276 0.454344 -0.099289
-0.241754 0.000000 -0.945765 -0.885276 0.454344 -0.099289
-0.241754 0.000000 -0.601727 -0.885276 0.454344 -0.099289
-0.185616 0.184567 -0.601727 -0.885276 0.454344 -0.099289
0.015369 0.042767 -1.008583 -0.037832 0.625566 -0.779254
-0.234631 0.042767 -1.008583 -0.037832 0.625566 -0.779254
-0.146070 0.111255 -0.945765 -0.037832 0.625566 -0.779254
-0.001435 0.135121 -0.945765 -0.037832 0.625566 -0.779254
0.250000 0.000000 -1.008583 0.716730 0.645076 -0.264905
0.210119 0.012466 -1.008583 0.716730 0.645076 -0.264905
0.172720 0.111661 -0.945765 0.716730 0.645076 -0.264905
0.244557 0.000000 -0.945765 0.716730 0.645076 -0.264905
-0.001435 0.228759 -0.601727 -0.233317 0.972401 0.000000
-0.185616 0.184567 -0.601727 -0.233317 0.972401 0.000000
-0.185616 0.184567 0.949920 -0.233317 0.972401 0.000000
-0.001435 0.228759 0.949920 -0.233317 0.972401 0.000000
0.204700 0.181069 -0.601727 0.225399 0.974266 0.000000
-0.001435 0.228759 -0.601727 0.225399 0.974266 0.000000
-0.001435 0.228759 0.949920 0.225399 0.974266 0.000000
0.204700 0.181069 0.949920 0.225399 0.974266 0.000000
0.172720 0.111661 -0.945765 0.178766 0.955484 -0.234719
-0.001435 0.135121 -0.945765 0.178766 0.955484 -0.234719
-0.001435 0.228759 -0.601727 0.178766 0.955484 -0.234719
0.204700 0.181069 -0.601727 0.178766 0.955484 -0.234719
-0.001435 0.135121 -0.945765 -0.196668 0.950175 -0.241846
-0.146070 0.111255 -0.945765 -0.196668 0.950175 -0.241846
-0.185616 0.184567 -0.601727 -0.196668 0.950175 -0.241846
-0.001435 0.228759 -0.601727 -0.196668 0.950175 -0.241846
0.244557 0.000000 0.949920 0.671892 0.128728 0.729377
0.204700 0.181069 0.949920 0.671892 0.128728 0.729377
0.118557 0.145983 1.040224 0.671892 0.128728 0.729377
0.141361 0.000000 1.040224 0.671892 0.128728 0.729377
-0.185616 0.184567 0.949920 -0.667931 0.177263 0.722804
-0.241754 0.000000 0.949920 -0.667931 0.177263 0.722804
-0.136876 0.000000 1.040224 -0.667931 0.177263 0.722804
-0.104757 0.147984 1.040224 -0.667931 0.177263 0.722804
-0.185616 0.184567 -0.601727 -0.956724 0.290997 0.000000
-0.241754 0.000000 -0.601727 -0.956724 0.290997 0.000000
-0.241754 0.000000 0.949920 -0.956724 0.290997 0.000000
-0.185616 0.184567 0.949920 -0.956724 0.290997 0.000000
0.244557 0.000000 -0.601727 0.976620 0.214971 0.000000
0.204700 0.181069 -0.601727 0.976620 0.214971 0.000000
0.204700 0.181069 0.949920 0.976620 0.214971 0.000000
0.244557 0.000000 0.949920 0.976620 0.214971 0.000000
0.000620 0.173268 1.040224 -0.233805 0.185534 0.954417
-0.104757 0.147984 1.040224 -0.233805 0.185534 0.954417
-0.136876 0.000000 1.040224 -0.233805 0.185534 0.954417
-0.019079 0.000000 1.089980 -0.233805 0.185534 0.954417
0.118557 0.145983 1.040224 0.188390 0.153024 0.970099
0.000620 0.173268 1.040224 0.188390 0.153024 0.970099
-0.019079 0.000000 1.089980 0.188390 0.153024 0.970099
0.141361 0.000000 1.040224 0.188390 0.153024 0.970099
0.204700 0.181069 0.949920 0.193828 0.837803 0.510409
-0.001435 0.228759 0.949920 0.193828 0.837803 0.510409
0.000620 0.173268 1.040224 0.193828 0.837803 0.510409
0.118557 0.145983 1.040224 0.193828 0.837803 0.510409
-0.001435 0.228759 0.949920 -0.199817 0.832783 0.516281
-0.185616 0.184567 0.949920 -0.199817 0.832783 0.516281
-0.104757 0.147984 1.040224 -0.199817 0.832783 0.516281
0.000620 0.173268 1.040224 -0.199817 0.832783 0.516281
-0.015343 -0.042767 -1.943703 0.163060 -0.986589 -0.007346
0.156580 -0.012466 -1.943703 0.163060 -0.986589 -0.007346
0.210119 -0.012466 -1.008583 0.163060 -0.986589 -0.007346
0.015369 -0.042767 -1.008583 0.163060 -0.986589 -0.007346
0.156580 -0.012466 -1.943703 0.301659 -0.953257 -0.017428
0.195486 0.000000 -1.943703 0.301659 -0.953257 -0.017428
0.250000 0.000000 -1.008583 0.301659 -0.953257 -0.017428
0.210119 -0.012466 -1.008583 0.301659 -0.953257 -0.017428
0.210119 -0.012466 -1.008583 0.082007 -0.562724 -0.822567
0.172720 -0.111661 -0.945765 0.082007 -0.562724 -0.822567
-0.001435 -0.135121 -0.945765 0.082007 -0.562724 -0.822567
0.015369 -0.042767 -1.008583 0.082007 -0.562724 -0.822567
-0.234631 -0.030931 -2.637293 -0.849665 -0.527314 -0.003144
-0.250000 0.000000 -2.637293 -0.849665 -0.527314 -0.003144
-0.250000 0.000000 -3.671691 -0.849665 -0.527314 -0.003144
-0.234631 -0.019764 -3.475973 -0.849665 -0.527314 -0.003144
-0.192113 -0.019764 -3.375042 0.267896 -0.959820 -0.083524
-0.196034 0.000000 -3.582121 0.267896 -0.959820 -0.083524
-0.117840 0.000000 -3.363938 0.267896 -0.959820 -0.083524
-0.127445 -0.015832 -3.180196 0.267896 -0.959820 -0.083524
-0.083686 -0.030931 -2.637293 0.152863 -0.987888 -0.026653
0.035989 -0.016111 -2.637293 0.152863 -0.987888 -0.026653
0.156580 -0.012466 -1.943703 0.152863 -0.987888 -0.026653
-0.015343 -0.042767 -1.943703 0.152863 -0.987888 -0.026653
0.035989 -0.016111 -2.637293 0.337521 -0.939663 -0.055789
0.076642 0.000000 -2.637293 0.337521 -0.939663 -0.055789
0.195486 0.000000 -1.943703 0.337521 -0.939663 -0.055789
0.156580 -0.012466 -1.943703 0.337521 -0.939663 -0.055789
-0.234631 -0.042767 -1.008583 -0.941079 -0.338188 0.000000
-0.250000 0.000000 -1.008583 -0.941079 -0.338188 0.000000
-0.250000 0.000000 -1.943703 -0.941079 -0.338188 0.000000
-0.234631 -0.042767 -1.943703 -0.941079 -0.338188 0.000000
-0.234631 -0.042767 -1.943703 0.000000 -1.000000 -0.000000
-0.015343 -0.042767 -1.943703 0.000000 -1.000000 -0.000000
0.015369 -0.042767 -1.008583 0.000000 -1.000000 -0.000000
-0.234631 -0.042767 -1.008583 0.000000 -1.000000 -0.000000
-0.234631 -0.042767 -1.008583 -0.775597 -0.559223 0.292778
-0.146070 -0.111255 -0.945765 -0.775597 -0.559223 0.292778
-0.241754 0.000000 -0.945765 -0.775597 -0.559223 0.292778
-0.250000 0.000000 -1.008583 -0.775597 -0.559223 0.292778
-0.234631 -0.019764 -3.475973 0.208091 -0.972415 -0.105393
-0.250000 0.000000 -3.671691 0.208091 -0.972415 -0.105393
-0.196034 0.000000 -3.582121 0.208091 -0.972415 -0.105393
-0.192113 -0.019764 -3.375042 0.208091 -0.972415 -0.105393
-0.234631 -0.030931 -2.637293 0.000000 -0.999854 -0.017063
-0.083686 -0.030931 -2.637293 0.000000 -0.999854 -0.017063
-0.015343 -0.042767 -1.943703 0.000000 -0.999854 -0.017063
-0.234631 -0.042767 -1.943703 0.000000 -0.999854 -0.017063
-0.234631 -0.042767 -1.943703 -0.922937 -0.384937 -0.003285
-0.250000 0.000000 -1.943703 -0.922937 -0.384937 -0.003285
-0.250000 0.000000 -2.637293 -0.922937 -0.384937 -0.003285
-0.234631 -0.030931 -2.637293 -0.922937 -0.384937 -0.003285
-0.192113 -0.019764 -3.375042 0.141777 -0.989132 -0.038938
-0.127445 -0.015832 -3.180196 0.141777 -0.989132 -0.038938
0.035989 -0.016111 -2.637293 0.141777 -0.989132 -0.038938
-0.083686 -0.030931 -2.637293 0.141777 -0.989132 -0.038938
-0.127445 -0.015832 -3.180196 0.297293 -0.951082 -0.084023
-0.117840 0.000000 -3.363938 0.297293 -0.951082 -0.084023
0.076642 0.000000 -2.637293 0.297293 -0.951082 -0.084023
0.035989 -0.016111 -2.637293 0.297293 -0.951082 -0.084023
-0.234631 -0.019764 -3.475973 0.007665 -0.999863 -0.014692
-0.192113 -0.019764 -3.375042 0.007665 -0.999863 -0.014692
-0.083686 -0.030931 -2.637293 0.007665 -0.999863 -0.014692
-0.234631 -0.030931 -2.637293 0.007665 -0.999863 -0.014692
0.244557 0.000000 -0.945765 0.931370 -0.355371 -0.079135
0.244557 0.000000 -0.601727 0.931370 -0.355371 -0.079135
0.204700 -0.181069 -0.601727 0.931370 -0.355371 -0.079135
0.172720 -0.111661 -0.945765 0.931370 -0.355371 -0.079135
-0.146070 -0.111255 -0.945765 -0.885276 -0.454344 -0.099289
-0.185616 -0.184567 -0.601727 -0.885276 -0.454344 -0.099289
-0.241754 0.000000 -0.601727 -0.885276 -0.454344 -0.099289
-0.241754 0.000000 -0.945765 -0.885276 -0.454344 -0.099289
0.015369 -0.042767 -1.008583 -0.037832 -0.625566 -0.779254
-0.001435 -0.135121 -0.945765 -0.037832 -0.625566 -0.779254
-0.146070 -0.111255 -0.945765 -0.037832 -0.625566 -0.779254
-0.234631 -0.042767 -1.008583 -0.037832 -0.625566 -0.779254
0.250000 0.000000 -1.008583 0.716730 -0.645076 -0.264905
0.244557 0.000000 -0.945765 0.716730 -0.645076 -0.264905
0.172720 -0.111661 -0.945765 0.716730 -0.645076 -0.264905
0.210119 -0.012466 -1.008583 0.716730 -0.645076 -0.264905
-0.001435 -0.228759 -0.601727 -0.233317 -0.972401 0.000000
-0.001435 -0.228759 0.949920 -0.233317 -0.972401 0.000000
-0.185616 -0.184567 0.949920 -0.233317 -0.972401 0.000000
-0.185616 -0.184567 -0.601727 -0.233317 -0.972401 0.000000
0.204700 -0.181069 -0.601727 0.225399 -0.974266 0.000000
0.204700 -0.181069 0.949920 0.225399 -0.974266 0.000000
-0.001435 -0.228759 0.949920 0.225399 -0.974266 0.000000
-0.001435 -0.228759 -0.601727 0.225399 -0.974266 0.000000
0.172720 -0.111661 -0.945765 0.178766 -0.955484 -0.234719
0.204700 -0.181069 -0.601727 0.178766 -0.955484 -0.234719
-0.001435 -0.228759 -0.601727 0.178766 -0.955484 -0.234719
-0.001435 -0.135121 -0.945765 0.178766 -0.955484 -0.234719
-0.001435 -0.135121 -0.945765 -0.196668 -0.950175 -0.241846
-0.001435 -0.228759 -0.601727 -0.196668 -0.950175 -0.241846
-0.185616 -0.184567 -0.601727 -0.196668 -0.950175 -0.241846
-0.146070 -0.111255 -0.945765 -0.196668 -0.950175 -0.241846
0.244557 0.000000 0.949920 0.671892 -0.128728 0.729377
0.141361 0.000000 1.040224 0.671892 -0.128728 0.729377
0.118557 -0.145983 1.040224 0.671892 -0.128728 0.729377
0.204700 -0.181069 0.949920 0.671892 -0.128728 0.729377
-0.185616 -0.184567 0.949920 -0.667931 -0.177263 0.722804
-0.104757 -0.147984 1.040224 -0.667931 -0.177263 0.722804
-0.136876 0.000000 1.040224 -0.667931 -0.177263 0.722804
-0.241754 0.000000 0.949920 -0.667931 -0.177263 0.722804
-0.185616 -0.184567 -0.601727 -0.956724 -0.290997 0.000000
-0.185616 -0.184567 0.949920 -0.956724 -0.290997 0.000000
-0.241754 0.000000 0.949920 -0.956724 -0.290997 0.000000
-0.241754 0.000000 -0.601727 -0.956724 -0.290997 0.000000
0.244557 0.000000 -0.601727 0.976620 -0.214971 0.000000
0.244557 0.000000 0.949920 0.976620 -0.214971 0.000000
0.204700 -0.181069 0.949920 0.976620 -0.214971 0.000000
0.204700 -0.181069 -0.601727 0.976620 -0.214971 0.000000
0.000620 -0.173268 1.040224 -0.233805 -0.185534 0.954417
-0.019079 0.000000 1.089980 -0.233805 -0.185534 0.954417
-0.136876 0.000000 1.040224 -0.233805 -0.185534 0.954417
-0.104757 -0.147984 1.040224 -0.233805 -0.185534 0.954417
0.118557 -0.145983 1.040224 0.188390 -0.153024 0.970099
0.141361 0.000000 1.040224 0.188390 -0.153024 0.970099
-0.019079 0.000000 1.089980 0.188390 -0.153024 0.970099
0.000620 -0.173268 1.040224 0.188390 -0.153024 0.970099
0.204700 -0.181069 0.949920 0.193828 -0.837803 0.510409
0.118557 -0.145983 1.040224 0.193828 -0.837803 0.510409
0.000620 -0.173268 1.040224 0.193828 -0.837803 0.510409
-0.001435 -0.228759 0.949920 0.193828 -0.837803 0.510409
-0.001435 -0.228759 0.949920 -0.199817 -0.832783 0.516281
0.000620 -0.173268 1.040224 -0.199817 -0.832783 0.516281
-0.104757 -0.147984 1.040224 -0.199817 -0.832783 0.516281
-0.185616 -0.184567 0.949920 -0.199817 -0.832783 0.516281
4 0 1 2 3
4 4 5 6 7
4 8 9 10 11
4 12 13 14 15
4 16 17 18 19
4 20 21 22 23
4 24 25 26 27
4 28 29 30 31
4 32 33 34 35
4 36 37 38 39
4 40 41 42 43
4 44 45 46 47
4 48 49 50 51
4 52 53 54 55
4 56 57 58 59
4 60 61 62 63
4 64 65 66 67
4 68 69 70 71
4 72 73 74 75
4 76 77 78 79
4 80 81 82 83
4 84 85 86 87
4 88 89 90 91
4 92 93 94 95
4 96 97 98 99
4 100 101 102 103
4 104 105 106 107
4 108 109 110 111
4 112 113 114 115
4 116 117 118 119
4 120 121 122 123
4 124 125 126 127
4 128 129 130 131
4 132 133 134 135
4 136 137 138 139
4 140 141 142 143
4 144 145 146 147
4 148 149 150 151
4 152 153 154 155
4 156 157 158 159
4 160 161 162 163
4 164 165 166 167
4 168 169 170 171
4 172 173 174 175
4 176 177 178 179
4 180 181 182 183
4 184 185 186 187
4 188 189 190 191
4 192 193 194 195
4 196 197 198 199
4 200 201 202 203
4 204 205 206 207
4 208 209 210 211
4 212 213 214 215
4 216 217 218 219
4 220 221 222 223
4 224 225 226 227
4 228 229 230 231
4 232 233 234 235
4 236 237 238 239
4 240 241 242 243
4 244 245 246 247
4 248 249 250 251
4 252 253 254 255
