ply
format ascii 1.0
comment Created by Blender 2.68 (sub 0) - www.blender.org, source file: 'OtherKnife03.blend'
element vertex 524
property float x
property float y
property float z
property float nx
property float ny
property float nz
property uchar red
property uchar green
property uchar blue
element face 510
property list uchar uint vertex_indices
end_header
-0.029571 0.051824 -2.257876 0.034089 0.999390 0.000305 158 158 158
-0.021554 0.050813 -1.569467 0.025056 0.999664 0.000488 158 158 158
0.059324 0.047031 -1.569463 0.076449 0.997070 -0.001434 158 158 158
0.040021 0.048103 -1.988673 0.075045 0.997162 -0.001007 158 158 158
-0.156319 0.058824 -2.659015 0.037873 0.999268 0.001068 158 158 158
-0.163601 0.053980 -1.569465 0.017151 0.999847 0.002533 158 158 158
-0.102664 0.051395 -1.569463 0.025544 0.999664 0.001526 158 158 158
-0.099291 0.053865 -2.527073 0.046815 0.998901 0.000641 158 158 158
-0.134657 0.031895 -4.554817 0.341655 0.936338 -0.080691 158 158 158
0.008256 0.021175 -3.769589 0.428999 0.901364 -0.058992 158 158 158
0.038478 0.000000 -3.880311 0.497696 0.863216 -0.084445 158 158 158
-0.131984 -0.000000 -4.770806 0.359813 0.927702 -0.099338 158 158 158
0.182269 0.020001 -2.033350 0.315470 0.948729 -0.019288 158 158 158
0.210578 0.018187 -1.569477 0.286508 0.957976 -0.012726 158 158 158
0.267867 0.000000 -1.569463 0.300211 0.953734 -0.014618 158 158 158
0.233154 -0.000000 -2.047778 0.351787 0.935759 -0.023804 158 158 158
-0.143005 0.053597 -4.155852 0.097842 0.995025 -0.017975 158 158 158
-0.058919 0.048103 -3.571795 0.130467 0.991363 -0.011597 158 158 158
-0.022741 0.039355 -3.658766 0.267800 0.962920 -0.031739 158 158 158
-0.137425 0.049148 -4.338751 0.221564 0.973937 -0.047975 158 158 158
0.098341 0.048936 -0.030711 0.058046 0.719474 0.692068 158 158 158
0.106319 0.042305 -1.569477 0.140660 0.990020 -0.004059 158 158 158
0.152693 0.033844 -1.569463 0.215918 0.976348 -0.007782 158 158 158
0.201004 0.034436 -0.030711 0.150029 0.707144 0.690939 158 158 158
-0.252290 0.059648 -2.930549 -0.125431 0.992096 -0.000153 158 158 158
-0.227260 0.046060 -4.514955 -0.059786 0.997894 -0.024415 158 158 158
-0.252809 0.034437 -4.793237 -0.080721 0.995727 -0.044771 158 158 158
-0.290460 0.055406 -3.070058 -0.278329 0.960448 -0.004242 158 158 158
0.003430 0.047994 -3.005007 0.129856 0.991455 -0.010163 158 158 158
0.064746 0.043836 -2.438089 0.144932 0.989410 -0.007447 158 158 158
0.108031 0.034436 -2.468243 0.247139 0.968810 -0.016144 158 158 158
0.043522 0.040183 -3.063627 0.247566 0.968566 -0.023164 158 158 158
0.085676 0.043608 -2.003793 0.144475 0.989471 -0.005280 158 158 158
0.130608 0.035122 -2.018872 0.234657 0.971984 -0.011475 158 158 158
-0.029564 -0.051824 -2.257873 0.034120 -0.999390 0.000305 158 158 158
0.040021 -0.048103 -1.988673 0.075014 -0.997162 -0.001007 158 158 158
0.059324 -0.047031 -1.569463 0.076418 -0.997070 -0.001434 158 158 158
-0.021554 -0.050813 -1.569467 0.025056 -0.999664 0.000488 158 158 158
-0.156136 -0.058830 -2.659004 0.037996 -0.999268 0.001068 158 158 158
-0.099291 -0.053865 -2.527073 0.046876 -0.998871 0.000641 158 158 158
-0.102664 -0.051395 -1.569463 0.025575 -0.999664 0.001526 158 158 158
-0.163601 -0.053980 -1.569465 0.017182 -0.999847 0.002533 158 158 158
0.201004 -0.034436 -0.030711 0.150029 -0.707144 0.690939 158 158 158
0.327644 0.000000 -0.030711 0.856380 0.000000 0.516312 158 158 158
-0.102664 0.000000 -0.030711 0.000000 0.000000 1.000000 158 158 158
-0.102664 -0.039355 -0.030711 0.000000 0.000000 1.000000 158 158 158
0.098341 -0.048936 -0.030711 0.058046 -0.719474 0.692068 158 158 158
-0.102664 -0.051395 -0.030711 0.010224 -0.707205 0.706900 158 158 158
-0.224181 0.052625 -1.569463 -0.063570 0.997955 0.003357 158 158 158
-0.224181 0.052625 -0.030711 -0.062014 0.724387 0.686575 158 158 158
-0.102664 0.051395 -0.030711 0.010224 0.707205 0.706900 158 158 158
0.153031 -0.018900 -2.497155 0.349803 -0.936399 -0.027680 158 158 158
0.197138 0.000000 -2.525996 0.411512 -0.910611 -0.037873 158 158 158
0.233154 -0.000000 -2.047778 0.351787 -0.935759 -0.023804 158 158 158
0.182246 -0.020010 -2.033350 0.315470 -0.948729 -0.019288 158 158 158
0.267867 0.000000 -1.569463 0.300211 -0.953734 -0.014618 158 158 158
0.210578 -0.018187 -1.569477 0.286508 -0.957976 -0.012726 158 158 158
-0.143050 -0.053646 -4.155774 0.097629 -0.995056 -0.017945 158 158 158
-0.137425 -0.049148 -4.338751 0.221412 -0.973968 -0.047975 158 158 158
-0.022741 -0.039355 -3.658766 0.267983 -0.962889 -0.031770 158 158 158
-0.058919 -0.048103 -3.571795 0.130345 -0.991394 -0.011567 158 158 158
-0.251929 -0.059704 -2.930435 -0.125034 -0.992126 -0.000183 158 158 158
-0.290460 -0.055406 -3.070058 -0.276986 -0.960845 -0.004181 158 158 158
-0.252809 -0.034437 -4.793237 -0.079196 -0.995849 -0.044771 158 158 158
-0.227260 -0.046060 -4.514955 -0.059694 -0.997894 -0.024476 158 158 158
0.003269 -0.048029 -3.004987 0.129734 -0.991485 -0.010132 158 158 158
0.043522 -0.040183 -3.063627 0.247597 -0.968566 -0.023164 158 158 158
0.108031 -0.034436 -2.468243 0.247139 -0.968810 -0.016144 158 158 158
0.064746 -0.043836 -2.438089 0.144871 -0.989410 -0.007447 158 158 158
0.085626 -0.043617 -2.003789 0.144444 -0.989471 -0.005249 158 158 158
0.130608 -0.035122 -2.018872 0.234657 -0.971984 -0.011475 158 158 158
0.152693 -0.033844 -1.569463 0.215918 -0.976348 -0.007752 158 158 158
0.106319 -0.042305 -1.569477 0.140660 -0.990020 -0.004059 158 158 158
0.223503 -0.062541 1.319357 0.811579 -0.584124 0.010651 119 62 42
0.224468 -0.063483 1.344860 0.763665 -0.570544 -0.302011 119 62 42
0.167683 -0.114057 1.350753 0.477920 -0.836482 -0.268075 119 62 42
0.166658 -0.112341 1.322107 0.513352 -0.858119 0.008820 119 62 42
-0.313015 0.067557 1.373874 -0.687643 0.496170 -0.530045 119 62 42
-0.342709 0.000000 1.380128 -0.812769 0.000000 -0.582568 119 62 42
-0.363814 0.000000 1.409521 -0.920927 0.000000 -0.389721 119 62 42
-0.332127 0.071760 1.402900 -0.758385 0.531510 -0.377239 119 62 42
-0.355831 -0.039116 -0.198662 -0.414045 -0.559252 -0.718162 119 62 42
-0.324042 -0.019551 -0.220431 -0.179418 -0.348033 -0.920133 119 62 42
-0.275274 -0.038841 -0.214616 -0.096194 -0.481918 -0.870876 119 62 42
-0.296908 -0.074736 -0.189869 -0.210120 -0.625599 -0.751305 119 62 42
0.114270 -0.019373 -0.229353 -0.003265 -0.277840 -0.960601 158 158 158
0.254287 -0.013855 -0.219731 0.154454 -0.363964 -0.918485 158 158 158
0.205846 -0.027847 -0.214616 0.092898 -0.502609 -0.859462 158 158 158
0.085946 -0.039211 -0.218375 0.008179 -0.358074 -0.933653 158 158 158
-0.140700 -0.148267 1.320184 -0.207953 -0.978027 0.013276 119 62 42
-0.140669 -0.149143 1.347279 -0.193793 -0.955321 -0.223029 119 62 42
-0.237112 -0.114057 1.350753 -0.477920 -0.836482 -0.268075 119 62 42
-0.236087 -0.112341 1.322107 -0.513352 -0.858089 0.008820 119 62 42
0.071271 0.148267 1.320184 0.207953 0.978027 0.013276 119 62 42
0.071240 0.149143 1.347279 0.193793 0.955321 -0.223029 119 62 42
0.167683 0.114057 1.350753 0.477920 0.836482 -0.268075 119 62 42
0.166658 0.112341 1.322107 0.513352 0.858119 0.008820 119 62 42
0.332217 -0.064372 -0.120075 0.692099 -0.671804 -0.263894 119 62 42
0.336421 -0.067619 -0.070026 0.740684 -0.668020 0.071444 119 62 42
0.255102 -0.122760 -0.071072 0.443861 -0.895688 -0.026337 119 62 42
0.252611 -0.116843 -0.113359 0.397198 -0.871395 -0.287820 119 62 42
0.332217 0.064372 -0.120075 0.692099 0.671804 -0.263894 119 62 42
0.336421 0.067619 -0.070026 0.740684 0.668020 0.071444 119 62 42
0.375734 0.000000 -0.071072 0.993164 0.000000 0.116672 119 62 42
0.373026 -0.000000 -0.114064 0.965911 0.000000 -0.258797 119 62 42
0.223503 0.062541 1.319357 0.811579 0.584124 0.010651 119 62 42
0.224468 0.063483 1.344860 0.763665 0.570544 -0.302011 119 62 42
0.251928 0.000000 1.350753 0.924406 0.000000 -0.381390 119 62 42
0.249148 -0.000000 1.322641 0.999939 0.000000 0.008179 119 62 42
-0.149028 0.160275 1.375979 -0.189764 0.895871 -0.401654 119 62 42
-0.252073 0.122285 1.380124 -0.450240 0.769433 -0.452986 119 62 42
-0.267090 0.130951 1.409521 -0.493515 0.812006 -0.311502 119 62 42
-0.157453 0.171916 1.404666 -0.205969 0.936674 -0.283120 119 62 42
0.243587 -0.067557 1.373874 0.687643 -0.496170 -0.530045 119 62 42
0.273280 -0.000000 1.380128 0.812769 0.000000 -0.582568 119 62 42
0.294385 0.000000 1.409521 0.920927 0.000000 -0.389721 119 62 42
0.262699 -0.071760 1.402900 0.758385 -0.531510 -0.377239 119 62 42
-0.149028 -0.160275 1.375979 -0.189764 -0.895871 -0.401654 119 62 42
-0.034714 -0.167751 1.380145 0.000000 -0.927458 -0.373852 119 62 42
-0.034714 -0.179564 1.409521 0.000000 -0.966094 -0.258065 119 62 42
-0.157453 -0.171916 1.404666 -0.205969 -0.936674 -0.283120 119 62 42
-0.390673 -0.069336 -0.028650 -0.689016 -0.616016 0.381756 119 62 42
-0.405849 -0.067619 -0.070026 -0.740776 -0.668081 0.069887 119 62 42
-0.324531 -0.122760 -0.071072 -0.444044 -0.895566 -0.027161 119 62 42
-0.312449 -0.125861 -0.036255 -0.425092 -0.880337 0.210364 119 62 42
-0.390673 0.069336 -0.028650 -0.689016 0.616016 0.381756 119 62 42
-0.405849 0.067619 -0.070026 -0.740776 0.668081 0.069887 119 62 42
-0.445163 0.000000 -0.071072 -0.993347 0.000000 0.115055 119 62 42
-0.431499 -0.000000 -0.035960 -0.886380 0.000000 0.462905 119 62 42
-0.355831 0.039116 -0.198662 -0.414045 0.559252 -0.718162 119 62 42
-0.324042 0.019551 -0.220431 -0.179418 0.348033 -0.920133 119 62 42
-0.366996 0.000000 -0.214616 -0.436750 0.000000 -0.899564 119 62 42
-0.399887 -0.000000 -0.188437 -0.683828 0.000000 -0.729606 119 62 42
-0.184336 -0.022385 -0.230381 0.010926 -0.226722 -0.973876 158 158 158
-0.034707 -0.024667 -0.216770 0.005005 -0.126774 -0.991913 158 158 158
-0.034714 -0.047849 -0.214616 0.007385 -0.326334 -0.945219 158 158 158
-0.155521 -0.045021 -0.218870 0.003052 -0.360546 -0.932707 158 158 158
-0.184336 0.022385 -0.230381 0.010926 0.226722 -0.973876 158 158 158
-0.034707 0.024667 -0.216770 0.005005 0.126774 -0.991913 158 158 158
-0.034714 0.000000 -0.214616 0.002350 0.000000 -0.999969 158 158 158
-0.211221 -0.000000 -0.234502 -0.056154 0.000000 -0.998413 158 158 158
0.114270 0.019373 -0.229353 -0.003265 0.277840 -0.960601 158 158 158
0.254287 0.013855 -0.219731 0.154454 0.363964 -0.918485 158 158 158
0.297567 0.000000 -0.214616 0.421125 0.000000 -0.906980 158 158 158
0.140863 0.000000 -0.233819 0.059755 0.000000 -0.998199 158 158 158
-0.184039 -0.155627 -0.119183 -0.148320 -0.935484 -0.320658 119 62 42
-0.186749 -0.164964 -0.071954 -0.166448 -0.981475 -0.094577 119 62 42
-0.321998 -0.116714 -0.113232 -0.398297 -0.871426 -0.286233 119 62 42
0.114557 -0.155462 -0.119263 0.147832 -0.934599 -0.323435 119 62 42
0.117321 -0.164964 -0.071954 0.166326 -0.981475 -0.094974 119 62 42
-0.034714 -0.168332 -0.071072 0.000092 -0.993713 -0.111698 119 62 42
-0.034706 -0.160839 -0.114127 0.000519 -0.948393 -0.317057 119 62 42
0.071271 -0.148267 1.320184 0.207953 -0.978027 0.013276 119 62 42
0.071240 -0.149143 1.347279 0.193793 -0.955321 -0.223029 119 62 42
-0.034714 -0.156398 1.350753 0.000000 -0.976959 -0.213294 119 62 42
-0.034714 -0.154801 1.321919 0.000000 -0.999939 0.010956 119 62 42
0.114557 0.155462 -0.119263 0.147832 0.934599 -0.323435 119 62 42
0.117321 0.164964 -0.071954 0.166326 0.981475 -0.094974 119 62 42
0.255102 0.122760 -0.071072 0.443861 0.895688 -0.026337 119 62 42
0.252611 0.116843 -0.113359 0.397198 0.871395 -0.287820 119 62 42
-0.184039 0.155627 -0.119183 -0.148320 0.935484 -0.320658 119 62 42
-0.186749 0.164964 -0.071954 -0.166448 0.981475 -0.094577 119 62 42
-0.034714 0.168332 -0.071072 0.000092 0.993713 -0.111698 119 62 42
-0.034706 0.160839 -0.114127 0.000519 0.948393 -0.317057 119 62 42
-0.140700 0.148267 1.320184 -0.207953 0.978027 0.013276 119 62 42
-0.140669 0.149143 1.347279 -0.193793 0.955321 -0.223029 119 62 42
-0.034714 0.156398 1.350753 0.000000 0.976959 -0.213294 119 62 42
-0.034714 0.154801 1.321919 0.000000 0.999939 0.010956 119 62 42
-0.401620 -0.064260 -0.119662 -0.692526 -0.672048 -0.262154 119 62 42
-0.383110 -0.054436 -0.162795 -0.582934 -0.630146 -0.512894 119 62 42
-0.314020 -0.100168 -0.152615 -0.328684 -0.781030 -0.530961 119 62 42
0.285912 -0.036418 -0.198649 0.381817 -0.554735 -0.739189 119 62 42
0.313329 -0.054471 -0.163042 0.570421 -0.627827 -0.529527 119 62 42
0.244591 -0.100168 -0.152615 0.320078 -0.770348 -0.551439 119 62 42
0.227754 -0.069879 -0.190376 0.191931 -0.591357 -0.783197 119 62 42
0.285912 0.036418 -0.198649 0.381817 0.554735 -0.739189 119 62 42
0.313329 0.054471 -0.163042 0.570421 0.627827 -0.529527 119 62 42
0.355905 0.000000 -0.152615 0.839686 0.000000 -0.543016 119 62 42
0.330243 -0.000000 -0.188618 0.667898 0.000000 -0.744224 119 62 42
-0.401620 0.064260 -0.119662 -0.692526 0.672048 -0.262154 119 62 42
-0.383110 0.054436 -0.162795 -0.582934 0.630146 -0.512894 119 62 42
-0.425334 0.000000 -0.152615 -0.846004 0.000000 -0.533158 119 62 42
-0.442294 -0.000000 -0.113845 -0.966216 0.000000 -0.257698 119 62 42
-0.167760 -0.094525 -0.198164 -0.063204 -0.569994 -0.819208 119 62 42
-0.178066 -0.133762 -0.160565 -0.117222 -0.802393 -0.585131 119 62 42
0.098272 -0.091682 -0.198142 0.069216 -0.544298 -0.836024 119 62 42
0.108462 -0.133307 -0.160423 0.117862 -0.791925 -0.599078 119 62 42
-0.034714 -0.142781 -0.152615 0.002228 -0.805689 -0.592303 119 62 42
-0.034687 -0.101926 -0.191020 0.005402 -0.552171 -0.833705 119 62 42
0.098272 0.091682 -0.198142 0.069216 0.544298 -0.836024 119 62 42
0.108462 0.133307 -0.160423 0.117862 0.791925 -0.599078 119 62 42
0.244591 0.100168 -0.152615 0.320078 0.770348 -0.551439 119 62 42
0.227754 0.069879 -0.190376 0.191931 0.591357 -0.783197 119 62 42
-0.167760 0.094525 -0.198164 -0.063204 0.569994 -0.819208 119 62 42
-0.178066 0.133762 -0.160565 -0.117222 0.802393 -0.585131 119 62 42
-0.034714 0.142781 -0.152615 0.002228 0.805689 -0.592303 119 62 42
-0.034687 0.101926 -0.191020 0.005402 0.552171 -0.833705 119 62 42
0.257320 -0.064932 0.029814 0.479415 -0.395245 0.783502 119 62 42
0.221928 -0.064894 0.052366 0.695853 -0.571429 0.434980 119 62 42
0.167683 -0.114057 0.044185 0.432661 -0.848811 0.303751 119 62 42
0.196679 -0.116508 0.020330 0.363140 -0.735496 0.571947 119 62 42
-0.154411 -0.152878 0.024597 -0.175451 -0.918912 0.353252 119 62 42
-0.139075 -0.147634 0.047010 -0.178014 -0.970000 0.165502 119 62 42
-0.237112 -0.114057 0.044185 -0.432661 -0.848811 0.303751 119 62 42
-0.266108 -0.116508 0.020330 -0.363140 -0.735496 0.571947 119 62 42
0.084983 0.152878 0.024597 0.175451 0.918912 0.353252 119 62 42
0.069646 0.147634 0.047010 0.178014 0.970000 0.165502 119 62 42
0.167683 0.114057 0.044185 0.432661 0.848811 0.303751 119 62 42
0.196679 0.116508 0.020330 0.363140 0.735496 0.571947 119 62 42
0.257320 0.064932 0.029814 0.479415 0.395245 0.783502 119 62 42
0.221928 0.064894 0.052366 0.695853 0.571429 0.434980 119 62 42
0.251928 0.000000 0.044185 0.787255 0.000000 0.616596 119 62 42
0.292978 -0.000000 0.020207 0.507065 0.000000 0.861873 119 62 42
-0.291512 -0.063253 0.076116 -0.810755 -0.585009 -0.020325 119 62 42
-0.291356 -0.064894 0.052366 -0.695853 -0.571429 0.434980 119 62 42
-0.236153 -0.112129 0.072746 -0.511704 -0.858913 -0.019745 119 62 42
-0.291512 0.063253 0.076116 -0.810724 0.585009 -0.020325 119 62 42
-0.291356 0.064894 0.052366 -0.695853 0.571429 0.434980 119 62 42
-0.321357 0.000000 0.044185 -0.787255 0.000000 0.616596 119 62 42
-0.317347 -0.000000 0.070501 -0.999847 0.000000 -0.017029 119 62 42
0.084983 -0.152878 0.024597 0.175451 -0.918912 0.353252 119 62 42
0.069646 -0.147634 0.047010 0.178014 -0.970000 0.165502 119 62 42
-0.034714 -0.156398 0.044185 0.000000 -0.991455 0.130284 119 62 42
-0.034714 -0.161201 0.020365 0.000000 -0.969054 0.246803 119 62 42
-0.154411 0.152878 0.024597 -0.175451 0.918912 0.353252 119 62 42
-0.139075 0.147634 0.047010 -0.178014 0.970000 0.165502 119 62 42
-0.034714 0.156398 0.044185 0.000000 0.991455 0.130284 119 62 42
-0.034714 0.161201 0.020365 0.000000 0.969054 0.246803 119 62 42
-0.160331 0.178359 1.524155 -0.207678 0.973815 0.092257 119 62 42
-0.272641 0.136276 1.520574 -0.513840 0.851619 0.103214 119 62 42
-0.267090 0.130951 1.555591 -0.474166 0.777764 0.412549 119 62 42
-0.156808 0.170313 1.562861 -0.199866 0.900266 0.386670 119 62 42
0.090902 0.178359 1.524155 0.207678 0.973815 0.092257 119 62 42
-0.034714 0.185696 1.520189 0.000000 0.996582 0.082461 119 62 42
-0.034714 0.179564 1.555591 0.000000 0.935728 0.352672 119 62 42
0.087379 0.170313 1.562861 0.199866 0.900266 0.386670 119 62 42
-0.341149 -0.075330 1.525608 -0.806787 -0.575732 0.132664 119 62 42
-0.272641 -0.136276 1.520575 -0.513840 -0.851619 0.103214 119 62 42
-0.267090 -0.130951 1.555591 -0.474166 -0.777764 0.412549 119 62 42
-0.330200 -0.071022 1.564485 -0.712699 -0.497726 0.494247 119 62 42
-0.341149 0.075330 1.525608 -0.806787 0.575732 0.132664 119 62 42
-0.373058 0.000000 1.520843 -0.990204 0.000000 0.139409 119 62 42
-0.363814 0.000000 1.555591 -0.873135 0.000000 0.487442 119 62 42
-0.330200 0.071022 1.564485 -0.712699 0.497726 0.494247 119 62 42
0.243587 0.067557 1.373874 0.687643 0.496170 -0.530045 119 62 42
0.182644 0.122285 1.380124 0.450240 0.769433 -0.452986 119 62 42
0.197662 0.130951 1.409521 0.493515 0.812006 -0.311502 119 62 42
0.262699 0.071760 1.402900 0.758385 0.531510 -0.377239 119 62 42
0.079600 -0.160275 1.375979 0.189764 -0.895871 -0.401654 119 62 42
0.182644 -0.122285 1.380124 0.450240 -0.769433 -0.452986 119 62 42
0.197662 -0.130951 1.409521 0.493515 -0.812006 -0.311502 119 62 42
0.088025 -0.171916 1.404666 0.205969 -0.936674 -0.283120 119 62 42
0.079600 0.160275 1.375979 0.189764 0.895871 -0.401654 119 62 42
-0.034714 0.167751 1.380145 0.000000 0.927458 -0.373852 119 62 42
-0.034714 0.179564 1.409521 0.000000 0.966094 -0.258065 119 62 42
0.088025 0.171916 1.404666 0.205969 0.936674 -0.283120 119 62 42
-0.313015 -0.067557 1.373874 -0.687643 -0.496170 -0.530045 119 62 42
-0.252073 -0.122285 1.380124 -0.450240 -0.769433 -0.452986 119 62 42
-0.267090 -0.130951 1.409521 -0.493515 -0.812006 -0.311502 119 62 42
-0.332127 -0.071760 1.402900 -0.758385 -0.531510 -0.377239 119 62 42
-0.287111 0.062873 1.604638 -0.475936 0.359264 0.802728 119 62 42
-0.320994 0.000000 1.596652 -0.584246 0.000000 0.811548 119 62 42
-0.260322 0.000000 1.624062 -0.333934 0.000000 0.942564 119 62 42
-0.229566 0.046504 1.630821 -0.263253 0.207038 0.942228 119 62 42
0.068325 -0.146194 1.601020 0.143864 -0.710288 0.689016 119 62 42
0.164825 -0.116316 1.595404 0.331675 -0.610492 0.719199 119 62 42
0.124587 -0.089771 1.624062 0.209296 -0.423688 0.881252 119 62 42
0.045603 -0.109048 1.628816 0.078738 -0.454054 0.887478 119 62 42
0.217683 -0.062873 1.604638 0.475936 -0.359264 0.802728 119 62 42
0.251566 0.000000 1.596652 0.584246 0.000000 0.811548 119 62 42
0.190894 0.000000 1.624062 0.333934 0.000000 0.942564 119 62 42
0.160137 -0.046504 1.630821 0.263253 -0.207038 0.942228 119 62 42
-0.137753 -0.146194 1.601020 -0.143864 -0.710288 0.689016 119 62 42
-0.034714 -0.157424 1.595027 0.000000 -0.755058 0.655629 119 62 42
-0.034714 -0.123097 1.624062 0.000000 -0.485580 0.874172 119 62 42
-0.115031 -0.109048 1.628816 -0.078738 -0.454054 0.887478 119 62 42
0.271720 0.075330 1.525608 0.806787 0.575732 0.132664 119 62 42
0.203212 0.136276 1.520575 0.513840 0.851619 0.103214 119 62 42
0.197662 0.130951 1.555591 0.474166 0.777764 0.412549 119 62 42
0.260771 0.071022 1.564485 0.712699 0.497726 0.494247 119 62 42
-0.160331 -0.178359 1.524155 -0.207678 -0.973815 0.092257 119 62 42
-0.034714 -0.185696 1.520189 0.000000 -0.996582 0.082461 119 62 42
-0.034714 -0.179564 1.555591 0.000000 -0.935728 0.352672 119 62 42
-0.156808 -0.170313 1.562861 -0.199866 -0.900266 0.386670 119 62 42
0.271720 -0.075330 1.525608 0.806787 -0.575732 0.132664 119 62 42
0.303629 -0.000000 1.520843 0.990204 0.000000 0.139409 119 62 42
0.294385 0.000000 1.555591 0.873135 0.000000 0.487442 119 62 42
0.260771 -0.071022 1.564485 0.712699 -0.497726 0.494247 119 62 42
0.090902 -0.178359 1.524155 0.207678 -0.973815 0.092257 119 62 42
0.203212 -0.136276 1.520575 0.513840 -0.851619 0.103214 119 62 42
0.197662 -0.130951 1.555591 0.474166 -0.777764 0.412549 119 62 42
0.087379 -0.170313 1.562861 0.199866 -0.900266 0.386670 119 62 42
-0.134721 -0.056822 1.645612 -0.078738 -0.172796 0.981780 119 62 42
-0.229566 -0.046504 1.630821 -0.263253 -0.207038 0.942228 119 62 42
-0.194016 -0.089771 1.624062 -0.209296 -0.423688 0.881252 119 62 42
0.065293 -0.056822 1.645612 0.078738 -0.172796 0.981780 119 62 42
-0.034714 -0.064985 1.642911 0.000000 -0.172643 0.984954 119 62 42
0.065293 0.056822 1.645612 0.078738 0.172796 0.981780 119 62 42
-0.034714 0.064985 1.642911 0.000000 0.172643 0.984954 119 62 42
-0.034714 0.000000 1.644354 0.000000 0.000000 1.000000 119 62 42
0.082390 -0.000000 1.646885 0.099521 0.000000 0.995025 119 62 42
-0.134721 0.056822 1.645612 -0.078738 0.172796 0.981780 119 62 42
-0.151818 0.000000 1.646885 -0.099521 0.000000 0.995025 119 62 42
-0.287111 -0.062873 1.604638 -0.475936 -0.359233 0.802728 119 62 42
-0.234254 -0.116316 1.595404 -0.331675 -0.610492 0.719199 119 62 42
0.068325 0.146194 1.601020 0.143864 0.710288 0.689016 119 62 42
-0.034714 0.157424 1.595027 0.000000 0.755058 0.655629 119 62 42
-0.034714 0.123097 1.624062 0.000000 0.485580 0.874172 119 62 42
0.045603 0.109048 1.628816 0.078738 0.454054 0.887478 119 62 42
-0.137753 0.146194 1.601020 -0.143864 0.710288 0.689016 119 62 42
-0.234254 0.116316 1.595404 -0.331675 0.610492 0.719199 119 62 42
-0.194016 0.089771 1.624062 -0.209296 0.423688 0.881252 119 62 42
-0.115031 0.109048 1.628816 -0.078738 0.454054 0.887478 119 62 42
0.217683 0.062873 1.604638 0.475936 0.359264 0.802728 119 62 42
0.164825 0.116316 1.595404 0.331675 0.610492 0.719199 119 62 42
0.124587 0.089771 1.624062 0.209296 0.423688 0.881252 119 62 42
0.160137 0.046504 1.630821 0.263253 0.207038 0.942228 119 62 42
-0.160181 0.177572 1.443115 -0.207678 0.974944 -0.079440 119 62 42
-0.271887 0.135155 1.445498 -0.513382 0.853145 -0.092227 119 62 42
-0.273526 0.134577 1.482556 -0.520310 0.853847 -0.013001 119 62 42
-0.161271 0.177747 1.482556 -0.210303 0.977538 -0.013703 119 62 42
0.090753 0.177572 1.443115 0.207678 0.974944 -0.079440 119 62 42
-0.034714 0.184330 1.445695 0.000000 0.997375 -0.072115 119 62 42
-0.034714 0.184536 1.482556 0.000000 0.999878 -0.013703 119 62 42
0.091842 0.177747 1.482556 0.210303 0.977538 -0.013703 119 62 42
-0.340694 -0.074928 1.441850 -0.807855 -0.577563 -0.117344 119 62 42
-0.271887 -0.135155 1.445498 -0.513382 -0.853145 -0.092227 119 62 42
-0.273526 -0.134577 1.482556 -0.520310 -0.853847 -0.013001 119 62 42
-0.342383 -0.074364 1.482556 -0.815760 -0.578234 -0.011719 119 62 42
-0.340694 0.074928 1.441850 -0.807855 0.577563 -0.117344 119 62 42
-0.371909 0.000000 1.445247 -0.991791 0.000000 -0.127812 119 62 42
-0.372927 0.000000 1.482556 -0.999908 0.000000 -0.011475 119 62 42
-0.342383 0.074364 1.482556 -0.815760 0.578234 -0.011719 119 62 42
0.271265 0.074929 1.441850 0.807855 0.577563 -0.117344 119 62 42
0.202458 0.135155 1.445498 0.513382 0.853145 -0.092227 119 62 42
0.204097 0.134577 1.482556 0.520310 0.853847 -0.013001 119 62 42
0.272954 0.074364 1.482556 0.815760 0.578234 -0.011719 119 62 42
-0.160181 -0.177572 1.443115 -0.207678 -0.974944 -0.079440 119 62 42
-0.034714 -0.184330 1.445695 0.000000 -0.997375 -0.072115 119 62 42
-0.034714 -0.184536 1.482556 0.000000 -0.999878 -0.013703 119 62 42
-0.161271 -0.177747 1.482556 -0.210303 -0.977538 -0.013703 119 62 42
0.271265 -0.074928 1.441850 0.807855 -0.577563 -0.117344 119 62 42
0.302481 0.000000 1.445247 0.991791 0.000000 -0.127812 119 62 42
0.303498 0.000000 1.482556 0.999908 0.000000 -0.011475 119 62 42
0.272954 -0.074364 1.482556 0.815760 -0.578234 -0.011719 119 62 42
0.090753 -0.177572 1.443115 0.207678 -0.974944 -0.079440 119 62 42
0.202458 -0.135155 1.445498 0.513382 -0.853145 -0.092227 119 62 42
0.204097 -0.134577 1.482556 0.520310 -0.853847 -0.013001 119 62 42
0.091842 -0.177747 1.482556 0.210303 -0.977538 -0.013703 119 62 42
-0.326748 -0.064932 0.029814 -0.479415 -0.395245 0.783502 119 62 42
-0.363404 -0.066276 0.007400 -0.564348 -0.477676 0.673269 119 62 42
-0.296154 -0.121327 -0.003414 -0.389935 -0.792261 0.469253 119 62 42
-0.326748 0.064932 0.029814 -0.479415 0.395245 0.783502 119 62 42
-0.363404 0.066276 0.007400 -0.564348 0.477676 0.673269 119 62 42
-0.404975 0.000000 -0.003414 -0.692465 0.000000 0.721427 119 62 42
-0.362407 0.000000 0.020207 -0.507065 0.000000 0.861873 119 62 42
0.321244 -0.069336 -0.028650 0.689016 -0.616016 0.381756 119 62 42
0.293975 -0.066276 0.007400 0.564348 -0.477676 0.673269 119 62 42
0.226726 -0.121327 -0.003414 0.389935 -0.792261 0.469253 119 62 42
0.243021 -0.125861 -0.036255 0.425092 -0.880337 0.210364 119 62 42
-0.180003 -0.166110 -0.033551 -0.163945 -0.980987 0.103641 119 62 42
-0.170358 -0.159200 0.002623 -0.177282 -0.933317 0.312143 119 62 42
0.110574 0.166110 -0.033551 0.163945 0.980987 0.103641 119 62 42
0.100930 0.159200 0.002623 0.177282 0.933317 0.312143 119 62 42
0.226726 0.121327 -0.003414 0.389935 0.792261 0.469253 119 62 42
0.243021 0.125861 -0.036255 0.425092 0.880337 0.210364 119 62 42
0.321244 0.069336 -0.028650 0.689016 0.616016 0.381756 119 62 42
0.293975 0.066276 0.007400 0.564348 0.477676 0.673269 119 62 42
0.335546 0.000000 -0.003414 0.692465 0.000000 0.721427 119 62 42
0.362071 0.000000 -0.035960 0.886380 0.000000 0.462905 119 62 42
0.110574 -0.166110 -0.033551 0.163945 -0.980987 0.103641 119 62 42
0.100930 -0.159200 0.002623 0.177282 -0.933317 0.312143 119 62 42
-0.034714 -0.166368 -0.003414 0.000000 -0.978484 0.206153 119 62 42
-0.034714 -0.170165 -0.037165 0.000000 -0.998352 0.057222 119 62 42
-0.180003 0.166110 -0.033551 -0.163945 0.980987 0.103641 119 62 42
-0.170358 0.159200 0.002623 -0.177282 0.933317 0.312143 119 62 42
-0.034714 0.166368 -0.003414 0.000000 0.978484 0.206153 119 62 42
-0.034714 0.170165 -0.037165 0.000000 0.998352 0.057222 119 62 42
0.222084 -0.063253 0.076116 0.810755 -0.585009 -0.020325 119 62 42
0.226087 -0.063235 0.102477 0.815485 -0.576220 -0.053957 119 62 42
0.167683 -0.114057 0.102477 0.513382 -0.856960 -0.045015 119 62 42
0.166725 -0.112129 0.072746 0.511704 -0.858913 -0.019745 119 62 42
0.226087 -0.063235 0.697469 0.813105 -0.582110 0.000000 119 62 42
0.226087 -0.063235 1.292462 0.813807 -0.579547 0.042238 119 62 42
0.167683 -0.114057 1.292462 0.514054 -0.856899 0.037965 119 62 42
0.167683 -0.114057 0.697469 0.514389 -0.857540 0.000000 119 62 42
-0.139835 -0.147643 0.074598 -0.207709 -0.977722 -0.029145 119 62 42
-0.141720 -0.150460 0.102477 -0.210700 -0.976623 -0.042085 119 62 42
-0.237112 -0.114057 0.102477 -0.513382 -0.856960 -0.045015 119 62 42
-0.141720 -0.150460 0.697469 -0.208441 -0.978027 0.000000 119 62 42
-0.141720 -0.150460 1.292462 -0.209357 -0.977142 0.036103 119 62 42
-0.237112 -0.114057 1.292462 -0.514054 -0.856899 0.037965 119 62 42
-0.237112 -0.114057 0.697469 -0.514389 -0.857540 0.000000 119 62 42
0.070407 0.147643 0.074598 0.207709 0.977722 -0.029145 119 62 42
0.072291 0.150460 0.102477 0.210700 0.976623 -0.042085 119 62 42
0.167683 0.114057 0.102477 0.513382 0.856960 -0.045015 119 62 42
0.166725 0.112129 0.072746 0.511704 0.858913 -0.019745 119 62 42
0.072291 0.150460 0.697469 0.208441 0.978027 0.000000 119 62 42
0.072291 0.150460 1.292462 0.209357 0.977142 0.036103 119 62 42
0.167683 0.114057 1.292462 0.514054 0.856899 0.037965 119 62 42
0.167683 0.114057 0.697469 0.514389 0.857540 0.000000 119 62 42
0.222084 0.063253 0.076116 0.810755 0.585009 -0.020325 119 62 42
0.226087 0.063235 0.102477 0.815485 0.576220 -0.053957 119 62 42
0.251928 0.000000 0.102477 0.997742 0.000000 -0.067049 119 62 42
0.247919 0.000000 0.070501 0.999847 0.000000 -0.017029 119 62 42
0.226087 0.063235 0.697469 0.813105 0.582110 0.000000 119 62 42
0.226087 0.063235 1.292462 0.813807 0.579547 0.042238 119 62 42
0.251928 0.000000 1.292462 0.998810 0.000000 0.048738 119 62 42
0.251928 0.000000 0.697469 1.000000 0.000000 0.000000 119 62 42
0.070407 -0.147643 0.074598 0.207709 -0.977722 -0.029145 119 62 42
0.072291 -0.150460 0.102477 0.210700 -0.976623 -0.042085 119 62 42
-0.034714 -0.156398 0.102477 0.000000 -0.999329 -0.036348 119 62 42
-0.034714 -0.155164 0.073148 0.000000 -0.999664 -0.025697 119 62 42
0.072291 -0.150460 0.697469 0.208441 -0.978027 0.000000 119 62 42
0.072291 -0.150460 1.292462 0.209357 -0.977142 0.036103 119 62 42
-0.034714 -0.156398 1.292462 0.000000 -0.999420 0.033570 119 62 42
-0.034714 -0.156398 0.697469 0.000000 -1.000000 0.000000 119 62 42
-0.139835 0.147643 0.074598 -0.207709 0.977722 -0.029145 119 62 42
-0.141720 0.150460 0.102477 -0.210700 0.976623 -0.042085 119 62 42
-0.034714 0.156398 0.102477 0.000000 0.999329 -0.036348 119 62 42
-0.034714 0.155164 0.073148 0.000000 0.999664 -0.025697 119 62 42
-0.141720 0.150460 0.697469 -0.208441 0.978027 0.000000 119 62 42
-0.141720 0.150460 1.292462 -0.209357 0.977142 0.036103 119 62 42
-0.034714 0.156398 1.292462 0.000000 0.999420 0.033570 119 62 42
-0.034714 0.156398 0.697469 0.000000 1.000000 0.000000 119 62 42
-0.292932 -0.062541 1.319357 -0.811579 -0.584124 0.010651 119 62 42
-0.295516 -0.063235 1.292462 -0.813807 -0.579547 0.042238 119 62 42
-0.295516 -0.063235 0.697469 -0.813105 -0.582110 0.000000 119 62 42
-0.295516 -0.063235 0.102477 -0.815485 -0.576220 -0.053957 119 62 42
-0.292932 0.062541 1.319357 -0.811579 0.584124 0.010651 119 62 42
-0.295516 0.063235 1.292462 -0.813807 0.579547 0.042238 119 62 42
-0.321357 0.000000 1.292462 -0.998810 0.000000 0.048738 119 62 42
-0.318577 0.000000 1.322641 -0.999939 0.000000 0.008179 119 62 42
-0.295516 0.063235 0.697469 -0.813105 0.582110 0.000000 119 62 42
-0.295516 0.063235 0.102477 -0.815485 0.576220 -0.053957 119 62 42
-0.321357 0.000000 0.102477 -0.997742 0.000000 -0.067049 119 62 42
-0.321357 0.000000 0.697469 -1.000000 0.000000 0.000000 119 62 42
-0.037738 0.051036 -2.946265 0.058931 0.998230 -0.003418 158 158 158
0.020697 0.048936 -2.407881 0.077181 0.997009 -0.002594 158 158 158
-0.096320 0.051395 -3.484638 0.078494 0.996887 -0.004364 158 158 158
-0.148888 0.054653 -3.972804 0.043153 0.999054 -0.003754 158 158 158
-0.201349 0.052625 -4.236478 -0.021699 0.999664 -0.011811 158 158 158
-0.213019 0.059540 -2.790911 -0.034913 0.999359 0.001282 158 158 158
-0.278043 0.017405 -5.114402 -0.016053 0.997803 -0.064089 158 158 158
-0.323600 0.034437 -1.569463 -0.309061 0.951018 0.003449 158 158 158
-0.319902 0.044261 -3.231024 -0.466597 0.884365 -0.012299 158 158 158
-0.358539 0.018614 -1.569469 -0.475539 0.879665 0.000092 158 158 158
0.082472 0.025697 -3.133734 0.384198 0.922239 -0.042695 158 158 158
0.120604 -0.000000 -3.203732 0.452071 0.890286 -0.054567 158 158 158
0.153031 0.018900 -2.497155 0.349834 0.936369 -0.027711 158 158 158
-0.274760 0.046924 -1.569473 -0.158300 0.987365 0.004212 158 158 158
-0.096320 -0.051395 -3.484638 0.078463 -0.996887 -0.004334 158 158 158
-0.037738 -0.051036 -2.946265 0.058840 -0.998260 -0.003418 158 158 158
0.020697 -0.048936 -2.407881 0.077120 -0.997009 -0.002594 158 158 158
-0.213019 -0.059540 -2.790911 -0.034791 -0.999390 0.001282 158 158 158
-0.224181 -0.052625 -1.569463 -0.063509 -0.997955 0.003357 158 158 158
-0.201349 -0.052625 -4.236478 -0.021912 -0.999664 -0.011750 158 158 158
-0.148888 -0.054653 -3.972804 0.042909 -0.999054 -0.003693 158 158 158
-0.134388 -0.031837 -4.554858 0.342235 -0.936125 -0.080752 158 158 158
0.008256 -0.021175 -3.769589 0.428846 -0.901425 -0.058962 158 158 158
-0.278043 -0.017405 -5.114402 -0.015412 -0.997803 -0.064150 158 158 158
0.082357 -0.025738 -3.133674 0.384106 -0.922269 -0.042695 158 158 158
0.120604 -0.000000 -3.203732 0.451918 -0.890378 -0.054537 158 158 158
-0.320281 -0.044331 -3.230975 -0.466567 -0.884365 -0.012268 158 158 158
-0.323600 -0.034437 -1.569463 -0.308359 -0.951262 0.003479 158 158 158
-0.358539 -0.018614 -1.569469 -0.475570 -0.879665 0.000153 158 158 158
-0.102664 0.039355 -0.030711 0.000000 0.000000 1.000000 158 158 158
-0.274760 -0.046924 -1.569473 -0.158177 -0.987396 0.004212 158 158 158
-0.237112 0.114057 1.350753 -0.477920 0.836482 -0.268075 119 62 42
-0.293897 0.063483 1.344860 -0.763665 0.570544 -0.302011 119 62 42
-0.321357 0.000000 1.350753 -0.924406 0.000000 -0.381390 119 62 42
-0.296154 0.121327 -0.003414 -0.389935 0.792261 0.469253 119 62 42
-0.312449 0.125861 -0.036255 -0.425092 0.880337 0.210364 119 62 42
-0.324531 0.122760 -0.071072 -0.444044 0.895566 -0.027161 119 62 42
-0.314020 0.100168 -0.152615 -0.328684 0.781030 -0.530961 119 62 42
-0.296908 0.074736 -0.189869 -0.210120 0.625599 -0.751305 119 62 42
-0.275274 0.038841 -0.214616 -0.096194 0.481918 -0.870876 119 62 42
-0.324042 -0.019551 -0.220431 -0.179418 -0.348033 -0.920133 158 158 158
-0.275274 -0.038841 -0.214616 -0.096194 -0.481918 -0.870876 158 158 158
-0.366996 0.000000 -0.214616 -0.436750 0.000000 -0.899564 158 158 158
-0.324042 0.019551 -0.220431 -0.179418 0.348033 -0.920133 158 158 158
-0.275274 0.038841 -0.214616 -0.096194 0.481918 -0.870876 158 158 158
-0.155521 0.045021 -0.218870 0.003052 0.360546 -0.932707 158 158 158
-0.034714 0.047849 -0.214616 0.007385 0.326334 -0.945219 158 158 158
0.085946 0.039211 -0.218375 0.008179 0.358074 -0.933653 158 158 158
0.205846 0.027847 -0.214616 0.092898 0.502609 -0.859462 158 158 158
-0.321998 0.116714 -0.113232 -0.398297 0.871426 -0.286233 119 62 42
-0.237112 0.114057 1.292462 -0.514054 0.856899 0.037965 119 62 42
-0.236087 0.112341 1.322107 -0.513352 0.858119 0.008820 119 62 42
0.254287 -0.013855 -0.219731 0.154454 -0.363964 -0.918485 119 62 42
0.205846 -0.027847 -0.214616 0.092898 -0.502609 -0.859462 119 62 42
0.297567 0.000000 -0.214616 0.421125 0.000000 -0.906980 119 62 42
0.254287 0.013855 -0.219731 0.154454 0.363964 -0.918485 119 62 42
0.205846 0.027847 -0.214616 0.092898 0.502609 -0.859462 119 62 42
-0.155521 -0.045021 -0.218870 0.003052 -0.360546 -0.932707 119 62 42
-0.034714 -0.047849 -0.214616 0.007385 -0.326334 -0.945219 119 62 42
0.085946 -0.039211 -0.218375 0.008179 -0.358074 -0.933653 119 62 42
0.085946 0.039211 -0.218375 0.008179 0.358074 -0.933653 119 62 42
-0.034714 0.047849 -0.214616 0.007385 0.326334 -0.945219 119 62 42
-0.155521 0.045021 -0.218870 0.003052 0.360546 -0.932707 119 62 42
-0.237112 0.114057 0.102477 -0.513382 0.856960 -0.045015 119 62 42
-0.236153 0.112129 0.072746 -0.511704 0.858913 -0.019745 119 62 42
-0.237112 0.114057 0.044185 -0.432661 0.848811 0.303751 119 62 42
-0.266108 0.116508 0.020330 -0.363140 0.735496 0.571947 119 62 42
-0.293897 -0.063483 1.344860 -0.763665 -0.570544 -0.302011 119 62 42
-0.237112 0.114057 0.697469 -0.514389 0.857540 0.000000 119 62 42
-0.392491 0.000000 -1.569463 -0.526322 -0.850276 -0.002167 158 158 158
-0.368147 0.000000 -3.445829 -0.625751 -0.779778 -0.018952 158 158 158
-0.303274 0.000000 -5.435545 0.032075 -0.996704 -0.074190 158 158 158
-0.131984 -0.000000 -4.770806 0.359996 -0.927610 -0.099429 158 158 158
-0.323600 0.034437 -0.030711 -0.233039 0.698019 0.677053 158 158 158
-0.392491 0.000000 -0.030711 -0.834193 0.000000 0.551439 158 158 158
0.197138 0.000000 -2.525996 0.411603 0.910550 -0.037873 158 158 158
-0.392491 0.000000 -1.569463 -0.525132 0.851009 -0.002167 158 158 158
0.038478 0.000000 -3.880311 0.498398 -0.862789 -0.084536 158 158 158
-0.224181 -0.052625 -0.030711 -0.062014 -0.724387 0.686575 158 158 158
-0.323600 -0.034437 -0.030711 -0.233039 -0.698019 0.677053 158 158 158
-0.303274 0.000000 -5.435545 0.031983 0.996734 -0.074068 158 158 158
-0.368147 0.000000 -3.445829 -0.622608 0.782281 -0.018860 158 158 158
-0.303274 0.000000 -5.435545 0.031983 0.996734 -0.074068 255 255 255
-0.319902 0.044261 -3.231024 -0.466597 0.884365 -0.012299 255 255 255
-0.368147 0.000000 -3.445829 -0.625751 -0.779778 -0.018952 255 255 255
-0.303274 0.000000 -5.435545 0.032075 -0.996704 -0.074190 255 255 255
-0.320281 -0.044331 -3.230975 -0.466567 -0.884365 -0.012268 255 255 255
4 0 1 2 3
4 4 5 6 7
4 8 9 10 11
4 12 13 14 15
4 16 17 18 19
3 2 20 21
3 20 22 21
3 20 23 22
4 24 25 26 27
4 28 29 30 31
4 32 21 22 33
4 34 35 36 37
4 38 39 40 41
4 42 43 44 45
3 36 46 47
3 40 36 47
3 40 37 36
3 48 49 5
3 49 6 5
3 49 50 6
4 51 52 53 54
4 54 53 55 56
4 57 58 59 60
4 61 62 63 64
4 65 66 67 68
4 69 70 71 72
4 73 74 75 76
4 77 78 79 80
4 81 82 83 84
4 85 86 87 88
4 89 90 91 92
4 93 94 95 96
4 97 98 99 100
4 101 102 103 104
4 105 106 107 108
4 109 110 111 112
4 113 114 115 116
4 117 118 119 120
4 121 122 123 124
4 125 126 127 128
4 129 130 131 132
4 133 134 135 136
4 137 138 139 140
4 141 142 143 144
4 145 146 123 147
4 148 149 150 151
4 152 153 154 155
4 156 157 158 159
4 160 161 162 163
4 164 165 166 167
4 168 169 170 147
4 171 172 173 174
4 175 176 177 178
4 179 180 181 182
4 183 184 170 84
4 185 186 187 188
4 189 190 191 192
4 193 194 195 196
4 197 198 199 200
4 201 202 203 204
4 205 206 207 208
4 209 210 211 212
4 213 214 203 215
4 216 217 218 219
4 220 221 222 223
4 224 225 226 227
4 228 229 230 231
4 232 233 234 235
4 236 237 238 239
4 240 241 242 243
4 244 245 246 247
4 248 249 250 251
4 252 253 254 255
4 256 257 258 259
4 260 261 262 263
4 264 265 266 267
4 268 269 270 271
4 272 273 274 275
4 276 277 278 279
4 280 281 282 283
4 284 285 286 287
4 288 289 290 291
4 292 293 294 275
4 295 296 274 267
4 297 298 299 300
4 301 263 262 302
4 303 304 294 293
4 305 306 307 308
4 309 310 311 312
4 313 314 315 316
4 317 318 319 320
4 321 322 323 324
4 325 326 327 328
4 329 330 331 332
4 333 334 335 336
4 337 338 339 340
4 341 342 343 344
4 345 346 347 348
4 349 350 351 204
4 352 353 354 355
4 356 357 358 359
4 360 361 351 124
4 362 363 364 365
4 366 367 368 369
4 370 371 372 373
4 374 375 376 377
4 378 379 380 381
4 382 383 384 385
4 386 387 388 215
4 389 390 391 392
4 393 394 395 396
4 397 398 399 400
4 401 402 403 404
4 405 406 407 408
4 409 410 411 412
4 413 414 415 416
4 417 418 419 420
4 421 422 423 424
4 425 426 391 92
4 427 428 388 392
4 429 430 431 432
4 433 434 435 436
4 437 0 3 438
4 439 7 0 437
4 7 6 1 0
4 7 439 440 4
4 441 442 4 440
4 442 48 5 4
4 26 19 8 443
4 19 18 9 8
4 444 27 445 446
4 27 26 443 445
4 9 447 448 10
4 18 31 447 9
4 31 30 449 447
4 30 33 12 449
4 33 22 13 12
4 25 16 19 26
4 441 440 16 25
4 440 439 17 16
4 450 24 27 444
4 48 442 24 450
4 442 441 25 24
4 17 28 31 18
4 439 437 28 17
4 437 438 29 28
4 29 32 33 30
4 438 3 32 29
4 3 2 21 32
4 39 34 37 40
4 451 452 34 39
4 452 453 35 34
4 454 38 41 455
4 456 457 38 454
4 457 451 39 38
4 58 458 459 59
4 63 460 458 58
4 461 462 52 51
4 62 463 460 63
4 464 465 463 62
4 66 461 51 67
4 59 459 461 66
4 23 466 44 43
4 70 54 56 71
4 67 51 54 70
4 457 57 60 451
4 456 64 57 457
4 64 63 58 57
4 454 61 64 456
4 455 467 61 454
4 467 464 62 61
4 452 65 68 453
4 451 60 65 452
4 60 59 66 65
4 35 69 72 36
4 453 68 69 35
4 68 67 70 69
4 383 73 76 384
4 407 108 73 383
4 108 107 74 73
4 110 77 80 111
4 468 469 77 110
4 469 470 78 77
4 169 81 84 170
4 181 132 81 169
4 132 131 82 81
4 134 85 88 135
4 139 144 85 134
4 144 143 86 85
4 390 89 92 391
4 415 155 89 390
4 155 154 90 89
4 398 93 96 399
4 423 167 93 398
4 167 166 94 93
4 172 97 100 173
4 177 104 97 172
4 104 103 98 97
4 176 101 104 177
4 191 159 101 176
4 159 158 102 101
4 406 105 108 407
4 399 96 105 406
4 96 95 106 105
4 253 109 112 254
4 166 165 109 253
4 165 468 110 109
4 249 113 116 250
4 75 74 113 249
4 74 107 114 113
4 257 117 120 258
4 91 90 117 257
4 90 154 118 117
4 350 121 124 351
4 354 128 121 350
4 128 127 122 121
4 353 125 128 354
4 471 472 125 353
4 472 473 126 125
4 180 129 132 181
4 474 475 129 180
4 475 476 130 129
4 477 133 136 478
4 479 140 133 477
4 140 139 134 133
4 480 137 140 479
4 481 482 137 480
4 482 483 138 137
4 138 141 144 139
4 483 484 141 138
4 484 485 142 141
4 184 145 147 170
4 187 151 145 184
4 151 150 146 145
4 186 148 151 187
4 173 100 148 186
4 100 99 149 148
4 414 152 155 415
4 384 76 152 414
4 76 75 153 152
4 190 156 159 191
4 195 163 156 190
4 163 162 157 156
4 194 160 163 195
4 474 486 160 194
4 486 473 161 160
4 422 164 167 423
4 487 488 164 422
4 488 468 165 164
4 122 168 147 123
4 127 182 168 122
4 182 181 169 168
4 489 171 174 490
4 491 178 171 489
4 178 177 172 171
4 492 175 178 491
4 493 192 175 492
4 192 191 176 175
4 126 179 182 127
4 473 486 179 126
4 486 474 180 179
4 494 183 84 83
4 495 188 183 494
4 188 187 184 183
4 496 185 188 495
4 490 174 185 496
4 174 173 186 185
4 497 189 192 493
4 498 196 189 497
4 196 195 190 189
4 499 193 196 498
4 476 475 193 499
4 475 474 194 193
4 357 197 200 358
4 368 212 197 357
4 212 211 198 197
4 361 201 204 351
4 372 223 201 361
4 223 222 202 201
4 363 205 208 364
4 376 227 205 363
4 227 226 206 205
4 367 209 212 368
4 364 208 209 367
4 208 207 210 209
4 428 213 215 388
4 435 219 213 428
4 219 218 214 213
4 434 216 219 435
4 500 501 216 434
4 501 502 217 216
4 371 220 223 372
4 358 200 220 371
4 200 199 221 220
4 375 224 227 376
4 471 503 224 375
4 503 502 225 224
4 233 228 231 234
4 323 320 228 233
4 320 319 229 228
4 277 232 235 278
4 335 324 232 277
4 324 323 233 232
4 241 236 239 242
4 331 328 236 241
4 328 327 237 236
4 229 240 243 230
4 319 332 240 229
4 332 331 241 240
4 114 244 247 115
4 107 106 244 114
4 106 95 245 244
4 118 248 251 119
4 154 153 248 118
4 153 75 249 248
4 245 252 255 246
4 95 94 252 245
4 94 166 253 252
4 78 256 259 79
4 470 504 256 78
4 504 91 257 256
4 310 260 263 311
4 230 243 260 310
4 243 242 261 260
4 273 264 267 274
4 282 291 264 273
4 291 290 265 264
4 265 268 271 266
4 290 287 268 265
4 287 286 269 268
4 304 272 275 294
4 238 283 272 304
4 283 282 273 272
4 285 276 279 286
4 343 336 276 285
4 336 335 277 276
4 237 280 283 238
4 327 340 280 237
4 340 339 281 280
4 289 284 287 290
4 347 344 284 289
4 344 343 285 284
4 281 288 291 282
4 339 348 288 281
4 348 347 289 288
4 296 292 275 274
4 299 302 292 296
4 302 262 293 292
4 271 295 267 266
4 270 300 295 271
4 300 299 296 295
4 316 297 300 270
4 315 308 297 316
4 308 307 298 297
4 298 301 302 299
4 307 312 301 298
4 312 311 263 301
4 261 303 293 262
4 242 239 303 261
4 239 238 304 303
4 314 305 308 315
4 278 235 305 314
4 235 234 306 305
4 306 309 312 307
4 234 231 309 306
4 231 230 310 309
4 269 313 316 270
4 286 279 313 269
4 279 278 314 313
4 322 317 320 323
4 254 112 317 322
4 112 111 318 317
4 334 321 324 335
4 246 255 321 334
4 255 254 322 321
4 330 325 328 331
4 79 259 325 330
4 259 258 326 325
4 318 329 332 319
4 111 80 329 318
4 80 79 330 329
4 342 333 336 343
4 115 247 333 342
4 247 246 334 333
4 326 337 340 327
4 258 120 337 326
4 120 119 338 337
4 346 341 344 347
4 250 116 341 346
4 116 115 342 341
4 338 345 348 339
4 119 251 345 338
4 251 250 346 345
4 214 349 204 203
4 218 355 349 214
4 355 354 350 349
4 217 352 355 218
4 502 503 352 217
4 503 471 353 352
4 98 356 359 99
4 103 369 356 98
4 369 368 357 356
4 146 360 124 123
4 150 373 360 146
4 373 372 361 360
4 157 362 365 158
4 162 377 362 157
4 377 376 363 362
4 102 366 369 103
4 158 365 366 102
4 365 364 367 366
4 149 370 373 150
4 99 359 370 149
4 359 358 371 370
4 161 374 377 162
4 473 472 374 161
4 472 471 375 374
4 198 378 381 199
4 211 404 378 198
4 404 403 379 378
4 379 382 385 380
4 403 408 382 379
4 408 407 383 382
4 202 386 215 203
4 222 412 386 202
4 412 411 387 386
4 387 389 392 388
4 411 416 389 387
4 416 415 390 389
4 206 393 396 207
4 226 420 393 206
4 420 419 394 393
4 394 397 400 395
4 419 424 397 394
4 424 423 398 397
4 210 401 404 211
4 207 396 401 210
4 396 395 402 401
4 402 405 408 403
4 395 400 405 402
4 400 399 406 405
4 221 409 412 222
4 199 381 409 221
4 381 380 410 409
4 410 413 416 411
4 380 385 413 410
4 385 384 414 413
4 225 417 420 226
4 502 501 417 225
4 501 500 418 417
4 418 421 424 419
4 500 505 421 418
4 505 487 422 421
4 504 425 92 91
4 470 432 425 504
4 432 431 426 425
4 426 427 392 391
4 431 436 427 426
4 436 435 428 427
4 469 429 432 470
4 468 488 429 469
4 488 487 430 429
4 430 433 436 431
4 487 505 433 430
4 505 500 434 433
4 465 506 507 463
4 460 508 509 458
3 6 50 1
3 50 2 1
3 50 20 2
3 22 23 13
3 23 14 13
3 23 43 14
4 466 510 511 44
4 447 449 512 448
3 510 444 446
3 510 446 513
3 510 513 511
4 20 50 466 23
4 50 49 510 466
3 49 48 450
3 49 450 444
3 49 444 510
4 459 514 462 461
3 40 47 515
3 455 40 515
3 455 41 40
4 45 44 511 516
3 516 511 506
3 516 506 464
3 506 465 464
4 46 42 45 47
3 71 42 46
3 36 71 46
3 36 72 71
4 47 45 516 515
3 515 516 464
3 515 464 455
3 464 467 455
4 443 8 11 517
4 446 445 518 513
4 449 12 15 512
3 55 43 42
3 71 55 42
3 71 56 55
4 458 509 514 459
3 443 519 445
3 520 519 518
3 463 521 522
3 460 523 508
