ply
format ascii 1.0
comment Created by Blender 2.68 (sub 0) - www.blender.org, source file: 'Missle04.blend'
element vertex 418
property float x
property float y
property float z
property float nx
property float ny
property float nz
property uchar red
property uchar green
property uchar blue
element face 336
property list uchar uint vertex_indices
end_header
0.033577 -0.168802 -0.296605 0.195074 -0.980773 0.000000 231 187 123
0.095619 -0.143104 -0.296605 0.555559 -0.831446 0.000000 231 187 123
0.095619 -0.143103 0.883821 0.555437 -0.831294 0.020081 231 187 123
0.033577 -0.168802 0.883821 0.195044 -0.980560 0.020081 231 187 123
0.009405 -0.047280 1.127439 0.058107 -0.292215 0.954558 231 187 123
0.026782 -0.040082 1.127439 0.165502 -0.247719 0.954558 231 187 123
0.016358 -0.024481 1.131922 0.097964 -0.146611 0.984313 231 187 123
0.005744 -0.028878 1.131922 0.034394 -0.172948 0.984313 231 187 123
0.033113 -0.166471 0.942743 0.194372 -0.977294 0.084048 231 187 123
0.094299 -0.141127 0.942743 0.553606 -0.828516 0.084048 231 187 123
0.143104 -0.095619 -0.296605 0.831446 -0.555559 0.000000 231 187 123
0.143104 -0.095618 0.883821 0.831294 -0.555437 0.020081 231 187 123
0.040082 -0.026782 1.127439 0.247719 -0.165502 0.954558 231 187 123
0.024482 -0.016358 1.131922 0.146611 -0.097964 0.984313 231 187 123
0.141128 -0.094298 0.942743 0.828516 -0.553575 0.084048 231 187 123
0.033577 -0.168802 -0.759970 0.194403 -0.977325 -0.083773 231 187 123
0.095619 -0.143104 -0.759970 0.553606 -0.828516 -0.083773 231 187 123
0.095619 -0.143104 -0.681003 0.555559 -0.831446 0.000000 231 187 123
0.033577 -0.168802 -0.681003 0.195074 -0.980773 0.000000 231 187 123
0.143104 -0.095619 -0.759970 0.828516 -0.553606 -0.083773 231 187 123
0.143104 -0.095619 -0.681003 0.831446 -0.555559 0.000000 231 187 123
0.168802 -0.033577 -0.759970 0.977325 -0.194403 -0.083773 231 187 123
0.168802 -0.033577 -0.681003 0.980773 -0.195074 0.000000 231 187 123
0.168802 -0.033577 -0.296606 0.980773 -0.195074 0.000000 231 187 123
0.011192 -0.168802 -0.296605 1.000000 0.000000 -0.000000 231 187 123
0.011192 -0.239891 -0.384007 1.000000 0.000000 -0.000000 231 187 123
0.011192 -0.239892 -0.681003 1.000000 0.000000 -0.000000 231 187 123
0.011192 -0.168802 -0.681003 1.000000 0.000000 -0.000000 231 187 123
0.011192 -0.168802 -0.681003 0.000000 -1.000000 0.000000 231 187 123
0.011192 -0.168802 -0.296605 0.000000 -1.000000 0.000000 231 187 123
-0.011192 -0.239891 -0.384007 -0.000000 -0.887936 0.459967 231 187 123
-0.008973 -0.283551 -0.468290 -0.000000 -0.887936 0.459967 231 187 123
0.008973 -0.283551 -0.468290 -0.000000 -0.887936 0.459967 231 187 123
0.011192 -0.239891 -0.384007 -0.000000 -0.887936 0.459967 231 187 123
-0.011192 -0.168802 -0.296605 0.000000 -0.775788 0.630994 231 187 123
-0.011192 -0.239891 -0.384007 0.000000 -0.775788 0.630994 231 187 123
0.011192 -0.239891 -0.384007 0.000000 -0.775788 0.630994 231 187 123
0.011192 -0.168802 -0.296605 0.000000 -0.775788 0.630994 231 187 123
-0.011192 -0.168802 -0.681003 -1.000000 -0.000000 0.000000 231 187 123
-0.011192 -0.239892 -0.681003 -1.000000 -0.000000 0.000000 231 187 123
-0.011192 -0.239891 -0.384007 -1.000000 -0.000000 0.000000 231 187 123
-0.011192 -0.168802 -0.296605 -1.000000 -0.000000 0.000000 231 187 123
0.011192 -0.168802 -0.681003 0.000000 0.000000 -1.000000 231 187 123
0.011192 -0.239892 -0.681003 0.000000 0.000000 -1.000000 231 187 123
-0.011192 -0.239892 -0.681003 0.000000 0.000000 -1.000000 231 187 123
-0.011192 -0.168802 -0.681003 0.000000 0.000000 -1.000000 231 187 123
0.008973 -0.283551 -0.468290 0.000000 -1.000000 0.000000 231 187 123
-0.008973 -0.283551 -0.468290 0.000000 -1.000000 0.000000 231 187 123
-0.008973 -0.283551 -0.670298 0.000000 -1.000000 0.000000 231 187 123
0.008973 -0.283551 -0.670298 0.000000 -1.000000 0.000000 231 187 123
0.011192 -0.239891 -0.384007 0.998711 -0.050762 -0.000000 231 187 123
0.008973 -0.283551 -0.468290 0.998711 -0.050762 -0.000000 231 187 123
0.008973 -0.283551 -0.670298 0.998711 -0.050762 -0.000000 231 187 123
0.011192 -0.239892 -0.681003 0.998711 -0.050762 -0.000000 231 187 123
-0.011192 -0.239892 -0.681003 -0.998711 -0.050761 0.000000 231 187 123
-0.008973 -0.283551 -0.670298 -0.998711 -0.050761 0.000000 231 187 123
-0.008973 -0.283551 -0.468290 -0.998711 -0.050761 0.000000 231 187 123
-0.011192 -0.239891 -0.384007 -0.998711 -0.050761 0.000000 231 187 123
0.011192 -0.239892 -0.681003 -0.000000 -0.238130 -0.971233 231 187 123
0.008973 -0.283551 -0.670298 -0.000000 -0.238130 -0.971233 231 187 123
-0.008973 -0.283551 -0.670298 -0.000000 -0.238130 -0.971233 231 187 123
-0.011192 -0.239892 -0.681003 -0.000000 -0.238130 -0.971233 231 187 123
0.047280 -0.009404 1.127439 0.292215 -0.058107 0.954558 231 187 123
0.047280 0.009405 1.127439 0.292215 0.058107 0.954558 231 187 123
0.028878 0.005744 1.131922 0.172948 0.034394 0.984313 231 187 123
0.028878 -0.005744 1.131922 0.172948 -0.034394 0.984313 231 187 123
0.166471 -0.033113 0.942743 0.977294 -0.194372 0.084048 231 187 123
0.168802 -0.033576 0.883821 0.980560 -0.195044 0.020081 231 187 123
0.168802 0.033577 0.883821 0.980560 0.195044 0.020081 231 187 123
0.166471 0.033114 0.942743 0.977294 0.194372 0.084048 231 187 123
0.168802 0.033577 -0.296605 0.980773 0.195074 0.000000 231 187 123
0.143104 0.095619 -0.296606 0.831446 0.555559 0.000000 231 187 123
0.143103 0.095619 0.883821 0.831294 0.555437 0.020081 231 187 123
0.040082 0.026782 1.127439 0.247719 0.165532 0.954558 231 187 123
0.024482 0.016358 1.131922 0.146611 0.097964 0.984313 231 187 123
0.141127 0.094299 0.942743 0.828516 0.553606 0.084048 231 187 123
0.095619 0.143104 -0.296606 0.555559 0.831446 0.000000 231 187 123
0.095618 0.143104 0.883821 0.555437 0.831294 0.020081 231 187 123
0.026782 0.040082 1.127439 0.165502 0.247719 0.954558 231 187 123
0.016358 0.024482 1.131922 0.097964 0.146611 0.984313 231 187 123
0.094298 0.141128 0.942743 0.553575 0.828516 0.084048 231 187 123
0.168802 0.033577 -0.759970 0.977325 0.194403 -0.083773 231 187 123
0.143104 0.095619 -0.759970 0.828516 0.553606 -0.083773 231 187 123
0.143104 0.095619 -0.681003 0.831446 0.555559 0.000000 231 187 123
0.168802 0.033577 -0.681003 0.980773 0.195074 0.000000 231 187 123
0.095619 0.143104 -0.759970 0.553606 0.828516 -0.083773 231 187 123
0.095619 0.143104 -0.681003 0.555559 0.831446 0.000000 231 187 123
0.033577 0.168802 -0.759970 0.194372 0.977325 -0.083773 231 187 123
0.033577 0.168802 -0.681003 0.195074 0.980773 0.000000 231 187 123
0.033577 0.168802 -0.296606 0.195074 0.980773 0.000000 231 187 123
0.168802 0.011192 -0.296605 -0.000001 1.000000 -0.000000 231 187 123
0.239891 0.011193 -0.384007 -0.000001 1.000000 -0.000000 231 187 123
0.239891 0.011193 -0.681003 -0.000001 1.000000 -0.000000 231 187 123
0.168802 0.011192 -0.681003 -0.000001 1.000000 -0.000000 231 187 123
0.168802 0.011192 -0.681003 1.000000 0.000000 0.000000 231 187 123
0.168802 0.011192 -0.296605 1.000000 0.000000 0.000000 231 187 123
0.239891 -0.011192 -0.384007 0.887937 0.000001 0.459966 231 187 123
0.283551 -0.008973 -0.468290 0.887937 0.000001 0.459966 231 187 123
0.283551 0.008973 -0.468290 0.887937 0.000001 0.459966 231 187 123
0.239891 0.011193 -0.384007 0.887937 0.000001 0.459966 231 187 123
0.168802 -0.011192 -0.296605 0.775788 0.000000 0.630994 231 187 123
0.239891 -0.011192 -0.384007 0.775788 0.000000 0.630994 231 187 123
0.239891 0.011193 -0.384007 0.775788 0.000000 0.630994 231 187 123
0.168802 0.011192 -0.296605 0.775788 0.000000 0.630994 231 187 123
0.168802 -0.011192 -0.681003 0.000001 -1.000000 0.000000 231 187 123
0.239891 -0.011192 -0.681003 0.000001 -1.000000 0.000000 231 187 123
0.239891 -0.011192 -0.384007 0.000001 -1.000000 0.000000 231 187 123
0.168802 -0.011192 -0.296605 0.000001 -1.000000 0.000000 231 187 123
0.168802 0.011192 -0.681003 0.000000 0.000000 -1.000000 231 187 123
0.239891 0.011193 -0.681003 0.000000 0.000000 -1.000000 231 187 123
0.239891 -0.011192 -0.681003 0.000000 0.000000 -1.000000 231 187 123
0.168802 -0.011192 -0.681003 0.000000 0.000000 -1.000000 231 187 123
0.283551 0.008973 -0.468290 1.000000 0.000002 -0.000000 231 187 123
0.283551 -0.008973 -0.468290 1.000000 0.000002 -0.000000 231 187 123
0.283551 -0.008973 -0.670299 1.000000 0.000002 -0.000000 231 187 123
0.283551 0.008973 -0.670299 1.000000 0.000002 -0.000000 231 187 123
0.239891 0.011193 -0.384007 0.050761 0.998711 -0.000000 231 187 123
0.283551 0.008973 -0.468290 0.050761 0.998711 -0.000000 231 187 123
0.283551 0.008973 -0.670299 0.050761 0.998711 -0.000000 231 187 123
0.239891 0.011193 -0.681003 0.050761 0.998711 -0.000000 231 187 123
0.239891 -0.011192 -0.681003 0.050761 -0.998711 0.000000 231 187 123
0.283551 -0.008973 -0.670299 0.050761 -0.998711 0.000000 231 187 123
0.283551 -0.008973 -0.468290 0.050761 -0.998711 0.000000 231 187 123
0.239891 -0.011192 -0.384007 0.050761 -0.998711 0.000000 231 187 123
0.239891 0.011193 -0.681003 0.238128 0.000000 -0.971234 231 187 123
0.283551 0.008973 -0.670299 0.238128 0.000000 -0.971234 231 187 123
0.283551 -0.008973 -0.670299 0.238128 0.000000 -0.971234 231 187 123
0.239891 -0.011192 -0.681003 0.238128 0.000000 -0.971234 231 187 123
0.009404 0.047280 1.127439 0.058107 0.292215 0.954558 231 187 123
-0.009405 0.047280 1.127439 -0.058107 0.292215 0.954558 231 187 123
-0.005744 0.028878 1.131922 -0.034394 0.172948 0.984313 231 187 123
0.005744 0.028878 1.131922 0.034394 0.172948 0.984313 231 187 123
0.033113 0.166471 0.942743 0.194372 0.977294 0.084048 231 187 123
0.033576 0.168802 0.883821 0.195044 0.980560 0.020081 231 187 123
-0.033577 0.168802 0.883821 -0.195044 0.980560 0.020081 231 187 123
-0.033114 0.166471 0.942743 -0.194372 0.977294 0.084048 231 187 123
-0.033577 0.168802 -0.296606 -0.195074 0.980773 0.000000 231 187 123
-0.095619 0.143103 -0.296606 -0.555559 0.831446 0.000000 231 187 123
-0.095619 0.143103 0.883821 -0.555437 0.831294 0.020081 231 187 123
-0.026782 0.040082 1.127439 -0.165532 0.247719 0.954558 231 187 123
-0.016358 0.024482 1.131922 -0.097964 0.146611 0.984313 231 187 123
-0.094299 0.141127 0.942743 -0.553606 0.828516 0.084048 231 187 123
-0.143104 0.095619 -0.296606 -0.831446 0.555559 0.000000 231 187 123
-0.143104 0.095618 0.883821 -0.831294 0.555437 0.020081 231 187 123
-0.040082 0.026782 1.127439 -0.247719 0.165532 0.954558 231 187 123
-0.024482 0.016358 1.131922 -0.146611 0.097964 0.984313 231 187 123
-0.141128 0.094298 0.942743 -0.828516 0.553575 0.084048 231 187 123
-0.168802 0.033576 -0.296606 -0.980773 0.195074 0.000000 231 187 123
-0.168802 0.033576 0.883821 -0.980560 0.195044 0.020081 231 187 123
-0.033577 0.168802 -0.759970 -0.194403 0.977325 -0.083773 231 187 123
-0.095619 0.143103 -0.759970 -0.553606 0.828516 -0.083773 231 187 123
-0.095619 0.143103 -0.681003 -0.555559 0.831446 0.000000 231 187 123
-0.033577 0.168802 -0.681003 -0.195074 0.980773 0.000000 231 187 123
-0.143104 0.095618 -0.759970 -0.828547 0.553606 -0.083773 231 187 123
-0.143104 0.095619 -0.681003 -0.831446 0.555559 0.000000 231 187 123
-0.168802 0.033576 -0.759970 -0.977325 0.194372 -0.083773 231 187 123
-0.168802 0.033576 -0.681003 -0.980773 0.195074 0.000000 231 187 123
-0.011193 0.168802 -0.296606 -1.000000 -0.000002 -0.000000 231 187 123
-0.011193 0.239891 -0.384007 -1.000000 -0.000002 -0.000000 231 187 123
-0.011193 0.239891 -0.681003 -1.000000 -0.000002 -0.000000 231 187 123
-0.011193 0.168802 -0.681003 -1.000000 -0.000002 -0.000000 231 187 123
-0.011193 0.168802 -0.681003 0.000000 1.000000 0.000000 231 187 123
-0.011193 0.168802 -0.296606 0.000000 1.000000 0.000000 231 187 123
0.011192 0.239891 -0.384007 -0.000001 0.887937 0.459965 231 187 123
0.008973 0.283551 -0.468290 -0.000001 0.887937 0.459965 231 187 123
-0.008974 0.283551 -0.468290 -0.000001 0.887937 0.459965 231 187 123
-0.011193 0.239891 -0.384007 -0.000001 0.887937 0.459965 231 187 123
0.011192 0.168802 -0.296606 -0.000001 0.775787 0.630994 231 187 123
0.011192 0.239891 -0.384007 -0.000001 0.775787 0.630994 231 187 123
-0.011193 0.239891 -0.384007 -0.000001 0.775787 0.630994 231 187 123
-0.011193 0.168802 -0.296606 -0.000001 0.775787 0.630994 231 187 123
0.011192 0.168802 -0.681003 1.000000 0.000001 0.000000 231 187 123
0.011192 0.239891 -0.681003 1.000000 0.000001 0.000000 231 187 123
0.011192 0.239891 -0.384007 1.000000 0.000001 0.000000 231 187 123
0.011192 0.168802 -0.296606 1.000000 0.000001 0.000000 231 187 123
-0.011193 0.168802 -0.681003 -0.000000 0.000000 -1.000000 231 187 123
-0.011193 0.239891 -0.681003 -0.000000 0.000000 -1.000000 231 187 123
0.011192 0.239891 -0.681003 -0.000000 0.000000 -1.000000 231 187 123
0.011192 0.168802 -0.681003 -0.000000 0.000000 -1.000000 231 187 123
-0.008974 0.283551 -0.468290 -0.000001 1.000000 -0.000000 231 187 123
0.008973 0.283551 -0.468290 -0.000001 1.000000 -0.000000 231 187 123
0.008973 0.283551 -0.670299 -0.000001 1.000000 -0.000000 231 187 123
-0.008974 0.283551 -0.670299 -0.000001 1.000000 -0.000000 231 187 123
-0.011193 0.239891 -0.384007 -0.998711 0.050760 -0.000000 231 187 123
-0.008974 0.283551 -0.468290 -0.998711 0.050760 -0.000000 231 187 123
-0.008974 0.283551 -0.670299 -0.998711 0.050760 -0.000000 231 187 123
-0.011193 0.239891 -0.681003 -0.998711 0.050760 -0.000000 231 187 123
0.011192 0.239891 -0.681003 0.998711 0.050763 0.000000 231 187 123
0.008973 0.283551 -0.670299 0.998711 0.050763 0.000000 231 187 123
0.008973 0.283551 -0.468290 0.998711 0.050763 0.000000 231 187 123
0.011192 0.239891 -0.384007 0.998711 0.050763 0.000000 231 187 123
-0.011193 0.239891 -0.681003 0.000000 0.238125 -0.971234 231 187 123
-0.008974 0.283551 -0.670299 0.000000 0.238125 -0.971234 231 187 123
0.008973 0.283551 -0.670299 0.000000 0.238125 -0.971234 231 187 123
0.011192 0.239891 -0.681003 0.000000 0.238125 -0.971234 231 187 123
-0.047280 0.009405 1.127439 -0.292215 0.058107 0.954558 231 187 123
-0.047280 -0.009405 1.127439 -0.292215 -0.058107 0.954558 231 187 123
-0.028878 -0.005744 1.131922 -0.172948 -0.034394 0.984313 231 187 123
-0.028878 0.005744 1.131922 -0.172948 0.034394 0.984313 231 187 123
-0.168802 -0.033577 -0.296605 -0.980773 -0.195074 0.000000 231 187 123
-0.143103 -0.095619 -0.296605 -0.831446 -0.555559 0.000000 231 187 123
-0.143103 -0.095619 0.883821 -0.831294 -0.555437 0.020081 231 187 123
-0.168802 -0.033577 0.883821 -0.980560 -0.195044 0.020081 231 187 123
-0.040082 -0.026782 1.127439 -0.247719 -0.165532 0.954558 231 187 123
-0.024482 -0.016358 1.131922 -0.146611 -0.097964 0.984313 231 187 123
-0.166471 -0.033114 0.942743 -0.977294 -0.194403 0.084048 231 187 123
-0.141127 -0.094299 0.942743 -0.828516 -0.553606 0.084048 231 187 123
-0.095618 -0.143104 -0.296605 -0.555559 -0.831446 0.000000 231 187 123
-0.095618 -0.143104 0.883821 -0.555437 -0.831294 0.020081 231 187 123
-0.026782 -0.040082 1.127439 -0.165532 -0.247719 0.954558 231 187 123
-0.016358 -0.024482 1.131922 -0.097964 -0.146611 0.984313 231 187 123
-0.094298 -0.141128 0.942743 -0.553575 -0.828516 0.084048 231 187 123
-0.033576 -0.168802 -0.296605 -0.195074 -0.980773 0.000000 231 187 123
-0.033576 -0.168802 0.883821 -0.195044 -0.980560 0.020081 231 187 123
-0.009404 -0.047280 1.127439 -0.058107 -0.292215 0.954558 231 187 123
-0.005744 -0.028878 1.131922 -0.034394 -0.172948 0.984313 231 187 123
-0.033113 -0.166471 0.942743 -0.194372 -0.977294 0.084048 231 187 123
-0.168802 -0.033577 -0.759970 -0.977325 -0.194403 -0.083773 231 187 123
-0.143103 -0.095619 -0.759970 -0.828516 -0.553606 -0.083773 231 187 123
-0.143103 -0.095619 -0.681003 -0.831446 -0.555559 0.000000 231 187 123
-0.168802 -0.033577 -0.681003 -0.980773 -0.195074 0.000000 231 187 123
-0.095618 -0.143104 -0.759970 -0.553606 -0.828547 -0.083773 231 187 123
-0.095618 -0.143104 -0.681003 -0.555559 -0.831446 0.000000 231 187 123
-0.033576 -0.168802 -0.759970 -0.194372 -0.977325 -0.083773 231 187 123
-0.033576 -0.168802 -0.681003 -0.195074 -0.980773 0.000000 231 187 123
-0.168802 -0.011193 -0.296605 0.000002 -1.000000 0.000000 231 187 123
-0.239891 -0.011193 -0.384007 0.000002 -1.000000 0.000000 231 187 123
-0.239891 -0.011193 -0.681003 0.000002 -1.000000 0.000000 231 187 123
-0.168802 -0.011193 -0.681003 0.000002 -1.000000 0.000000 231 187 123
-0.168802 -0.011193 -0.681003 -1.000000 0.000000 0.000000 231 187 123
-0.168802 -0.011193 -0.296605 -1.000000 0.000000 0.000000 231 187 123
-0.239891 0.011192 -0.384007 -0.887936 -0.000002 0.459966 231 187 123
-0.283551 0.008973 -0.468290 -0.887936 -0.000002 0.459966 231 187 123
-0.283551 -0.008974 -0.468290 -0.887936 -0.000002 0.459966 231 187 123
-0.239891 -0.011193 -0.384007 -0.887936 -0.000002 0.459966 231 187 123
-0.168802 0.011192 -0.296605 -0.775788 -0.000001 0.630994 231 187 123
-0.239891 0.011192 -0.384007 -0.775788 -0.000001 0.630994 231 187 123
-0.239891 -0.011193 -0.384007 -0.775788 -0.000001 0.630994 231 187 123
-0.168802 -0.011193 -0.296605 -0.775788 -0.000001 0.630994 231 187 123
-0.168802 0.011192 -0.681003 -0.000002 1.000000 -0.000000 231 187 123
-0.239891 0.011192 -0.681003 -0.000002 1.000000 -0.000000 231 187 123
-0.239891 0.011192 -0.384007 -0.000002 1.000000 -0.000000 231 187 123
-0.168802 0.011192 -0.296605 -0.000002 1.000000 -0.000000 231 187 123
-0.168802 -0.011193 -0.681003 0.000000 -0.000000 -1.000000 231 187 123
-0.239891 -0.011193 -0.681003 0.000000 -0.000000 -1.000000 231 187 123
-0.239891 0.011192 -0.681003 0.000000 -0.000000 -1.000000 231 187 123
-0.168802 0.011192 -0.681003 0.000000 -0.000000 -1.000000 231 187 123
-0.283551 -0.008974 -0.468290 -1.000000 -0.000002 0.000000 231 187 123
-0.283551 0.008973 -0.468290 -1.000000 -0.000002 0.000000 231 187 123
-0.283551 0.008973 -0.670298 -1.000000 -0.000002 0.000000 231 187 123
-0.283551 -0.008974 -0.670298 -1.000000 -0.000002 0.000000 231 187 123
-0.239891 -0.011193 -0.384007 -0.050759 -0.998711 0.000000 231 187 123
-0.283551 -0.008974 -0.468290 -0.050759 -0.998711 0.000000 231 187 123
-0.283551 -0.008974 -0.670298 -0.050759 -0.998711 0.000000 231 187 123
-0.239891 -0.011193 -0.681003 -0.050759 -0.998711 0.000000 231 187 123
-0.239891 0.011192 -0.681003 -0.050764 0.998711 -0.000000 231 187 123
-0.283551 0.008973 -0.670298 -0.050764 0.998711 -0.000000 231 187 123
-0.283551 0.008973 -0.468290 -0.050764 0.998711 -0.000000 231 187 123
-0.239891 0.011192 -0.384007 -0.050764 0.998711 -0.000000 231 187 123
-0.239891 -0.011193 -0.681003 -0.238130 -0.000000 -0.971233 231 187 123
-0.283551 -0.008974 -0.670298 -0.238130 -0.000000 -0.971233 231 187 123
-0.283551 0.008973 -0.670298 -0.238130 -0.000000 -0.971233 231 187 123
-0.239891 0.011192 -0.681003 -0.238130 -0.000000 -0.971233 231 187 123
0.166734 0.033166 -0.772290 0.925047 0.183996 -0.332194 231 187 123
0.141350 0.094447 -0.772290 0.784234 0.524003 -0.332224 231 187 123
-0.166471 0.033113 0.942743 -0.977294 0.194372 0.084048 231 187 123
0.000000 0.000000 1.134995 0.000000 0.000000 1.000000 231 187 123
-0.168802 0.011192 -0.296605 -1.000000 0.000000 0.000000 231 187 123
0.141350 -0.094447 -0.772290 0.784234 -0.524003 -0.332194 231 187 123
0.166734 -0.033165 -0.772290 0.925077 -0.183996 -0.332224 231 187 123
-0.094448 0.141350 -0.772290 -0.524003 0.784234 -0.332194 231 187 123
-0.141351 0.094447 -0.772290 -0.784234 0.524003 -0.332224 231 187 123
-0.033165 -0.166734 -0.772290 -0.183996 -0.925077 -0.332224 231 187 123
0.033166 -0.166734 -0.772290 0.183996 -0.925047 -0.332224 231 187 123
-0.168802 0.011192 -0.681003 -1.000000 0.000000 0.000000 231 187 123
-0.033166 0.166734 -0.772290 -0.183996 0.925047 -0.332194 231 187 123
-0.011192 -0.168802 -0.296605 0.000000 -1.000000 0.000000 231 187 123
-0.094447 -0.141351 -0.772290 -0.524003 -0.784234 -0.332224 231 187 123
-0.166734 0.033165 -0.772290 -0.925077 0.183996 -0.332224 231 187 123
-0.166734 -0.033166 -0.772290 -0.925047 -0.183996 -0.332224 231 187 123
0.033165 0.166734 -0.772290 0.183996 0.925077 -0.332194 231 187 123
-0.011192 -0.168802 -0.681003 0.000000 -1.000000 0.000000 231 187 123
0.094447 0.141350 -0.772290 0.524003 0.784234 -0.332194 231 187 123
0.168802 -0.011192 -0.296605 1.000000 0.000000 0.000000 231 187 123
-0.141350 -0.094448 -0.772290 -0.784234 -0.524003 -0.332224 231 187 123
0.094447 -0.141350 -0.772290 0.524003 -0.784234 -0.332194 231 187 123
0.168802 -0.011192 -0.681003 1.000000 0.000000 0.000000 231 187 123
0.011192 0.168802 -0.296606 0.000000 1.000000 0.000000 231 187 123
0.011192 0.168802 -0.681003 0.000000 1.000000 0.000000 231 187 123
0.032469 -0.163230 -0.778499 0.155370 -0.781152 -0.604663 231 187 123
0.092462 -0.138380 -0.778499 0.442488 -0.662221 -0.604663 231 187 123
0.092462 0.138380 -0.778499 0.442488 0.662221 -0.604663 231 187 123
0.032468 0.163230 -0.778499 0.155370 0.781152 -0.604663 231 187 123
-0.092462 -0.138380 -0.778499 -0.442488 -0.662221 -0.604663 231 187 123
-0.032468 -0.163230 -0.778499 -0.155370 -0.781152 -0.604663 231 187 123
0.163230 -0.032468 -0.778499 0.781152 -0.155370 -0.604663 231 187 123
0.163230 0.032469 -0.778499 0.781152 0.155370 -0.604663 231 187 123
0.138380 0.092462 -0.778499 0.662221 0.442488 -0.604663 231 187 123
-0.138379 -0.092463 -0.778499 -0.662221 -0.442488 -0.604663 231 187 123
-0.032469 0.163230 -0.778499 -0.155370 0.781152 -0.604663 231 187 123
-0.163230 -0.032469 -0.778499 -0.781152 -0.155370 -0.604663 231 187 123
-0.138380 0.092462 -0.778499 -0.662221 0.442488 -0.604663 231 187 123
-0.163230 0.032468 -0.778499 -0.781152 0.155370 -0.604663 231 187 123
0.138380 -0.092462 -0.778499 0.662221 -0.442488 -0.604663 231 187 123
-0.092463 0.138379 -0.778499 -0.442488 0.662221 -0.604663 231 187 123
0.135132 0.090293 -0.782314 0.434980 0.290628 -0.852199 231 187 123
0.090292 0.135133 -0.782314 0.290658 0.434980 -0.852199 231 187 123
-0.135132 -0.090293 -0.782314 -0.434980 -0.290658 -0.852199 231 187 123
-0.090292 -0.135133 -0.782314 -0.290628 -0.434980 -0.852199 231 187 123
0.031706 0.159400 -0.782314 0.102054 0.513108 -0.852199 231 187 123
-0.031707 0.159400 -0.782314 -0.102054 0.513108 -0.852199 231 187 123
0.159400 0.031707 -0.782314 0.513108 0.102054 -0.852199 231 187 123
-0.159400 -0.031707 -0.782314 -0.513108 -0.102054 -0.852199 231 187 123
-0.135133 0.090292 -0.782314 -0.434980 0.290628 -0.852199 231 187 123
-0.159400 0.031706 -0.782314 -0.513108 0.102054 -0.852199 231 187 123
0.135133 -0.090293 -0.782314 0.434980 -0.290628 -0.852199 231 187 123
0.159400 -0.031706 -0.782314 0.513108 -0.102054 -0.852199 231 187 123
-0.090293 0.135132 -0.782314 -0.290658 0.434980 -0.852199 231 187 123
-0.031706 -0.159400 -0.782314 -0.102054 -0.513108 -0.852199 231 187 123
0.031707 -0.159400 -0.782314 0.102054 -0.513108 -0.852199 231 187 123
0.090293 -0.135133 -0.782314 0.290658 -0.434980 -0.852199 231 187 123
0.144231 0.028689 -0.786684 0.151006 0.030030 -0.988067 231 187 123
0.122273 0.081700 -0.786684 0.128025 0.085543 -0.988067 231 187 123
-0.144231 -0.028690 -0.786684 -0.151006 -0.030030 -0.988067 231 187 123
-0.122273 -0.081701 -0.786684 -0.128025 -0.085543 -0.988067 231 187 123
-0.122273 0.081700 -0.786684 -0.128025 0.085543 -0.988067 231 187 123
-0.144231 0.028689 -0.786684 -0.151006 0.030030 -0.988067 231 187 123
0.122273 -0.081700 -0.786684 0.128025 -0.085543 -0.988067 231 187 123
0.144231 -0.028689 -0.786684 0.151006 -0.030030 -0.988067 231 187 123
-0.081700 0.122273 -0.786684 -0.085543 0.128025 -0.988067 231 187 123
-0.028689 -0.144231 -0.786684 -0.030030 -0.151006 -0.988067 231 187 123
0.028689 -0.144231 -0.786684 0.030030 -0.151006 -0.988067 231 187 123
0.081700 -0.122273 -0.786684 0.085543 -0.128025 -0.988067 231 187 123
-0.028690 0.144231 -0.786684 -0.030030 0.151006 -0.988067 231 187 123
0.081700 0.122273 -0.786684 0.085543 0.128025 -0.988067 231 187 123
0.028689 0.144231 -0.786684 0.030030 0.151006 -0.988067 231 187 123
-0.081700 -0.122273 -0.786684 -0.085543 -0.128025 -0.988067 231 187 123
0.000000 -0.000000 -0.786684 0.000000 0.000000 -0.999969 231 187 123
0.031623 -0.158979 1.001665 0.190161 -0.956114 0.222877 231 187 123
0.090055 -0.134776 1.001665 0.541581 -0.810541 0.222877 231 187 123
0.134777 -0.090054 1.001665 0.810541 -0.541581 0.222877 231 187 123
0.158980 -0.031623 1.001665 0.956114 -0.190161 0.222846 231 187 123
0.158980 0.031624 1.001665 0.956114 0.190161 0.222846 231 187 123
0.134776 0.090055 1.001665 0.810541 0.541581 0.222846 231 187 123
0.090054 0.134777 1.001665 0.541581 0.810541 0.222846 231 187 123
0.031623 0.158980 1.001665 0.190161 0.956114 0.222846 231 187 123
-0.031623 0.158980 1.001665 -0.190161 0.956114 0.222846 231 187 123
-0.090055 0.134776 1.001665 -0.541581 0.810541 0.222846 231 187 123
-0.134777 0.090054 1.001665 -0.810541 0.541581 0.222846 231 187 123
-0.158980 -0.031623 1.001665 -0.956114 -0.190161 0.222846 231 187 123
-0.134776 -0.090055 1.001665 -0.810541 -0.541581 0.222846 231 187 123
-0.090054 -0.134777 1.001665 -0.541581 -0.810541 0.222846 231 187 123
-0.031622 -0.158980 1.001665 -0.190161 -0.956114 0.222846 231 187 123
-0.158980 0.031623 1.001665 -0.956114 0.190161 0.222846 231 187 123
0.081761 -0.122364 1.045819 0.506516 -0.758080 0.410749 231 187 123
0.028711 -0.144338 1.045819 0.177862 -0.894223 0.410749 231 187 123
0.122364 -0.081761 1.045819 0.758080 -0.506516 0.410749 231 187 123
0.144338 0.028711 1.045819 0.894223 0.177862 0.410749 231 187 123
0.144338 -0.028710 1.045819 0.894223 -0.177862 0.410749 231 187 123
0.122364 0.081761 1.045819 0.758080 0.506516 0.410749 231 187 123
0.081761 0.122364 1.045819 0.506516 0.758080 0.410749 231 187 123
-0.028711 0.144338 1.045819 -0.177862 0.894192 0.410749 231 187 123
0.028710 0.144338 1.045819 0.177862 0.894223 0.410749 231 187 123
-0.081761 0.122364 1.045819 -0.506516 0.758080 0.410749 231 187 123
-0.122364 0.081761 1.045819 -0.758080 0.506516 0.410749 231 187 123
-0.144338 -0.028711 1.045819 -0.894192 -0.177862 0.410749 231 187 123
-0.144338 0.028710 1.045819 -0.894223 0.177862 0.410749 231 187 123
-0.122364 -0.081761 1.045819 -0.758080 -0.506516 0.410749 231 187 123
-0.081760 -0.122364 1.045819 -0.506516 -0.758080 0.410749 231 187 123
-0.028710 -0.144338 1.045819 -0.177862 -0.894223 0.410749 231 187 123
0.069255 -0.103647 1.084155 0.435774 -0.652181 0.620228 231 187 123
0.024319 -0.122260 1.084155 0.153020 -0.769311 0.620228 231 187 123
0.103648 -0.069255 1.084155 0.652181 -0.435774 0.620228 231 187 123
0.122261 0.024320 1.084155 0.769311 0.153020 0.620228 231 187 123
0.122261 -0.024319 1.084155 0.769311 -0.153020 0.620228 231 187 123
0.103647 0.069256 1.084155 0.652181 0.435774 0.620228 231 187 123
0.069255 0.103648 1.084155 0.435774 0.652181 0.620228 231 187 123
-0.024320 0.122261 1.084155 -0.153020 0.769311 0.620228 231 187 123
0.024319 0.122261 1.084155 0.153020 0.769311 0.620228 231 187 123
-0.069255 0.103647 1.084155 -0.435774 0.652181 0.620228 231 187 123
-0.103648 0.069255 1.084155 -0.652181 0.435774 0.620228 231 187 123
-0.122260 -0.024319 1.084155 -0.769311 -0.153020 0.620228 231 187 123
-0.122261 0.024319 1.084155 -0.769311 0.153020 0.620228 231 187 123
-0.103647 -0.069255 1.084155 -0.652181 -0.435774 0.620228 231 187 123
-0.069255 -0.103648 1.084155 -0.435774 -0.652181 0.620228 231 187 123
-0.024319 -0.122261 1.084155 -0.153020 -0.769311 0.620228 231 187 123
0.058009 -0.086817 1.102666 0.320231 -0.479293 0.817133 231 187 123
0.020370 -0.102407 1.102666 0.112430 -0.565355 0.817133 231 187 123
0.086817 -0.058009 1.102666 0.479293 -0.320231 0.817133 231 187 123
0.102407 0.020371 1.102666 0.565355 0.112461 0.817133 231 187 123
0.102408 -0.020370 1.102666 0.565355 -0.112430 0.817133 231 187 123
0.086817 0.058010 1.102666 0.479293 0.320231 0.817133 231 187 123
0.058009 0.086817 1.102666 0.320231 0.479293 0.817133 231 187 123
-0.020370 0.102408 1.102666 -0.112430 0.565355 0.817133 231 187 123
0.020370 0.102408 1.102666 0.112430 0.565355 0.817133 231 187 123
-0.058009 0.086817 1.102666 -0.320231 0.479293 0.817133 231 187 123
-0.086817 0.058009 1.102666 -0.479293 0.320231 0.817133 231 187 123
-0.102407 -0.020370 1.102666 -0.565355 -0.112461 0.817133 231 187 123
-0.102408 0.020370 1.102666 -0.565355 0.112430 0.817133 231 187 123
-0.086817 -0.058009 1.102666 -0.479293 -0.320231 0.817133 231 187 123
-0.058009 -0.086817 1.102666 -0.320231 -0.479293 0.817133 231 187 123
-0.020370 -0.102407 1.102666 -0.112430 -0.565355 0.817133 231 187 123
0.040533 -0.060661 1.118234 0.223334 -0.334239 0.915616 231 187 123
0.014233 -0.071555 1.118234 0.078402 -0.394269 0.915616 231 187 123
0.060662 -0.040532 1.118234 0.334239 -0.223334 0.915616 231 187 123
0.071555 0.014234 1.118234 0.394269 0.078402 0.915616 231 187 123
0.071555 -0.014233 1.118234 0.394269 -0.078402 0.915616 231 187 123
0.060661 0.040533 1.118234 0.334239 0.223334 0.915616 231 187 123
0.040533 0.060662 1.118234 0.223334 0.334269 0.915616 231 187 123
-0.014233 0.071555 1.118233 -0.078402 0.394269 0.915616 231 187 123
0.014233 0.071555 1.118233 0.078402 0.394269 0.915616 231 187 123
-0.040533 0.060661 1.118233 -0.223334 0.334269 0.915616 231 187 123
-0.060662 0.040533 1.118233 -0.334269 0.223334 0.915616 231 187 123
-0.071555 -0.014233 1.118233 -0.394269 -0.078402 0.915616 231 187 123
-0.071555 0.014233 1.118233 -0.394299 0.078402 0.915616 231 187 123
-0.060661 -0.040533 1.118233 -0.334239 -0.223334 0.915616 231 187 123
-0.040532 -0.060662 1.118233 -0.223334 -0.334269 0.915616 231 187 123
-0.014233 -0.071555 1.118233 -0.078433 -0.394269 0.915616 231 187 123
4 0 1 2 3
4 4 5 6 7
4 8 3 2 9
4 1 10 11 2
4 5 12 13 6
4 9 2 11 14
4 15 16 17 18
4 16 19 20 17
4 19 21 22 20
4 17 20 10 1
4 20 22 23 10
4 18 17 1 0
4 24 25 26 27
4 28 18 0 29
4 30 31 32 33
4 34 35 36 37
4 38 39 40 41
4 42 43 44 45
4 46 47 48 49
4 50 51 52 53
4 54 55 56 57
4 58 59 60 61
4 62 63 64 65
4 66 67 68 69
4 70 71 72 68
4 63 73 74 64
4 69 68 72 75
4 71 76 77 72
4 73 78 79 74
4 75 72 77 80
4 81 82 83 84
4 82 85 86 83
4 85 87 88 86
4 83 86 76 71
4 86 88 89 76
4 84 83 71 70
4 90 91 92 93
4 94 84 70 95
4 96 97 98 99
4 100 101 102 103
4 104 105 106 107
4 108 109 110 111
4 112 113 114 115
4 116 117 118 119
4 120 121 122 123
4 124 125 126 127
4 128 129 130 131
4 132 133 134 135
4 136 137 138 134
4 129 139 140 130
4 135 134 138 141
4 137 142 143 138
4 139 144 145 140
4 141 138 143 146
4 142 147 148 143
4 149 150 151 152
4 150 153 154 151
4 153 155 156 154
4 151 154 142 137
4 154 156 147 142
4 152 151 137 136
4 157 158 159 160
4 161 152 136 162
4 163 164 165 166
4 167 168 169 170
4 171 172 173 174
4 175 176 177 178
4 179 180 181 182
4 183 184 185 186
4 187 188 189 190
4 191 192 193 194
4 195 196 197 198
4 199 200 201 202
4 196 203 204 197
4 205 202 201 206
4 200 207 208 201
4 203 209 210 204
4 206 201 208 211
4 207 212 213 208
4 209 214 215 210
4 211 208 213 216
4 217 218 219 220
4 218 221 222 219
4 221 223 224 222
4 219 222 207 200
4 222 224 212 207
4 220 219 200 199
4 225 226 227 228
4 229 220 199 230
4 231 232 233 234
4 235 236 237 238
4 239 240 241 242
4 243 244 245 246
4 247 248 249 250
4 251 252 253 254
4 255 256 257 258
4 259 260 261 262
4 82 81 263 264
4 265 148 202 205
3 198 197 266
3 147 202 148
3 147 267 202
3 267 230 202
3 230 199 202
3 197 204 266
4 21 19 268 269
3 204 210 266
4 153 150 270 271
3 210 215 266
4 15 223 272 273
3 155 274 156
3 155 217 274
3 217 229 274
3 217 220 229
4 267 147 156 274
4 214 4 7 215
4 150 149 275 270
4 216 213 3 8
3 215 7 266
3 0 3 213
3 212 276 213
3 276 0 213
3 276 29 0
3 7 6 266
4 223 221 277 272
3 6 13 266
4 217 155 278 279
3 13 65 266
4 10 23 67 11
4 12 62 65 13
4 149 87 280 275
4 14 11 67 66
3 15 18 28
3 28 281 224
3 15 28 224
3 223 15 224
4 276 212 224 281
4 87 85 282 280
3 65 64 266
3 95 70 68
3 95 68 67
3 283 95 67
3 23 283 67
3 64 74 266
4 221 218 284 277
3 74 79 266
4 19 16 285 268
3 79 131 266
4 76 89 133 77
4 78 128 131 79
4 155 153 271 278
4 80 77 133 132
3 21 81 84
3 21 84 94
3 21 94 286
3 21 286 22
4 283 23 22 286
4 218 217 279 284
3 131 130 266
3 89 287 133
3 287 162 133
3 162 136 133
3 136 134 133
3 130 140 266
4 16 15 273 285
3 140 145 266
4 85 82 264 282
3 145 198 266
4 144 195 198 145
4 81 21 269 263
4 146 143 148 265
3 87 149 88
3 149 152 161
3 149 161 88
3 161 288 88
4 287 89 88 288
4 285 273 289 290
4 280 282 291 292
4 272 277 293 294
4 263 269 295 296
4 282 264 297 291
4 277 284 298 293
4 275 280 292 299
4 264 263 296 297
4 284 279 300 298
4 278 271 301 302
4 279 278 302 300
4 269 268 303 295
4 271 270 304 301
4 273 272 294 289
4 268 285 290 303
4 270 275 299 304
4 291 297 305 306
4 293 298 307 308
4 299 292 309 310
4 297 296 311 305
4 298 300 312 307
4 302 301 313 314
4 300 302 314 312
4 295 303 315 316
4 301 304 317 313
4 289 294 318 319
4 303 290 320 315
4 304 299 310 317
4 290 289 319 320
4 292 291 306 309
4 294 293 308 318
4 296 295 316 311
4 305 311 321 322
4 307 312 323 324
4 314 313 325 326
4 312 314 326 323
4 316 315 327 328
4 313 317 329 325
4 319 318 330 331
4 315 320 332 327
4 317 310 333 329
4 320 319 331 332
4 309 306 334 335
4 318 308 336 330
4 311 316 328 321
4 306 305 322 334
4 308 307 324 336
4 310 309 335 333
3 337 323 326
3 337 324 323
3 337 336 324
3 337 330 336
3 337 331 330
3 337 332 331
3 337 327 332
3 337 328 327
3 337 321 328
3 337 322 321
3 337 334 322
3 337 335 334
3 337 333 335
3 337 329 333
3 337 325 329
3 337 326 325
4 338 8 9 339
4 339 9 14 340
4 341 66 69 342
4 342 69 75 343
4 343 75 80 344
4 345 132 135 346
4 346 135 141 347
4 347 141 146 348
4 349 205 206 350
4 350 206 211 351
4 351 211 216 352
4 353 265 205 349
4 352 216 8 338
4 340 14 66 341
4 344 80 132 345
4 348 146 265 353
4 338 339 354 355
4 339 340 356 354
4 341 342 357 358
4 342 343 359 357
4 343 344 360 359
4 345 346 361 362
4 346 347 363 361
4 347 348 364 363
4 353 349 365 366
4 349 350 367 365
4 350 351 368 367
4 351 352 369 368
4 352 338 355 369
4 340 341 358 356
4 344 345 362 360
4 348 353 366 364
4 355 354 370 371
4 354 356 372 370
4 358 357 373 374
4 357 359 375 373
4 359 360 376 375
4 362 361 377 378
4 361 363 379 377
4 363 364 380 379
4 366 365 381 382
4 365 367 383 381
4 367 368 384 383
4 368 369 385 384
4 369 355 371 385
4 356 358 374 372
4 360 362 378 376
4 364 366 382 380
4 371 370 386 387
4 370 372 388 386
4 374 373 389 390
4 373 375 391 389
4 375 376 392 391
4 378 377 393 394
4 377 379 395 393
4 379 380 396 395
4 382 381 397 398
4 381 383 399 397
4 383 384 400 399
4 384 385 401 400
4 385 371 387 401
4 372 374 390 388
4 376 378 394 392
4 380 382 398 396
4 387 386 402 403
4 386 388 404 402
4 390 389 405 406
4 389 391 407 405
4 391 392 408 407
4 394 393 409 410
4 393 395 411 409
4 395 396 412 411
4 398 397 413 414
4 397 399 415 413
4 399 400 416 415
4 400 401 417 416
4 401 387 403 417
4 388 390 406 404
4 392 394 410 408
4 396 398 414 412
4 403 402 5 4
4 402 404 12 5
4 406 405 63 62
4 405 407 73 63
4 407 408 78 73
4 410 409 129 128
4 409 411 139 129
4 411 412 144 139
4 414 413 196 195
4 413 415 203 196
4 415 416 209 203
4 416 417 214 209
4 417 403 4 214
4 404 406 62 12
4 408 410 128 78
4 412 414 195 144
