ply
format ascii 1.0
comment Created by Blender 2.68 (sub 0) - www.blender.org, source file: 'Missle04.blend'
element vertex 498
property float x
property float y
property float z
property float nx
property float ny
property float nz
property float s
property float t
property uchar red
property uchar green
property uchar blue
element face 336
property list uchar uint vertex_indices
end_header
0.033577 -0.168802 -0.296605 0.195074 -0.980773 0.000000 0.031366 0.315311 231 187 123
0.095619 -0.143104 -0.296605 0.555559 -0.831446 0.000000 0.071910 0.314512 231 187 123
0.095619 -0.143103 0.883821 0.555437 -0.831294 0.020081 0.072940 1.085183 231 187 123
0.033577 -0.168802 0.883821 0.195044 -0.980560 0.020081 0.032396 1.085982 231 187 123
0.009405 -0.047280 1.127439 0.058107 -0.292215 0.954558 0.848561 0.287101 231 187 123
0.026782 -0.040082 1.127439 0.165502 -0.247719 0.954558 0.848561 0.299393 231 187 123
0.016358 -0.024481 1.131922 0.097964 -0.146611 0.984313 0.836535 0.297000 231 187 123
0.005744 -0.028878 1.131922 0.034394 -0.172948 0.984313 0.836535 0.289493 231 187 123
0.033113 -0.166471 0.942743 0.194372 -0.977294 0.084048 0.033310 1.124506 231 187 123
0.094299 -0.141127 0.942743 0.553606 -0.828516 0.084048 0.073295 1.123719 231 187 123
0.143104 -0.095619 -0.296605 0.831446 -0.555559 0.000000 0.115796 0.314454 231 187 123
0.143104 -0.095618 0.883821 0.831294 -0.555437 0.020081 0.116826 1.085124 231 187 123
0.040082 -0.026782 1.127439 0.247719 -0.165502 0.954558 0.843857 0.310749 231 187 123
0.024482 -0.016358 1.131922 0.146611 -0.097964 0.984313 0.833662 0.303937 231 187 123
0.141128 -0.094298 0.942743 0.828516 -0.553575 0.084048 0.116575 1.123661 231 187 123
0.033577 -0.168802 -0.759970 0.194403 -0.977325 -0.083773 0.030961 0.012792 231 187 123
0.095619 -0.143104 -0.759970 0.553606 -0.828516 -0.083773 0.071506 0.011993 231 187 123
0.095619 -0.143104 -0.681003 0.555559 -0.831446 0.000000 0.071575 0.063549 231 187 123
0.033577 -0.168802 -0.681003 0.195074 -0.980773 0.000000 0.031030 0.064348 231 187 123
0.143104 -0.095619 -0.759970 0.828516 -0.553606 -0.083773 0.115392 0.011935 231 187 123
0.143104 -0.095619 -0.681003 0.831446 -0.555559 0.000000 0.115461 0.063490 231 187 123
0.168802 -0.033577 -0.759970 0.977325 -0.194403 -0.083773 0.155938 0.012625 231 187 123
0.168802 -0.033577 -0.681003 0.980773 -0.195074 0.000000 0.156007 0.064181 231 187 123
0.168802 -0.033577 -0.296606 0.980773 -0.195074 0.000000 0.156343 0.315144 231 187 123
0.011192 -0.168802 -0.296605 1.000000 0.000000 -0.000000 0.797785 0.879313 231 187 123
0.011192 -0.239891 -0.384007 1.000000 0.000000 -0.000000 0.765036 0.820738 231 187 123
0.011192 -0.239892 -0.681003 1.000000 0.000000 -0.000000 0.765372 0.626837 231 187 123
0.011192 -0.168802 -0.681003 1.000000 0.000000 -0.000000 0.798220 0.628350 231 187 123
0.011192 -0.168802 -0.681003 0.000000 -1.000000 0.000000 0.721714 0.064085 231 187 123
0.033577 -0.168802 -0.681003 0.195074 -0.980773 0.000000 0.732064 0.064367 231 187 123
0.033577 -0.168802 -0.296605 0.195074 -0.980773 0.000000 0.736348 0.315294 231 187 123
0.011192 -0.168802 -0.296605 0.000000 -1.000000 0.000000 0.725998 0.315012 231 187 123
-0.011192 -0.239891 -0.384007 -0.000000 -0.887936 0.459967 0.955465 0.816355 231 187 123
-0.008973 -0.283551 -0.468290 -0.000000 -0.887936 0.459967 0.970278 0.758458 231 187 123
0.008973 -0.283551 -0.468290 -0.000000 -0.887936 0.459967 0.978560 0.757895 231 187 123
0.011192 -0.239891 -0.384007 -0.000000 -0.887936 0.459967 0.965796 0.815652 231 187 123
-0.011192 -0.168802 -0.296605 0.000000 -0.775788 0.630994 0.879799 0.924078 231 187 123
-0.011192 -0.239891 -0.384007 0.000000 -0.775788 0.630994 0.879941 0.877621 231 187 123
0.011192 -0.239891 -0.384007 0.000000 -0.775788 0.630994 0.894570 0.877666 231 187 123
0.011192 -0.168802 -0.296605 0.000000 -0.775788 0.630994 0.894427 0.924123 231 187 123
-0.011192 -0.168802 -0.681003 -1.000000 -0.000000 0.000000 0.858676 0.376155 231 187 123
-0.011192 -0.239892 -0.681003 -1.000000 -0.000000 0.000000 0.891559 0.376054 231 187 123
-0.011192 -0.239891 -0.384007 -1.000000 -0.000000 0.000000 0.900738 0.569738 231 187 123
-0.011192 -0.168802 -0.296605 -1.000000 -0.000000 0.000000 0.870556 0.626837 231 187 123
0.011192 -0.168802 -0.681003 0.000000 0.000000 -1.000000 0.912191 0.213347 231 187 123
0.011192 -0.239892 -0.681003 0.000000 0.000000 -1.000000 0.912334 0.259805 231 187 123
-0.011192 -0.239892 -0.681003 0.000000 0.000000 -1.000000 0.897705 0.259850 231 187 123
-0.011192 -0.168802 -0.681003 0.000000 0.000000 -1.000000 0.897562 0.213392 231 187 123
0.008973 -0.283551 -0.468290 0.000000 -1.000000 0.000000 0.978560 0.757895 231 187 123
-0.008973 -0.283551 -0.468290 0.000000 -1.000000 0.000000 0.970278 0.758458 231 187 123
-0.008973 -0.283551 -0.670298 0.000000 -1.000000 0.000000 0.955514 0.627401 231 187 123
0.008973 -0.283551 -0.670298 0.000000 -1.000000 0.000000 0.963797 0.626837 231 187 123
0.011192 -0.239891 -0.384007 0.998711 -0.050762 -0.000000 0.765036 0.820738 231 187 123
0.008973 -0.283551 -0.468290 0.998711 -0.050762 -0.000000 0.743932 0.764827 231 187 123
0.008973 -0.283551 -0.670298 0.998711 -0.050762 -0.000000 0.744160 0.632941 231 187 123
0.011192 -0.239892 -0.681003 0.998711 -0.050762 -0.000000 0.765372 0.626837 231 187 123
-0.011192 -0.239892 -0.681003 -0.998711 -0.050761 0.000000 0.978560 0.626837 231 187 123
-0.008973 -0.283551 -0.670298 -0.998711 -0.050761 0.000000 0.999772 0.632941 231 187 123
-0.008973 -0.283551 -0.468290 -0.998711 -0.050761 0.000000 1.000000 0.764827 231 187 123
-0.011192 -0.239891 -0.384007 -0.998711 -0.050761 0.000000 0.978896 0.820738 231 187 123
0.011192 -0.239892 -0.681003 -0.000000 -0.238130 -0.971233 0.912334 0.259805 231 187 123
0.008973 -0.283551 -0.670298 -0.000000 -0.238130 -0.971233 0.910971 0.288342 231 187 123
-0.008973 -0.283551 -0.670298 -0.000000 -0.238130 -0.971233 0.899243 0.288377 231 187 123
-0.011192 -0.239892 -0.681003 -0.000000 -0.238130 -0.971233 0.897705 0.259850 231 187 123
0.047280 -0.009404 1.127439 0.292215 -0.058107 0.954558 0.835166 0.319441 231 187 123
0.047280 0.009405 1.127439 0.292215 0.058107 0.954558 0.823809 0.324145 231 187 123
0.028878 0.005744 1.131922 0.172948 0.034394 0.984313 0.821417 0.312119 231 187 123
0.028878 -0.005744 1.131922 0.172948 -0.034394 0.984313 0.828353 0.309246 231 187 123
0.166471 -0.033113 0.942743 0.977294 -0.194372 0.084048 0.374090 0.093007 231 187 123
0.168802 -0.033576 0.883821 0.980560 -0.195044 0.020081 0.375448 0.131511 231 187 123
0.168802 0.033577 0.883821 0.980560 0.195044 0.020081 0.344418 0.132941 231 187 123
0.166471 0.033114 0.942743 0.977294 0.194372 0.084048 0.343489 0.094416 231 187 123
0.168802 0.033577 -0.296605 0.980773 0.195074 0.000000 0.345753 0.903611 231 187 123
0.143104 0.095619 -0.296606 0.831446 0.555559 0.000000 0.305209 0.904425 231 187 123
0.143103 0.095619 0.883821 0.831294 0.555437 0.020081 0.303874 0.133755 231 187 123
0.040082 0.026782 1.127439 0.247719 0.165532 0.954558 0.811517 0.324145 231 187 123
0.024482 0.016358 1.131922 0.146611 0.097964 0.984313 0.813909 0.312119 231 187 123
0.141127 0.094299 0.942743 0.828516 0.553606 0.084048 0.303504 0.095220 231 187 123
0.095619 0.143104 -0.296606 0.555559 0.831446 0.000000 0.261322 0.904501 231 187 123
0.095618 0.143104 0.883821 0.555437 0.831294 0.020081 0.259988 0.133831 231 187 123
0.026782 0.040082 1.127439 0.165502 0.247719 0.954558 0.800160 0.319441 231 187 123
0.016358 0.024482 1.131922 0.097964 0.146611 0.984313 0.806973 0.309246 231 187 123
0.094298 0.141128 0.942743 0.553575 0.828516 0.084048 0.260224 0.095294 231 187 123
0.168802 0.033577 -0.759970 0.977325 0.194403 -0.083773 0.346276 1.206130 231 187 123
0.143104 0.095619 -0.759970 0.828516 0.553606 -0.083773 0.305732 1.206944 231 187 123
0.143104 0.095619 -0.681003 0.831446 0.555559 0.000000 0.305643 1.155388 231 187 123
0.168802 0.033577 -0.681003 0.980773 0.195074 0.000000 0.346187 1.154574 231 187 123
0.095619 0.143104 -0.759970 0.553606 0.828516 -0.083773 0.261846 1.207020 231 187 123
0.095619 0.143104 -0.681003 0.555559 0.831446 0.000000 0.261757 1.155464 231 187 123
0.033577 0.168802 -0.759970 0.194372 0.977325 -0.083773 0.221299 1.206346 231 187 123
0.033577 0.168802 -0.681003 0.195074 0.980773 0.000000 0.221210 1.154790 231 187 123
0.033577 0.168802 -0.296606 0.195074 0.980773 0.000000 0.220776 0.903827 231 187 123
0.168802 0.011192 -0.296605 -0.000001 1.000000 -0.000000 0.846796 0.626837 231 187 123
0.239891 0.011193 -0.384007 -0.000001 1.000000 -0.000000 0.816752 0.566830 231 187 123
0.239891 0.011193 -0.681003 -0.000001 1.000000 -0.000000 0.825931 0.373146 231 187 123
0.168802 0.011192 -0.681003 -0.000001 1.000000 -0.000000 0.858676 0.376155 231 187 123
0.168802 0.011192 -0.681003 1.000000 0.000000 0.000000 0.176696 0.065070 231 187 123
0.168802 0.033577 -0.681003 0.980773 0.195074 0.000000 0.187041 0.065514 231 187 123
0.168802 0.033577 -0.296605 0.980773 0.195074 0.000000 0.187377 0.316478 231 187 123
0.168802 0.011192 -0.296605 1.000000 0.000000 0.000000 0.177032 0.316033 231 187 123
0.239891 -0.011192 -0.384007 0.887937 0.000001 0.459966 0.974229 0.000000 231 187 123
0.283551 -0.008973 -0.468290 0.887937 0.000001 0.459966 0.959393 0.057891 231 187 123
0.283551 0.008973 -0.468290 0.887937 0.000001 0.459966 0.951111 0.058451 231 187 123
0.239891 0.011193 -0.384007 0.887937 0.000001 0.459966 0.963898 0.000698 231 187 123
0.168802 -0.011192 -0.296605 0.775788 0.000000 0.630994 0.867137 0.877621 231 187 123
0.239891 -0.011192 -0.384007 0.775788 0.000000 0.630994 0.867279 0.924078 231 187 123
0.239891 0.011193 -0.384007 0.775788 0.000000 0.630994 0.852650 0.924123 231 187 123
0.168802 0.011192 -0.296605 0.775788 0.000000 0.630994 0.852508 0.877666 231 187 123
0.168802 -0.011192 -0.681003 0.000001 -1.000000 0.000000 0.894905 0.626837 231 187 123
0.239891 -0.011192 -0.681003 0.000001 -1.000000 0.000000 0.927754 0.628337 231 187 123
0.239891 -0.011192 -0.384007 0.000001 -1.000000 0.000000 0.927495 0.822238 231 187 123
0.168802 -0.011192 -0.296605 0.000001 -1.000000 0.000000 0.894570 0.877801 231 187 123
0.168802 0.011192 -0.681003 0.000000 0.000000 -1.000000 0.897562 0.373101 231 187 123
0.239891 0.011193 -0.681003 0.000000 0.000000 -1.000000 0.897705 0.326643 231 187 123
0.239891 -0.011192 -0.681003 0.000000 0.000000 -1.000000 0.912334 0.326688 231 187 123
0.168802 -0.011192 -0.681003 0.000000 0.000000 -1.000000 0.912191 0.373146 231 187 123
0.283551 0.008973 -0.468290 1.000000 0.000002 -0.000000 0.951111 0.058451 231 187 123
0.283551 -0.008973 -0.468290 1.000000 0.000002 -0.000000 0.959393 0.057891 231 187 123
0.283551 -0.008973 -0.670299 1.000000 0.000002 -0.000000 0.974105 0.188954 231 187 123
0.283551 0.008973 -0.670299 1.000000 0.000002 -0.000000 0.965823 0.189514 231 187 123
0.239891 0.011193 -0.384007 0.050761 0.998711 -0.000000 0.816752 0.566830 231 187 123
0.283551 0.008973 -0.468290 0.050761 0.998711 -0.000000 0.798220 0.510014 231 187 123
0.283551 0.008973 -0.670299 0.050761 0.998711 -0.000000 0.804463 0.378275 231 187 123
0.239891 0.011193 -0.681003 0.050761 0.998711 -0.000000 0.825931 0.373146 231 187 123
0.239891 -0.011192 -0.681003 0.050761 -0.998711 0.000000 0.955465 0.820521 231 187 123
0.283551 -0.008973 -0.670299 0.050761 -0.998711 0.000000 0.933998 0.815392 231 187 123
0.283551 -0.008973 -0.468290 0.050761 -0.998711 0.000000 0.927754 0.683653 231 187 123
0.239891 -0.011192 -0.384007 0.050761 -0.998711 0.000000 0.946286 0.626837 231 187 123
0.239891 0.011193 -0.681003 0.238128 0.000000 -0.971234 0.897705 0.326643 231 187 123
0.283551 0.008973 -0.670299 0.238128 0.000000 -0.971234 0.899243 0.298116 231 187 123
0.283551 -0.008973 -0.670299 0.238128 0.000000 -0.971234 0.910971 0.298152 231 187 123
0.239891 -0.011192 -0.681003 0.238128 0.000000 -0.971234 0.912334 0.326688 231 187 123
0.009404 0.047280 1.127439 0.058107 0.292215 0.954558 0.791469 0.310749 231 187 123
-0.009405 0.047280 1.127439 -0.058107 0.292215 0.954558 0.786765 0.299392 231 187 123
-0.005744 0.028878 1.131922 -0.034394 0.172948 0.984313 0.798791 0.297000 231 187 123
0.005744 0.028878 1.131922 0.034394 0.172948 0.984313 0.801664 0.303937 231 187 123
0.033113 0.166471 0.942743 0.194372 0.977294 0.084048 0.561146 0.093017 231 187 123
0.033576 0.168802 0.883821 0.195044 0.980560 0.020081 0.562489 0.131522 231 187 123
-0.033577 0.168802 0.883821 -0.195044 0.980560 0.020081 0.531459 0.132939 231 187 123
-0.033114 0.166471 0.942743 -0.194372 0.977294 0.084048 0.530545 0.094414 231 187 123
-0.033577 0.168802 -0.296606 -0.195074 0.980773 0.000000 0.532489 0.903609 231 187 123
-0.095619 0.143103 -0.296606 -0.555559 0.831446 0.000000 0.491944 0.904408 231 187 123
-0.095619 0.143103 0.883821 -0.555437 0.831294 0.020081 0.490915 0.133737 231 187 123
-0.026782 0.040082 1.127439 -0.165532 0.247719 0.954558 0.786765 0.287100 231 187 123
-0.016358 0.024482 1.131922 -0.097964 0.146611 0.984313 0.798791 0.289493 231 187 123
-0.094299 0.141127 0.942743 -0.553606 0.828516 0.084048 0.490560 0.095201 231 187 123
-0.143104 0.095619 -0.296606 -0.831446 0.555559 0.000000 0.448058 0.904466 231 187 123
-0.143104 0.095618 0.883821 -0.831294 0.555437 0.020081 0.447028 0.133796 231 187 123
-0.040082 0.026782 1.127439 -0.247719 0.165532 0.954558 0.791469 0.275744 231 187 123
-0.024482 0.016358 1.131922 -0.146611 0.097964 0.984313 0.801664 0.282556 231 187 123
-0.141128 0.094298 0.942743 -0.828516 0.553575 0.084048 0.447280 0.095259 231 187 123
-0.168802 0.033576 -0.296606 -0.980773 0.195074 0.000000 0.407512 0.903776 231 187 123
-0.168802 0.033576 0.883821 -0.980560 0.195044 0.020081 0.406482 0.133106 231 187 123
-0.033577 0.168802 -0.759970 -0.194403 0.977325 -0.083773 0.532893 1.206128 231 187 123
-0.095619 0.143103 -0.759970 -0.553606 0.828516 -0.083773 0.492349 1.206927 231 187 123
-0.095619 0.143103 -0.681003 -0.555559 0.831446 0.000000 0.492280 1.155371 231 187 123
-0.033577 0.168802 -0.681003 -0.195074 0.980773 0.000000 0.532824 1.154572 231 187 123
-0.143104 0.095618 -0.759970 -0.828547 0.553606 -0.083773 0.448463 1.206985 231 187 123
-0.143104 0.095619 -0.681003 -0.831446 0.555559 0.000000 0.448394 1.155429 231 187 123
-0.168802 0.033576 -0.759970 -0.977325 0.194372 -0.083773 0.407916 1.206295 231 187 123
-0.168802 0.033576 -0.681003 -0.980773 0.195074 0.000000 0.407847 1.154739 231 187 123
-0.011193 0.168802 -0.296606 -1.000000 -0.000002 -0.000000 0.798654 0.626837 231 187 123
-0.011193 0.239891 -0.384007 -1.000000 -0.000002 -0.000000 0.831404 0.685413 231 187 123
-0.011193 0.239891 -0.681003 -1.000000 -0.000002 -0.000000 0.831068 0.879313 231 187 123
-0.011193 0.168802 -0.681003 -1.000000 -0.000002 -0.000000 0.798220 0.877801 231 187 123
-0.011193 0.168802 -0.681003 0.000000 1.000000 0.000000 0.200521 1.153909 231 187 123
-0.033577 0.168802 -0.681003 -0.195074 0.980773 0.000000 0.190176 1.153469 231 187 123
-0.033577 0.168802 -0.296606 -0.195074 0.980773 0.000000 0.189741 0.902506 231 187 123
-0.011193 0.168802 -0.296606 0.000000 1.000000 0.000000 0.200086 0.902946 231 187 123
0.011192 0.239891 -0.384007 -0.000001 0.887937 0.459965 0.980135 0.243636 231 187 123
0.008973 0.283551 -0.468290 -0.000001 0.887937 0.459965 0.965322 0.301533 231 187 123
-0.008974 0.283551 -0.468290 -0.000001 0.887937 0.459965 0.957040 0.302096 231 187 123
-0.011193 0.239891 -0.384007 -0.000001 0.887937 0.459965 0.969805 0.244339 231 187 123
0.011192 0.168802 -0.296606 -0.000001 0.775787 0.630994 0.909483 0.924303 231 187 123
0.011192 0.239891 -0.384007 -0.000001 0.775787 0.630994 0.909341 0.877846 231 187 123
-0.011193 0.239891 -0.384007 -0.000001 0.775787 0.630994 0.923969 0.877801 231 187 123
-0.011193 0.168802 -0.296606 -0.000001 0.775787 0.630994 0.924112 0.924259 231 187 123
0.011192 0.168802 -0.681003 1.000000 0.000001 0.000000 0.894570 0.877520 231 187 123
0.011192 0.239891 -0.681003 1.000000 0.000001 0.000000 0.861687 0.877621 231 187 123
0.011192 0.239891 -0.384007 1.000000 0.000001 0.000000 0.852508 0.683937 231 187 123
0.011192 0.168802 -0.296606 1.000000 0.000001 0.000000 0.882690 0.626837 231 187 123
-0.011193 0.168802 -0.681003 -0.000000 0.000000 -1.000000 0.927105 0.298160 231 187 123
-0.011193 0.239891 -0.681003 -0.000000 0.000000 -1.000000 0.926962 0.344618 231 187 123
0.011192 0.239891 -0.681003 -0.000000 0.000000 -1.000000 0.912334 0.344573 231 187 123
0.011192 0.168802 -0.681003 -0.000000 0.000000 -1.000000 0.912476 0.298116 231 187 123
-0.008974 0.283551 -0.468290 -0.000001 1.000000 -0.000000 0.957040 0.302096 231 187 123
0.008973 0.283551 -0.468290 -0.000001 1.000000 -0.000000 0.965322 0.301533 231 187 123
0.008973 0.283551 -0.670299 -0.000001 1.000000 -0.000000 0.980086 0.432591 231 187 123
-0.008974 0.283551 -0.670299 -0.000001 1.000000 -0.000000 0.971804 0.433154 231 187 123
-0.011193 0.239891 -0.384007 -0.998711 0.050760 -0.000000 0.831404 0.685413 231 187 123
-0.008974 0.283551 -0.468290 -0.998711 0.050760 -0.000000 0.852508 0.741324 231 187 123
-0.008974 0.283551 -0.670299 -0.998711 0.050760 -0.000000 0.852280 0.873210 231 187 123
-0.011193 0.239891 -0.681003 -0.998711 0.050760 -0.000000 0.831068 0.879313 231 187 123
0.011192 0.239891 -0.681003 0.998711 0.050763 0.000000 0.995669 0.193901 231 187 123
0.008973 0.283551 -0.670299 0.998711 0.050763 0.000000 0.974457 0.187798 231 187 123
0.008973 0.283551 -0.468290 0.998711 0.050763 0.000000 0.974229 0.055911 231 187 123
0.011192 0.239891 -0.384007 0.998711 0.050763 0.000000 0.995333 0.000000 231 187 123
-0.011193 0.239891 -0.681003 0.000000 0.238125 -0.971234 0.926962 0.344618 231 187 123
-0.008974 0.283551 -0.670299 0.000000 0.238125 -0.971234 0.925424 0.373146 231 187 123
0.008973 0.283551 -0.670299 0.000000 0.238125 -0.971234 0.913696 0.373110 231 187 123
0.011192 0.239891 -0.681003 0.000000 0.238125 -0.971234 0.912334 0.344573 231 187 123
-0.047280 0.009405 1.127439 -0.292215 0.058107 0.954558 0.800161 0.267052 231 187 123
-0.047280 -0.009405 1.127439 -0.292215 -0.058107 0.954558 0.811517 0.262348 231 187 123
-0.028878 -0.005744 1.131922 -0.172948 -0.034394 0.984313 0.813909 0.274374 231 187 123
-0.028878 0.005744 1.131922 -0.172948 0.034394 0.984313 0.806973 0.277247 231 187 123
-0.168802 -0.033577 -0.296605 -0.980773 -0.195074 0.000000 0.580338 0.316582 231 187 123
-0.143103 -0.095619 -0.296605 -0.831446 -0.555559 0.000000 0.620865 0.315146 231 187 123
-0.143103 -0.095619 0.883821 -0.831294 -0.555437 0.020081 0.634020 1.085705 231 187 123
-0.168802 -0.033577 0.883821 -0.980560 -0.195044 0.020081 0.593494 1.087141 231 187 123
-0.040082 -0.026782 1.127439 -0.247719 -0.165532 0.954558 0.823809 0.262348 231 187 123
-0.024482 -0.016358 1.131922 -0.146611 -0.097964 0.984313 0.821417 0.274374 231 187 123
-0.166471 -0.033114 0.942743 -0.977294 -0.194403 0.084048 0.595014 1.125646 231 187 123
-0.141127 -0.094299 0.942743 -0.828516 -0.553606 0.084048 0.634981 1.124230 231 187 123
-0.095618 -0.143104 -0.296605 -0.555559 -0.831446 0.000000 0.664745 0.314397 231 187 123
-0.095618 -0.143104 0.883821 -0.555437 -0.831294 0.020081 0.677900 1.084955 231 187 123
-0.026782 -0.040082 1.127439 -0.165532 -0.247719 0.954558 0.835166 0.267052 231 187 123
-0.016358 -0.024482 1.131922 -0.097964 -0.146611 0.984313 0.828353 0.277247 231 187 123
-0.094298 -0.141128 0.942743 -0.553575 -0.828516 0.084048 0.678255 1.123491 231 187 123
-0.033576 -0.168802 -0.296605 -0.195074 -0.980773 0.000000 0.705297 0.314449 231 187 123
-0.033576 -0.168802 0.883821 -0.195044 -0.980560 0.020081 0.718452 1.085008 231 187 123
-0.009404 -0.047280 1.127439 -0.058107 -0.292215 0.954558 0.843857 0.275744 231 187 123
-0.005744 -0.028878 1.131922 -0.034394 -0.172948 0.984313 0.833662 0.282556 231 187 123
-0.033113 -0.166471 0.942743 -0.194372 -0.977294 0.084048 0.718247 1.123543 231 187 123
-0.168802 -0.033577 -0.759970 -0.977325 -0.194403 -0.083773 0.575174 0.014107 231 187 123
-0.143103 -0.095619 -0.759970 -0.828516 -0.553606 -0.083773 0.615701 0.012671 231 187 123
-0.143103 -0.095619 -0.681003 -0.831446 -0.555559 0.000000 0.616581 0.064219 231 187 123
-0.168802 -0.033577 -0.681003 -0.980773 -0.195074 0.000000 0.576054 0.065655 231 187 123
-0.095618 -0.143104 -0.759970 -0.553606 -0.828547 -0.083773 0.659581 0.011921 231 187 123
-0.095618 -0.143104 -0.681003 -0.555559 -0.831446 0.000000 0.660461 0.063470 231 187 123
-0.033576 -0.168802 -0.759970 -0.194372 -0.977325 -0.083773 0.700133 0.011974 231 187 123
-0.033576 -0.168802 -0.681003 -0.195074 -0.980773 0.000000 0.701013 0.063522 231 187 123
-0.168802 -0.011193 -0.296605 0.000002 -1.000000 0.000000 0.749644 0.373146 231 187 123
-0.239891 -0.011193 -0.384007 0.000002 -1.000000 0.000000 0.779688 0.433154 231 187 123
-0.239891 -0.011193 -0.681003 0.000002 -1.000000 0.000000 0.770509 0.626837 231 187 123
-0.168802 -0.011193 -0.681003 0.000002 -1.000000 0.000000 0.737764 0.623828 231 187 123
-0.168802 -0.011193 -0.681003 -1.000000 0.000000 0.000000 0.387158 1.153850 231 187 123
-0.168802 -0.033577 -0.681003 -0.980773 -0.195074 0.000000 0.376813 1.153406 231 187 123
-0.168802 -0.033577 -0.296605 -0.980773 -0.195074 0.000000 0.376478 0.902442 231 187 123
-0.168802 -0.011193 -0.296605 -1.000000 0.000000 0.000000 0.386823 0.902887 231 187 123
-0.239891 0.011192 -0.384007 -0.887936 -0.000002 0.459966 0.933922 0.433154 231 187 123
-0.283551 0.008973 -0.468290 -0.887936 -0.000002 0.459966 0.948758 0.375263 231 187 123
-0.283551 -0.008974 -0.468290 -0.887936 -0.000002 0.459966 0.957040 0.374703 231 187 123
-0.239891 -0.011193 -0.384007 -0.887936 -0.000002 0.459966 0.944253 0.432455 231 187 123
-0.168802 0.011192 -0.296605 -0.775788 -0.000001 0.630994 0.894712 0.924303 231 187 123
-0.239891 0.011192 -0.384007 -0.775788 -0.000001 0.630994 0.894570 0.877846 231 187 123
-0.239891 -0.011193 -0.384007 -0.775788 -0.000001 0.630994 0.909198 0.877801 231 187 123
-0.168802 -0.011193 -0.296605 -0.775788 -0.000001 0.630994 0.909341 0.924259 231 187 123
-0.168802 0.011192 -0.681003 -0.000002 1.000000 -0.000000 0.933587 0.626837 231 187 123
-0.239891 0.011192 -0.681003 -0.000002 1.000000 -0.000000 0.900738 0.625338 231 187 123
-0.239891 0.011192 -0.384007 -0.000002 1.000000 -0.000000 0.900997 0.431437 231 187 123
-0.168802 0.011192 -0.296605 -0.000002 1.000000 -0.000000 0.933922 0.375874 231 187 123
-0.168802 -0.011193 -0.681003 0.000000 -0.000000 -1.000000 0.927105 0.213392 231 187 123
-0.239891 -0.011193 -0.681003 0.000000 -0.000000 -1.000000 0.926962 0.259850 231 187 123
-0.239891 0.011192 -0.681003 0.000000 -0.000000 -1.000000 0.912334 0.259805 231 187 123
-0.168802 0.011192 -0.681003 0.000000 -0.000000 -1.000000 0.912476 0.213347 231 187 123
-0.283551 -0.008974 -0.468290 -1.000000 -0.000002 0.000000 0.957040 0.374703 231 187 123
-0.283551 0.008973 -0.468290 -1.000000 -0.000002 0.000000 0.948758 0.375263 231 187 123
-0.283551 0.008973 -0.670298 -1.000000 -0.000002 0.000000 0.934046 0.244200 231 187 123
-0.283551 -0.008974 -0.670298 -1.000000 -0.000002 0.000000 0.942328 0.243640 231 187 123
-0.239891 -0.011193 -0.384007 -0.050759 -0.998711 0.000000 0.779688 0.433154 231 187 123
-0.283551 -0.008974 -0.468290 -0.050759 -0.998711 0.000000 0.798220 0.489969 231 187 123
-0.283551 -0.008974 -0.670298 -0.050759 -0.998711 0.000000 0.791976 0.621708 231 187 123
-0.239891 -0.011193 -0.681003 -0.050759 -0.998711 0.000000 0.770509 0.626837 231 187 123
-0.239891 0.011192 -0.681003 -0.050764 0.998711 -0.000000 0.933922 0.433154 231 187 123
-0.283551 0.008973 -0.670298 -0.050764 0.998711 -0.000000 0.955390 0.438283 231 187 123
-0.283551 0.008973 -0.468290 -0.050764 0.998711 -0.000000 0.961633 0.570022 231 187 123
-0.239891 0.011192 -0.384007 -0.050764 0.998711 -0.000000 0.943101 0.626837 231 187 123
-0.239891 -0.011193 -0.681003 -0.238130 -0.000000 -0.971233 0.926962 0.259850 231 187 123
-0.283551 -0.008974 -0.670298 -0.238130 -0.000000 -0.971233 0.925425 0.288377 231 187 123
-0.283551 0.008973 -0.670298 -0.238130 -0.000000 -0.971233 0.913696 0.288341 231 187 123
-0.239891 0.011192 -0.681003 -0.238130 -0.000000 -0.971233 0.912334 0.259805 231 187 123
0.166734 0.033166 -0.772290 0.925047 0.183996 -0.332194 0.345525 1.214123 231 187 123
0.141350 0.094447 -0.772290 0.784234 0.524003 -0.332224 0.305477 1.214928 231 187 123
-0.166471 0.033113 0.942743 -0.977294 0.194372 0.084048 0.564438 1.127525 231 187 123
-0.168802 0.033576 0.883821 -0.980560 0.195044 0.020081 0.562489 1.089046 231 187 123
0.000000 0.000000 1.134995 0.000000 0.000000 1.000000 0.817663 0.293247 231 187 123
-0.168802 -0.033577 0.883821 -0.980560 -0.195044 0.020081 0.375448 0.131772 231 187 123
-0.168802 0.011192 -0.296605 -1.000000 0.000000 0.000000 0.397167 0.903331 231 187 123
0.141350 -0.094447 -0.772290 0.784234 -0.524003 -0.332194 0.115112 0.003952 231 187 123
0.166734 -0.033165 -0.772290 0.925077 -0.183996 -0.332224 0.155162 0.004633 231 187 123
-0.094448 0.141350 -0.772290 -0.524003 0.784234 -0.332194 0.492091 1.214910 231 187 123
-0.141351 0.094447 -0.772290 -0.784234 0.524003 -0.332224 0.448742 1.214968 231 187 123
0.033577 -0.168802 -0.759970 0.194403 -0.977325 -0.083773 0.731184 0.012819 231 187 123
-0.033165 -0.166734 -0.772290 -0.183996 -0.925077 -0.332224 0.699231 0.003996 231 187 123
0.033166 -0.166734 -0.772290 0.183996 -0.925047 -0.332224 0.729902 0.004830 231 187 123
-0.168802 0.011192 -0.681003 -1.000000 0.000000 0.000000 0.397503 1.154295 231 187 123
-0.168802 -0.033577 -0.759970 -0.977325 -0.194403 -0.083773 0.376882 1.204961 231 187 123
-0.033166 0.166734 -0.772290 -0.183996 0.925047 -0.332194 0.532138 1.214122 231 187 123
-0.033113 -0.166471 0.942743 -0.194372 -0.977294 0.084048 0.002709 1.125903 231 187 123
-0.033576 -0.168802 0.883821 -0.195044 -0.980560 0.020081 0.001366 1.087398 231 187 123
-0.033576 -0.168802 -0.296605 -0.195074 -0.980773 0.000000 0.000336 0.316728 231 187 123
-0.011192 -0.168802 -0.296605 0.000000 -1.000000 0.000000 0.010679 0.316255 231 187 123
0.011192 -0.168802 -0.296605 0.000000 -1.000000 0.000000 0.021022 0.315783 231 187 123
-0.094447 -0.141351 -0.772290 -0.524003 -0.784234 -0.332224 0.659176 0.003944 231 187 123
-0.166734 0.033165 -0.772290 -0.925077 0.183996 -0.332224 0.408692 1.214287 231 187 123
-0.166734 -0.033166 -0.772290 -0.925047 -0.183996 -0.332224 0.378039 1.212969 231 187 123
0.168802 -0.033576 0.883821 0.980560 -0.195044 0.020081 0.157373 1.085814 231 187 123
-0.033577 0.168802 -0.759970 -0.194403 0.977325 -0.083773 0.190265 1.205024 231 187 123
0.033165 0.166734 -0.772290 0.183996 0.925077 -0.332194 0.222079 1.214337 231 187 123
-0.033166 0.166734 -0.772290 -0.183996 0.925047 -0.332194 0.191425 1.213032 231 187 123
0.166471 -0.033113 0.942743 0.977294 -0.194372 0.084048 0.156562 1.124341 231 187 123
-0.011192 -0.168802 -0.681003 0.000000 -1.000000 0.000000 0.711363 0.063804 231 187 123
-0.033576 -0.168802 -0.681003 -0.195074 -0.980773 0.000000 0.000000 0.065764 231 187 123
-0.011192 -0.168802 -0.681003 0.000000 -1.000000 0.000000 0.010343 0.065292 231 187 123
0.094447 0.141350 -0.772290 0.524003 0.784234 -0.332194 0.262129 1.215003 231 187 123
0.168802 0.033577 0.883821 0.980560 0.195044 0.020081 0.188407 1.087148 231 187 123
0.168802 -0.011192 -0.296605 1.000000 0.000000 0.000000 0.166687 0.315589 231 187 123
-0.141350 -0.094448 -0.772290 -0.784234 -0.524003 -0.332224 0.615834 0.004684 231 187 123
0.094447 -0.141350 -0.772290 0.524003 -0.784234 -0.332194 0.071764 0.004010 231 187 123
0.033576 0.168802 0.883821 0.195044 0.980560 0.020081 0.219441 0.133157 231 187 123
0.033113 0.166471 0.942743 0.194372 0.977294 0.084048 0.220238 0.094629 231 187 123
0.168802 0.033577 -0.759970 0.977325 0.194403 -0.083773 0.186972 0.013959 231 187 123
0.168802 -0.011192 -0.681003 1.000000 0.000000 0.000000 0.166352 0.064625 231 187 123
-0.166734 -0.033166 -0.772290 -0.925047 -0.183996 -0.332224 0.575803 0.006103 231 187 123
0.011192 0.168802 -0.296606 0.000000 1.000000 0.000000 0.210431 0.903387 231 187 123
-0.033577 0.168802 0.883821 -0.195044 0.980560 0.020081 0.188407 0.131835 231 187 123
0.033166 -0.166734 -0.772290 0.183996 -0.925047 -0.332224 0.031716 0.004798 231 187 123
0.166734 0.033166 -0.772290 0.925047 0.183996 -0.332194 0.185816 0.005951 231 187 123
-0.166471 0.033113 0.942743 -0.977294 0.194372 0.084048 0.407293 0.094579 231 187 123
0.011192 0.168802 -0.681003 0.000000 1.000000 0.000000 0.210865 1.154350 231 187 123
0.032469 -0.163230 -0.778499 0.155370 -0.781152 -0.604663 0.033008 0.000829 231 187 123
0.092462 -0.138380 -0.778499 0.442488 -0.662221 -0.604663 0.072214 0.000057 231 187 123
0.092462 0.138380 -0.778499 0.442488 0.662221 -0.604663 0.262591 1.218954 231 187 123
0.032468 0.163230 -0.778499 0.155370 0.781152 -0.604663 0.223383 1.218303 231 187 123
-0.092462 -0.138380 -0.778499 -0.442488 -0.662221 -0.604663 0.658653 0.000000 231 187 123
-0.032468 -0.163230 -0.778499 -0.155370 -0.781152 -0.604663 0.697867 0.000050 231 187 123
0.163230 -0.032468 -0.778499 0.781152 -0.155370 -0.604663 0.153859 0.000667 231 187 123
0.163230 0.032469 -0.778499 0.781152 0.155370 -0.604663 0.183869 0.001957 231 187 123
0.138380 0.092462 -0.778499 0.662221 0.442488 -0.604663 0.305029 1.218881 231 187 123
-0.138379 -0.092463 -0.778499 -0.662221 -0.442488 -0.604663 0.616222 0.000724 231 187 123
-0.032469 0.163230 -0.778499 -0.155370 0.781152 -0.604663 0.193373 1.217025 231 187 123
0.163230 0.032469 -0.778499 0.781152 0.155370 -0.604663 0.344234 1.218093 231 187 123
-0.163230 -0.032469 -0.778499 -0.781152 -0.155370 -0.604663 0.577033 0.002113 231 187 123
-0.138380 0.092462 -0.778499 -0.662221 0.442488 -0.604663 0.449203 1.218920 231 187 123
-0.163230 0.032468 -0.778499 -0.781152 0.155370 -0.604663 0.409995 1.218253 231 187 123
-0.163230 -0.032469 -0.778499 -0.781152 -0.155370 -0.604663 0.379985 1.216963 231 187 123
0.138380 -0.092462 -0.778499 0.662221 -0.442488 -0.604663 0.114651 0.000000 231 187 123
-0.092463 0.138379 -0.778499 -0.442488 0.662221 -0.604663 0.491640 1.218863 231 187 123
0.032469 -0.163230 -0.778499 0.155370 -0.781152 -0.604663 0.727893 0.000868 231 187 123
-0.032469 0.163230 -0.778499 -0.155370 0.781152 -0.604663 0.530846 1.218091 231 187 123
0.092462 0.138380 -0.778499 0.442488 0.662221 -0.604663 0.823218 0.000000 231 187 123
0.138380 0.092462 -0.778499 0.662221 0.442488 -0.604663 0.865656 0.000000 231 187 123
0.135132 0.090293 -0.782314 0.434980 0.290628 -0.852199 0.865158 0.002503 231 187 123
0.090292 0.135133 -0.782314 0.290658 0.434980 -0.852199 0.823716 0.002503 231 187 123
-0.092462 -0.138380 -0.778499 -0.442488 -0.662221 -0.604663 0.865656 0.213347 231 187 123
-0.138379 -0.092463 -0.778499 -0.662221 -0.442488 -0.604663 0.823219 0.213347 231 187 123
-0.135132 -0.090293 -0.782314 -0.434980 -0.290658 -0.852199 0.823717 0.210844 231 187 123
-0.090292 -0.135133 -0.782314 -0.290628 -0.434980 -0.852199 0.865158 0.210844 231 187 123
-0.032469 0.163230 -0.778499 -0.155370 0.781152 -0.604663 0.754004 0.046248 231 187 123
0.032468 0.163230 -0.778499 0.155370 0.781152 -0.604663 0.784011 0.016240 231 187 123
0.031706 0.159400 -0.782314 0.102054 0.513108 -0.852199 0.785429 0.018362 231 187 123
-0.031707 0.159400 -0.782314 -0.102054 0.513108 -0.852199 0.756126 0.047666 231 187 123
0.163230 0.032469 -0.778499 0.781152 0.155370 -0.604663 0.904863 0.016240 231 187 123
0.159400 0.031707 -0.782314 0.513108 0.102054 -0.852199 0.903445 0.018362 231 187 123
-0.163230 -0.032469 -0.778499 -0.781152 -0.155370 -0.604663 0.784012 0.197107 231 187 123
-0.159400 -0.031707 -0.782314 -0.513108 -0.102054 -0.852199 0.785430 0.194985 231 187 123
-0.163230 0.032468 -0.778499 -0.781152 0.155370 -0.604663 0.754004 0.167099 231 187 123
-0.138380 0.092462 -0.778499 -0.662221 0.442488 -0.604663 0.737764 0.127892 231 187 123
-0.135133 0.090292 -0.782314 -0.434980 0.290628 -0.852199 0.740267 0.127394 231 187 123
-0.159400 0.031706 -0.782314 -0.513108 0.102054 -0.852199 0.756126 0.165681 231 187 123
0.163230 -0.032468 -0.778499 0.781152 -0.155370 -0.604663 0.934871 0.046248 231 187 123
0.138380 -0.092462 -0.778499 0.662221 -0.442488 -0.604663 0.951111 0.085455 231 187 123
0.135133 -0.090293 -0.782314 0.434980 -0.290628 -0.852199 0.948608 0.085953 231 187 123
0.159400 -0.031706 -0.782314 0.513108 -0.102054 -0.852199 0.932748 0.047666 231 187 123
-0.092463 0.138379 -0.778499 -0.442488 0.662221 -0.604663 0.737764 0.085455 231 187 123
-0.090293 0.135132 -0.782314 -0.290658 0.434980 -0.852199 0.740267 0.085953 231 187 123
0.032469 -0.163230 -0.778499 0.155370 -0.781152 -0.604663 0.934871 0.167099 231 187 123
-0.032468 -0.163230 -0.778499 -0.155370 -0.781152 -0.604663 0.904863 0.197107 231 187 123
-0.031706 -0.159400 -0.782314 -0.102054 -0.513108 -0.852199 0.903445 0.194985 231 187 123
0.031707 -0.159400 -0.782314 0.102054 -0.513108 -0.852199 0.932749 0.165681 231 187 123
0.092462 -0.138380 -0.778499 0.442488 -0.662221 -0.604663 0.951111 0.127892 231 187 123
0.090293 -0.135133 -0.782314 0.290658 -0.434980 -0.852199 0.948608 0.127394 231 187 123
0.144231 0.028689 -0.786684 0.151006 0.030030 -0.988067 0.897830 0.026766 231 187 123
0.122273 0.081700 -0.786684 0.128025 0.085543 -0.988067 0.863186 0.012416 231 187 123
-0.144231 -0.028690 -0.786684 -0.151006 -0.030030 -0.988067 0.791045 0.186581 231 187 123
-0.122273 -0.081701 -0.786684 -0.128025 -0.085543 -0.988067 0.825688 0.200931 231 187 123
-0.122273 0.081700 -0.786684 -0.128025 0.085543 -0.988067 0.750180 0.125423 231 187 123
-0.144231 0.028689 -0.786684 -0.151006 0.030030 -0.988067 0.764530 0.160066 231 187 123
0.122273 -0.081700 -0.786684 0.128025 -0.085543 -0.988067 0.938694 0.087925 231 187 123
0.144231 -0.028689 -0.786684 0.151006 -0.030030 -0.988067 0.924345 0.053281 231 187 123
-0.081700 0.122273 -0.786684 -0.085543 0.128025 -0.988067 0.750180 0.087925 231 187 123
-0.028689 -0.144231 -0.786684 -0.030030 -0.151006 -0.988067 0.897830 0.186581 231 187 123
0.028689 -0.144231 -0.786684 0.030030 -0.151006 -0.988067 0.924345 0.160066 231 187 123
0.081700 -0.122273 -0.786684 0.085543 -0.128025 -0.988067 0.938695 0.125422 231 187 123
-0.028690 0.144231 -0.786684 -0.030030 0.151006 -0.988067 0.764530 0.053281 231 187 123
0.081700 0.122273 -0.786684 0.085543 0.128025 -0.988067 0.825688 0.012416 231 187 123
0.028689 0.144231 -0.786684 0.030030 0.151006 -0.988067 0.791045 0.026766 231 187 123
-0.081700 -0.122273 -0.786684 -0.085543 -0.128025 -0.988067 0.863186 0.200931 231 187 123
0.000000 -0.000000 -0.786684 0.000000 0.000000 -0.999969 0.844437 0.106674 231 187 123
0.031623 -0.158979 1.001665 0.190161 -0.956114 0.222877 0.036135 1.163155 231 187 123
0.090055 -0.134776 1.001665 0.541581 -0.810541 0.222877 0.074321 1.162403 231 187 123
0.134777 -0.090054 1.001665 0.810541 -0.541581 0.222877 0.115653 1.162348 231 187 123
0.158980 -0.031623 1.001665 0.956114 -0.190161 0.222846 0.369873 0.054423 231 187 123
0.158980 0.031624 1.001665 0.956114 0.190161 0.222846 0.340648 0.055769 231 187 123
0.134776 0.090055 1.001665 0.810541 0.541581 0.222846 0.302464 0.056536 231 187 123
0.090054 0.134777 1.001665 0.541581 0.810541 0.222846 0.261131 0.056607 231 187 123
0.031623 0.158980 1.001665 0.190161 0.956114 0.222846 0.556944 0.054431 231 187 123
-0.031623 0.158980 1.001665 -0.190161 0.956114 0.222846 0.527720 0.055765 231 187 123
-0.090055 0.134776 1.001665 -0.541581 0.810541 0.222846 0.489534 0.056517 231 187 123
-0.134777 0.090054 1.001665 -0.810541 0.541581 0.222846 0.448202 0.056573 231 187 123
-0.158980 -0.031623 1.001665 -0.956114 -0.190161 0.222846 0.598447 1.164246 231 187 123
-0.134776 -0.090055 1.001665 -0.810541 -0.541581 0.222846 0.636615 1.162893 231 187 123
-0.090054 -0.134777 1.001665 -0.541581 -0.810541 0.222846 0.677942 1.162188 231 187 123
-0.031622 -0.158980 1.001665 -0.190161 -0.956114 0.222846 0.716134 1.162236 231 187 123
-0.158980 0.031623 1.001665 -0.956114 0.190161 0.222846 0.569247 1.166040 231 187 123
-0.031622 -0.158980 1.001665 -0.190161 -0.956114 0.222846 0.006911 1.164489 231 187 123
0.158980 -0.031623 1.001665 0.956114 -0.190161 0.222846 0.153840 1.162997 231 187 123
0.031623 0.158980 1.001665 0.190161 0.956114 0.222846 0.222944 0.055973 231 187 123
-0.158980 0.031623 1.001665 -0.956114 0.190161 0.222846 0.410015 0.055923 231 187 123
0.081761 -0.122364 1.045819 0.506516 -0.758080 0.410749 0.076263 1.191652 231 187 123
0.028711 -0.144338 1.045819 0.177862 -0.894223 0.410749 0.041594 1.192334 231 187 123
0.122364 -0.081761 1.045819 0.758080 -0.506516 0.410749 0.113789 1.191602 231 187 123
0.144338 0.028711 1.045819 0.894223 0.177862 0.410749 0.335178 0.026591 231 187 123
0.144338 -0.028710 1.045819 0.894223 -0.177862 0.410749 0.361710 0.025369 231 187 123
0.122364 0.081761 1.045819 0.758080 0.506516 0.410749 0.300510 0.027288 231 187 123
0.081761 0.122364 1.045819 0.506516 0.758080 0.410749 0.262984 0.027353 231 187 123
-0.028711 0.144338 1.045819 -0.177862 0.894192 0.410749 0.522261 0.026586 231 187 123
0.028710 0.144338 1.045819 0.177862 0.894223 0.410749 0.548794 0.025374 231 187 123
-0.081761 0.122364 1.045819 -0.506516 0.758080 0.410749 0.487592 0.027268 231 187 123
-0.122364 0.081761 1.045819 -0.758080 0.506516 0.410749 0.450066 0.027319 231 187 123
-0.144338 -0.028711 1.045819 -0.894192 -0.177862 0.410749 0.604364 1.193336 231 187 123
-0.144338 0.028710 1.045819 -0.894223 0.177862 0.410749 0.577853 1.194965 231 187 123
-0.122364 -0.081761 1.045819 -0.758080 -0.506516 0.410749 0.639018 1.192108 231 187 123
-0.081760 -0.122364 1.045819 -0.506516 -0.758080 0.410749 0.676538 1.191467 231 187 123
-0.028710 -0.144338 1.045819 -0.177862 -0.894223 0.410749 0.711213 1.191512 231 187 123
-0.028710 -0.144338 1.045819 -0.177862 -0.894223 0.410749 0.015061 1.193546 231 187 123
0.144338 -0.028710 1.045819 0.894223 -0.177862 0.410749 0.148459 1.192192 231 187 123
0.028710 0.144338 1.045819 0.177862 0.894223 0.410749 0.228314 0.026776 231 187 123
-0.144338 0.028710 1.045819 -0.894223 0.177862 0.410749 0.415396 0.026728 231 187 123
0.069255 -0.103647 1.084155 0.435774 -0.652181 0.620228 0.079167 1.217316 231 187 123
0.024319 -0.122260 1.084155 0.153020 -0.769311 0.620228 0.049802 1.217894 231 187 123
0.103648 -0.069255 1.084155 0.652181 -0.435774 0.620228 0.110953 1.217273 231 187 123
0.122261 0.024320 1.084155 0.769311 0.153020 0.620228 0.326961 0.001035 231 187 123
0.122261 -0.024319 1.084155 0.769311 -0.153020 0.620228 0.349435 0.000000 231 187 123
0.103647 0.069256 1.084155 0.652181 0.435774 0.620228 0.297595 0.001625 231 187 123
0.069255 0.103648 1.084155 0.435774 0.652181 0.620228 0.265809 0.001680 231 187 123
-0.024320 0.122261 1.084155 -0.153020 0.769311 0.620228 0.514054 0.001026 231 187 123
0.024319 0.122261 1.084155 0.153020 0.769311 0.620228 0.536528 0.000000 231 187 123
-0.069255 0.103647 1.084155 -0.435774 0.652181 0.620228 0.484688 0.001604 231 187 123
-0.103648 0.069255 1.084155 -0.652181 0.435774 0.620228 0.452902 0.001647 231 187 123
-0.122260 -0.024319 1.084155 -0.769311 -0.153020 0.620228 0.612972 1.218763 231 187 123
-0.122261 0.024319 1.084155 -0.769311 0.153020 0.620228 0.590516 1.220143 231 187 123
-0.103647 -0.069255 1.084155 -0.652181 -0.435774 0.620228 0.642325 1.217723 231 187 123
-0.069255 -0.103648 1.084155 -0.435774 -0.652181 0.620228 0.674107 1.217180 231 187 123
-0.024319 -0.122261 1.084155 -0.153020 -0.769311 0.620228 0.703478 1.217218 231 187 123
0.028711 -0.144338 1.045819 0.177862 -0.894223 0.410749 0.737764 1.192235 231 187 123
0.024319 -0.122260 1.084155 0.153020 -0.769311 0.620228 0.725967 1.217830 231 187 123
0.122261 -0.024319 1.084155 0.769311 -0.153020 0.620228 0.140320 1.217773 231 187 123
0.024319 0.122261 1.084155 0.153020 0.769311 0.620228 0.236442 0.001192 231 187 123
-0.122261 0.024319 1.084155 -0.769311 0.153020 0.620228 0.423535 0.001147 231 187 123
0.024319 -0.122260 1.084155 0.153020 -0.769311 0.620228 0.897562 0.277354 231 187 123
0.069255 -0.103647 1.084155 0.435774 -0.652181 0.620228 0.897562 0.309140 231 187 123
0.058009 -0.086817 1.102666 0.320231 -0.479293 0.817133 0.884588 0.306559 231 187 123
0.020370 -0.102407 1.102666 0.112430 -0.565355 0.817133 0.884588 0.279934 231 187 123
0.103648 -0.069255 1.084155 0.652181 -0.435774 0.620228 0.885398 0.338506 231 187 123
0.086817 -0.058009 1.102666 0.479293 -0.320231 0.817133 0.874399 0.331157 231 187 123
0.122261 -0.024319 1.084155 0.769311 -0.153020 0.620228 0.862922 0.360982 231 187 123
0.122261 0.024320 1.084155 0.769311 0.153020 0.620228 0.833556 0.373146 231 187 123
0.102407 0.020371 1.102666 0.565355 0.112461 0.817133 0.830975 0.360172 231 187 123
0.102408 -0.020370 1.102666 0.565355 -0.112430 0.817133 0.855573 0.349983 231 187 123
0.103647 0.069256 1.084155 0.652181 0.435774 0.620228 0.801770 0.373146 231 187 123
0.086817 0.058010 1.102666 0.479293 0.320231 0.817133 0.804351 0.360171 231 187 123
0.069255 0.103648 1.084155 0.435774 0.652181 0.620228 0.772403 0.360982 231 187 123
0.058009 0.086817 1.102666 0.320231 0.479293 0.817133 0.779753 0.349983 231 187 123
0.024319 0.122261 1.084155 0.153020 0.769311 0.620228 0.749927 0.338506 231 187 123
-0.024320 0.122261 1.084155 -0.153020 0.769311 0.620228 0.737764 0.309139 231 187 123
-0.020370 0.102408 1.102666 -0.112430 0.565355 0.817133 0.750738 0.306559 231 187 123
0.020370 0.102408 1.102666 0.112430 0.565355 0.817133 0.760927 0.331156 231 187 123
-0.069255 0.103647 1.084155 -0.435774 0.652181 0.620228 0.737764 0.277353 231 187 123
-0.058009 0.086817 1.102666 -0.320231 0.479293 0.817133 0.750738 0.279934 231 187 123
-0.103648 0.069255 1.084155 -0.652181 0.435774 0.620228 0.749928 0.247987 231 187 123
-0.086817 0.058009 1.102666 -0.479293 0.320231 0.817133 0.760927 0.255336 231 187 123
-0.122261 0.024319 1.084155 -0.769311 0.153020 0.620228 0.772404 0.225511 231 187 123
-0.122260 -0.024319 1.084155 -0.769311 -0.153020 0.620228 0.801770 0.213347 231 187 123
-0.102407 -0.020370 1.102666 -0.565355 -0.112461 0.817133 0.804351 0.226321 231 187 123
-0.102408 0.020370 1.102666 -0.565355 0.112430 0.817133 0.779753 0.236510 231 187 123
-0.103647 -0.069255 1.084155 -0.652181 -0.435774 0.620228 0.833556 0.213347 231 187 123
-0.086817 -0.058009 1.102666 -0.479293 -0.320231 0.817133 0.830976 0.226322 231 187 123
-0.069255 -0.103648 1.084155 -0.435774 -0.652181 0.620228 0.862923 0.225511 231 187 123
-0.058009 -0.086817 1.102666 -0.320231 -0.479293 0.817133 0.855573 0.236510 231 187 123
-0.024319 -0.122261 1.084155 -0.153020 -0.769311 0.620228 0.885399 0.247987 231 187 123
-0.020370 -0.102407 1.102666 -0.112430 -0.565355 0.817133 0.874399 0.255337 231 187 123
0.040533 -0.060661 1.118234 0.223334 -0.334239 0.915616 0.864426 0.302548 231 187 123
0.014233 -0.071555 1.118234 0.078402 -0.394269 0.915616 0.864426 0.283945 231 187 123
0.060662 -0.040532 1.118234 0.334239 -0.223334 0.915616 0.857306 0.319735 231 187 123
0.071555 0.014234 1.118234 0.394269 0.078402 0.915616 0.826964 0.340009 231 187 123
0.071555 -0.014233 1.118234 0.394269 -0.078402 0.915616 0.844152 0.332890 231 187 123
0.060661 0.040533 1.118234 0.334239 0.223334 0.915616 0.808361 0.340009 231 187 123
0.040533 0.060662 1.118234 0.223334 0.334269 0.915616 0.791174 0.332890 231 187 123
-0.014233 0.071555 1.118233 -0.078402 0.394269 0.915616 0.770900 0.302548 231 187 123
0.014233 0.071555 1.118233 0.078402 0.394269 0.915616 0.778020 0.319735 231 187 123
-0.040533 0.060661 1.118233 -0.223334 0.334269 0.915616 0.770901 0.283945 231 187 123
-0.060662 0.040533 1.118233 -0.334269 0.223334 0.915616 0.778020 0.266758 231 187 123
-0.071555 -0.014233 1.118233 -0.394269 -0.078402 0.915616 0.808362 0.246484 231 187 123
-0.071555 0.014233 1.118233 -0.394299 0.078402 0.915616 0.791174 0.253603 231 187 123
-0.060661 -0.040533 1.118233 -0.334239 -0.223334 0.915616 0.826965 0.246484 231 187 123
-0.040532 -0.060662 1.118233 -0.223334 -0.334269 0.915616 0.844152 0.253603 231 187 123
-0.014233 -0.071555 1.118233 -0.078433 -0.394269 0.915616 0.857306 0.266758 231 187 123
4 0 1 2 3
4 4 5 6 7
4 8 3 2 9
4 1 10 11 2
4 5 12 13 6
4 9 2 11 14
4 15 16 17 18
4 16 19 20 17
4 19 21 22 20
4 17 20 10 1
4 20 22 23 10
4 18 17 1 0
4 24 25 26 27
4 28 29 30 31
4 32 33 34 35
4 36 37 38 39
4 40 41 42 43
4 44 45 46 47
4 48 49 50 51
4 52 53 54 55
4 56 57 58 59
4 60 61 62 63
4 64 65 66 67
4 68 69 70 71
4 72 73 74 70
4 65 75 76 66
4 71 70 74 77
4 73 78 79 74
4 75 80 81 76
4 77 74 79 82
4 83 84 85 86
4 84 87 88 85
4 87 89 90 88
4 85 88 78 73
4 88 90 91 78
4 86 85 73 72
4 92 93 94 95
4 96 97 98 99
4 100 101 102 103
4 104 105 106 107
4 108 109 110 111
4 112 113 114 115
4 116 117 118 119
4 120 121 122 123
4 124 125 126 127
4 128 129 130 131
4 132 133 134 135
4 136 137 138 139
4 140 141 142 138
4 133 143 144 134
4 139 138 142 145
4 141 146 147 142
4 143 148 149 144
4 145 142 147 150
4 146 151 152 147
4 153 154 155 156
4 154 157 158 155
4 157 159 160 158
4 155 158 146 141
4 158 160 151 146
4 156 155 141 140
4 161 162 163 164
4 165 166 167 168
4 169 170 171 172
4 173 174 175 176
4 177 178 179 180
4 181 182 183 184
4 185 186 187 188
4 189 190 191 192
4 193 194 195 196
4 197 198 199 200
4 201 202 203 204
4 205 206 207 208
4 202 209 210 203
4 211 208 207 212
4 206 213 214 207
4 209 215 216 210
4 212 207 214 217
4 213 218 219 214
4 215 220 221 216
4 217 214 219 222
4 223 224 225 226
4 224 227 228 225
4 227 229 230 228
4 225 228 213 206
4 228 230 218 213
4 226 225 206 205
4 231 232 233 234
4 235 236 237 238
4 239 240 241 242
4 243 244 245 246
4 247 248 249 250
4 251 252 253 254
4 255 256 257 258
4 259 260 261 262
4 263 264 265 266
4 267 268 269 270
4 84 83 271 272
4 273 274 208 211
3 204 203 275
3 151 276 152
3 151 277 276
3 277 238 276
3 238 237 276
3 203 210 275
4 21 19 278 279
3 210 216 275
4 157 154 280 281
3 216 221 275
4 282 229 283 284
3 159 285 160
3 159 286 285
3 286 235 285
3 286 236 235
4 277 151 160 285
4 220 4 7 221
4 154 153 287 280
4 288 289 3 8
3 221 7 275
3 0 3 289
3 290 291 289
3 291 0 289
3 291 292 0
3 7 6 275
4 229 227 293 283
3 6 13 275
4 286 159 294 295
3 13 67 275
4 10 23 296 11
4 12 64 67 13
4 297 89 298 299
4 14 11 296 300
3 282 29 28
3 28 301 230
3 282 28 230
3 229 282 230
4 291 290 302 303
4 89 87 304 298
3 67 66 275
3 99 98 305
3 99 305 296
3 306 99 296
3 23 306 296
3 66 76 275
4 227 224 307 293
3 76 81 275
4 19 16 308 278
3 81 135 275
4 78 91 309 79
4 80 132 135 81
4 159 157 281 294
4 82 79 309 310
3 21 311 97
3 21 97 96
3 21 96 312
3 21 312 22
4 306 23 22 312
4 224 223 313 307
3 135 134 275
3 91 314 309
3 314 168 309
3 168 167 309
3 167 315 309
3 134 144 275
4 16 15 316 308
3 144 149 275
4 87 84 272 304
3 149 204 275
4 148 201 204 149
4 311 21 279 317
4 150 147 152 318
3 89 297 90
3 297 166 165
3 297 165 90
3 165 319 90
4 314 91 90 319
4 308 316 320 321
4 298 304 322 323
4 283 293 324 325
4 317 279 326 327
4 304 272 328 322
4 293 307 329 324
4 299 298 323 330
4 272 271 331 328
4 307 313 332 329
4 294 281 333 334
4 295 294 334 335
4 279 278 336 326
4 281 280 337 333
4 284 283 325 338
4 278 308 321 336
4 280 287 339 337
4 340 341 342 343
4 344 345 346 347
4 348 349 350 351
4 341 352 353 342
4 345 354 355 346
4 356 357 358 359
4 354 356 359 355
4 360 361 362 363
4 357 364 365 358
4 366 367 368 369
4 361 370 371 362
4 364 348 351 365
4 370 366 369 371
4 349 340 343 350
4 367 344 347 368
4 352 360 363 353
4 342 353 372 373
4 346 355 374 375
4 359 358 376 377
4 355 359 377 374
4 363 362 378 379
4 358 365 380 376
4 369 368 381 382
4 362 371 383 378
4 365 351 384 380
4 371 369 382 383
4 350 343 385 386
4 368 347 387 381
4 353 363 379 372
4 343 342 373 385
4 347 346 375 387
4 351 350 386 384
3 388 374 377
3 388 375 374
3 388 387 375
3 388 381 387
3 388 382 381
3 388 383 382
3 388 378 383
3 388 379 378
3 388 372 379
3 388 373 372
3 388 385 373
3 388 386 385
3 388 384 386
3 388 380 384
3 388 376 380
3 388 377 376
4 389 8 9 390
4 390 9 14 391
4 392 68 71 393
4 393 71 77 394
4 394 77 82 395
4 396 136 139 397
4 397 139 145 398
4 398 145 150 399
4 400 211 212 401
4 401 212 217 402
4 402 217 222 403
4 404 273 211 400
4 405 288 8 389
4 391 14 300 406
4 395 82 310 407
4 399 150 318 408
4 389 390 409 410
4 390 391 411 409
4 392 393 412 413
4 393 394 414 412
4 394 395 415 414
4 396 397 416 417
4 397 398 418 416
4 398 399 419 418
4 404 400 420 421
4 400 401 422 420
4 401 402 423 422
4 402 403 424 423
4 405 389 410 425
4 391 406 426 411
4 395 407 427 415
4 399 408 428 419
4 410 409 429 430
4 409 411 431 429
4 413 412 432 433
4 412 414 434 432
4 414 415 435 434
4 417 416 436 437
4 416 418 438 436
4 418 419 439 438
4 421 420 440 441
4 420 422 442 440
4 422 423 443 442
4 423 424 444 443
4 424 445 446 444
4 411 426 447 431
4 415 427 448 435
4 419 428 449 439
4 450 451 452 453
4 451 454 455 452
4 456 457 458 459
4 457 460 461 458
4 460 462 463 461
4 464 465 466 467
4 465 468 469 466
4 468 470 471 469
4 472 473 474 475
4 473 476 477 474
4 476 478 479 477
4 478 480 481 479
4 480 450 453 481
4 454 456 459 455
4 462 464 467 463
4 470 472 475 471
4 453 452 482 483
4 452 455 484 482
4 459 458 485 486
4 458 461 487 485
4 461 463 488 487
4 467 466 489 490
4 466 469 491 489
4 469 471 492 491
4 475 474 493 494
4 474 477 495 493
4 477 479 496 495
4 479 481 497 496
4 481 453 483 497
4 455 459 486 484
4 463 467 490 488
4 471 475 494 492
4 483 482 5 4
4 482 484 12 5
4 486 485 65 64
4 485 487 75 65
4 487 488 80 75
4 490 489 133 132
4 489 491 143 133
4 491 492 148 143
4 494 493 202 201
4 493 495 209 202
4 495 496 215 209
4 496 497 220 215
4 497 483 4 220
4 484 486 64 12
4 488 490 132 80
4 492 494 201 148
