ply
format ascii 1.0
comment Created by Blender 2.68 (sub 0) - www.blender.org, source file: ''
element vertex 84
property float x
property float y
property float z
property float nx
property float ny
property float nz
element face 29
property list uchar uint vertex_indices
end_header
451.569611 27.004827 0.000000 1.000000 -0.000000 0.000000
451.569611 27.004827 397.658142 1.000000 -0.000000 0.000000
451.569611 -14.261423 397.658142 1.000000 -0.000000 0.000000
451.569611 -14.261423 0.000000 1.000000 -0.000000 0.000000
45.946320 27.004827 397.658142 0.000000 -0.000000 1.000000
-343.746674 27.004827 397.658142 0.000000 -0.000000 1.000000
-343.746674 -14.261423 397.658142 0.000000 -0.000000 1.000000
45.946320 -14.261423 397.658142 0.000000 -0.000000 1.000000
-343.746674 27.004827 -34.943356 -1.000000 0.000000 0.000000
-343.746674 27.004827 -397.658142 -1.000000 0.000000 0.000000
-343.746674 -14.261423 -397.658142 -1.000000 0.000000 0.000000
-343.746674 -14.261423 -34.943356 -1.000000 0.000000 0.000000
451.569611 -14.261423 -397.658142 0.000000 -0.000000 -1.000000
59.106247 -14.261423 -397.658142 0.000000 -0.000000 -1.000000
59.106247 27.004827 -397.658142 0.000000 -0.000000 -1.000000
451.569611 27.004827 -397.658142 0.000000 -0.000000 -1.000000
45.946320 -14.261423 0.000000 0.000000 -1.000000 0.000000
45.946320 -14.261423 397.658142 0.000000 -1.000000 0.000000
-343.746674 -14.261423 397.658142 0.000000 -1.000000 0.000000
-343.746674 -14.261423 0.000000 0.000000 -1.000000 0.000000
451.569611 27.004827 397.658142 0.000000 -0.000000 1.000000
59.106247 27.004827 397.658142 0.000000 -0.000000 1.000000
59.106247 -14.261423 397.658142 0.000000 -0.000000 1.000000
451.569611 -14.261423 397.658142 0.000000 -0.000000 1.000000
45.946320 27.004827 -397.658142 0.000000 0.000000 -1.000000
45.946320 -14.261423 -397.658142 0.000000 0.000000 -1.000000
451.569611 -14.261423 0.000000 0.000000 -1.000000 0.000000
451.569611 -14.261423 397.658142 0.000000 -1.000000 0.000000
59.106247 -14.261423 397.658142 0.000000 -1.000000 0.000000
59.106247 -14.261423 0.000000 0.000000 -1.000000 0.000000
-343.746674 27.004827 -397.658142 0.000000 0.000000 -1.000000
-343.746674 -14.261423 -397.658142 0.000000 0.000000 -1.000000
451.569611 27.004827 -34.943356 1.000000 -0.000000 0.000000
451.569611 -14.261423 -34.943356 1.000000 -0.000000 0.000000
-343.746674 27.004827 397.658142 -1.000000 0.000000 0.000000
-343.746674 27.004827 0.000000 -1.000000 0.000000 0.000000
-343.746674 -14.261423 0.000000 -1.000000 0.000000 0.000000
-343.746674 -14.261423 397.658142 -1.000000 0.000000 0.000000
45.946320 -14.261423 -34.943356 0.000000 -1.000000 0.000000
-343.746674 -14.261423 -34.943356 0.000000 -1.000000 0.000000
451.569611 -14.261423 -34.943356 0.000000 -1.000000 0.000000
59.106247 -14.261423 -34.943356 0.000000 -1.000000 0.000000
59.106247 -14.261423 -34.943356 -0.849974 0.000000 0.526825
59.106247 -14.261423 0.000000 -0.849974 0.000000 0.526825
71.100983 57.821648 -15.591203 -0.849974 0.000000 0.526825
39.806576 57.821648 -31.137859 -0.849974 0.000000 0.526825
451.569611 -14.261423 -397.658142 1.000000 0.000000 0.000000
451.569611 27.004827 -397.658142 1.000000 0.000000 0.000000
45.946320 -14.261423 -397.658142 0.000000 -1.000000 0.000000
-343.746674 -14.261423 -397.658142 0.000000 -1.000000 0.000000
451.569611 -14.261423 -397.658142 0.000000 -1.000000 0.000000
59.106247 -14.261423 -397.658142 0.000000 -1.000000 0.000000
65.245995 57.821648 -3.805497 0.072093 0.000000 -0.997398
33.951588 57.821648 -19.352152 0.072093 0.000000 -0.997398
37.973454 125.955612 -5.776785 0.072093 0.000000 -0.997398
71.178337 125.955612 -16.661356 0.072093 0.000000 -0.997398
45.946320 -14.261423 -34.943356 0.526825 0.000000 0.849974
59.106247 -14.261423 -34.943356 0.526825 0.000000 0.849974
39.806576 57.821648 -31.137859 0.526825 0.000000 0.849974
33.951588 57.821648 -19.352152 0.526825 0.000000 0.849974
59.106247 -14.261423 0.000000 -0.526825 0.000000 -0.849974
45.946320 -14.261423 0.000000 -0.526825 0.000000 -0.849974
65.245995 57.821648 -3.805497 -0.526825 0.000000 -0.849974
71.100983 57.821648 -15.591203 -0.526825 0.000000 -0.849974
45.946320 -14.261423 0.000000 0.849974 0.000000 -0.526825
45.946320 -14.261423 -34.943356 0.849974 0.000000 -0.526825
33.951588 57.821648 -19.352152 0.849974 0.000000 -0.526825
65.245995 57.821648 -3.805497 0.849974 0.000000 -0.526825
33.874237 125.955612 -18.281994 0.000000 -1.000000 -0.000000
67.079124 125.955612 -29.166563 0.000000 -1.000000 -0.000000
71.178337 125.955612 -16.661356 0.000000 -1.000000 -0.000000
37.973454 125.955612 -5.776785 0.000000 -1.000000 -0.000000
33.951588 57.821648 -19.352152 0.997398 -0.000000 0.072093
39.806576 57.821648 -31.137859 0.997398 -0.000000 0.072093
33.874237 125.955612 -18.281994 0.997398 -0.000000 0.072093
37.973454 125.955612 -5.776785 0.997398 -0.000000 0.072093
71.100983 57.821648 -15.591203 -0.997398 0.000000 -0.072093
65.245995 57.821648 -3.805497 -0.997398 0.000000 -0.072093
71.178337 125.955612 -16.661356 -0.997398 0.000000 -0.072093
67.079124 125.955612 -29.166563 -0.997398 0.000000 -0.072093
39.806576 57.821648 -31.137859 -0.072093 -0.000000 0.997398
71.100983 57.821648 -15.591203 -0.072093 -0.000000 0.997398
67.079124 125.955612 -29.166563 -0.072093 -0.000000 0.997398
33.874237 125.955612 -18.281994 -0.072093 -0.000000 0.997398
4 0 1 2 3
4 4 5 6 7
4 8 9 10 11
4 12 13 14 15
4 16 17 18 19
4 20 21 22 23
4 24 14 13 25
4 26 27 28 29
4 21 4 7 22
4 29 28 17 16
4 30 24 25 31
4 32 0 3 33
4 34 35 36 37
4 38 16 19 39
4 40 26 29 41
4 42 43 44 45
4 35 8 11 36
4 33 46 47 32
4 48 38 39 49
4 50 40 41 51
4 51 41 38 48
4 52 53 54 55
4 56 57 58 59
4 60 61 62 63
4 64 65 66 67
4 68 69 70 71
4 72 73 74 75
4 76 77 78 79
4 80 81 82 83
