ply
format ascii 1.0
comment Created by Blender 2.68 (sub 0) - www.blender.org, source file: 'Test World 1.blend'
element vertex 128
property float x
property float y
property float z
property float nx
property float ny
property float nz
property uchar red
property uchar green
property uchar blue
element face 154
property list uchar uint vertex_indices
end_header
-0.000183 69.392746 -1570.803833 0.000000 0.000000 1.000000 128 128 128
-0.000183 -5.065177 -1570.803833 0.000000 0.685690 0.727866 128 128 128
305.775391 -5.065177 -1540.687500 -0.142003 0.685690 0.713889 128 128 128
305.775391 69.392746 -1540.687500 -0.195074 0.000000 0.980773 128 128 128
599.800049 -5.065177 -1451.495850 -0.278542 0.685690 0.672475 128 128 128
599.800049 69.392746 -1451.495850 -0.382672 0.000000 0.923856 128 128 128
870.774780 -5.065177 -1306.657104 -0.404370 0.685690 0.605213 128 128 128
870.774780 69.392746 -1306.657104 -0.555559 0.000000 0.831446 128 128 128
1108.286255 -5.065177 -1111.736572 -0.514664 0.685690 0.514664 128 128 128
1108.286255 69.392746 -1111.736572 -0.707083 0.000000 0.707083 128 128 128
1303.206665 -5.065177 -874.225220 -0.605213 0.685690 0.404370 128 128 128
1303.206665 69.392746 -874.225220 -0.831446 0.000000 0.555559 128 128 128
1448.045776 -5.065177 -603.250488 -0.672475 0.685690 0.278542 128 128 128
1448.045776 69.392746 -603.250488 -0.923856 0.000000 0.382672 128 128 128
1537.237427 -5.065177 -309.225861 -0.713889 0.685690 0.142003 128 128 128
1537.237427 69.392746 -309.225861 -0.980773 0.000000 0.195074 128 128 128
1567.353638 -5.065177 -3.450378 -0.727866 0.685690 0.000000 128 128 128
1567.353638 69.392746 -3.450378 -0.999969 0.000000 0.000000 128 128 128
1537.237183 -5.065177 302.325043 -0.713889 0.685690 -0.142003 128 128 128
1537.237183 69.392746 302.325043 -0.980773 0.000000 -0.195074 128 128 128
1448.045776 -5.065177 596.349731 -0.672475 0.685690 -0.278542 128 128 128
1448.045776 69.392746 596.349731 -0.923856 0.000000 -0.382672 128 128 128
1303.206665 -5.065177 867.324585 -0.605213 0.685690 -0.404370 128 128 128
1303.206665 69.392746 867.324585 -0.831446 0.000000 -0.555559 128 128 128
1108.286255 -5.065177 1104.836060 -0.514664 0.685690 -0.514664 128 128 128
1108.286255 69.392746 1104.836060 -0.707083 0.000000 -0.707083 128 128 128
870.774658 -5.065177 1299.756958 -0.404370 0.685690 -0.605213 128 128 128
870.774658 69.392746 1299.756958 -0.555559 0.000000 -0.831446 128 128 128
599.799683 -5.065177 1444.596069 -0.278542 0.685690 -0.672475 128 128 128
599.799683 69.392746 1444.596069 -0.382672 0.000000 -0.923856 128 128 128
305.774933 -5.065177 1533.787476 -0.142003 0.685690 -0.713889 128 128 128
305.774933 69.392746 1533.787476 -0.195074 0.000000 -0.980773 128 128 128
-0.000693 -5.065177 1563.903564 0.000000 0.685690 -0.727866 128 128 128
-0.000693 69.392746 1563.903564 0.000000 0.000000 -1.000000 128 128 128
-305.776367 -5.065177 1533.787476 0.142003 0.685690 -0.713889 128 128 128
-305.776367 69.392746 1533.787476 0.195074 0.000000 -0.980773 128 128 128
-599.801270 -5.065177 1444.595581 0.278542 0.685690 -0.672475 128 128 128
-599.801270 69.392746 1444.595581 0.382672 0.000000 -0.923856 128 128 128
-870.776123 -5.065177 1299.756348 0.404370 0.685690 -0.605213 128 128 128
-870.776123 69.392746 1299.756348 0.555559 0.000000 -0.831446 128 128 128
-1108.286987 -5.065177 1104.835571 0.514664 0.685690 -0.514664 128 128 128
-1108.286987 69.392746 1104.835571 0.707083 0.000000 -0.707083 128 128 128
-1303.207886 -5.065177 867.323792 0.605213 0.685690 -0.404370 128 128 128
-1303.207886 69.392746 867.323792 0.831446 0.000000 -0.555559 128 128 128
-1448.046631 -5.065177 596.348877 0.672475 0.685690 -0.278542 128 128 128
-1448.046631 69.392746 596.348877 0.923856 0.000000 -0.382672 128 128 128
-1537.237793 -5.065177 302.323914 0.713889 0.685690 -0.142003 128 128 128
-1537.237793 69.392746 302.323914 0.980773 0.000000 -0.195074 128 128 128
-1567.353638 -5.065177 -3.451774 0.727866 0.685690 0.000000 128 128 128
-1567.353638 69.392746 -3.451774 1.000000 0.000000 0.000000 128 128 128
-1537.237183 -5.065177 -309.227448 0.713889 0.685690 0.142003 128 128 128
-1537.237183 69.392746 -309.227448 0.980773 0.000000 0.195074 128 128 128
-1448.045288 -5.065177 -603.252258 0.672475 0.685690 0.278542 128 128 128
-1448.045288 69.392746 -603.252258 0.923856 0.000000 0.382672 128 128 128
-1303.206055 -5.065177 -874.226929 0.605213 0.685690 0.404370 128 128 128
-1303.206055 69.392746 -874.226929 0.831446 0.000000 0.555559 128 128 128
-1108.285156 -5.065177 -1111.737915 0.514664 0.685690 0.514695 128 128 128
-1108.285156 69.392746 -1111.737915 0.707083 0.000000 0.707083 128 128 128
-870.773499 -5.065177 -1306.658447 0.404370 0.685690 0.605213 128 128 128
-870.773499 69.392746 -1306.658447 0.555559 0.000000 0.831446 128 128 128
-599.798401 -5.065177 -1451.497070 0.278542 0.685690 0.672475 128 128 128
-599.798401 69.392746 -1451.497070 0.382672 0.000000 0.923856 128 128 128
-305.773376 -5.065177 -1540.688110 0.142003 0.685690 0.713889 128 128 128
-305.773376 69.392746 -1540.688110 0.195074 0.000000 0.980773 128 128 128
-10.206578 -62.820522 -2.795223 0.000000 -0.685690 0.727866 128 128 128
-10.206578 76.588585 -2.795223 0.000000 0.685690 0.727866 128 128 128
-10.401668 76.588585 -2.814438 -0.142003 0.685690 0.713889 128 128 128
-10.401668 -62.820522 -2.814438 -0.142003 -0.685690 0.713889 128 128 128
-10.589262 76.588585 -2.871344 -0.278542 0.685690 0.672475 128 128 128
-10.589262 -62.820522 -2.871344 -0.278542 -0.685690 0.672475 128 128 128
-10.762148 76.588585 -2.963753 -0.404370 0.685690 0.605213 128 128 128
-10.762148 -62.820522 -2.963753 -0.404370 -0.685690 0.605213 128 128 128
-10.913685 76.588585 -3.088116 -0.514664 0.685690 0.514695 128 128 128
-10.913685 -62.820522 -3.088116 -0.514664 -0.685690 0.514695 128 128 128
-11.038048 76.588585 -3.239653 -0.605213 0.685690 0.404370 128 128 128
-11.038048 -62.820522 -3.239653 -0.605213 -0.685690 0.404370 128 128 128
-11.130458 76.588585 -3.412539 -0.672475 0.685690 0.278542 128 128 128
-11.130458 -62.820522 -3.412539 -0.672475 -0.685690 0.278542 128 128 128
-11.187363 76.588585 -3.600133 -0.713889 0.685690 0.142003 128 128 128
-11.187363 -62.820522 -3.600133 -0.713889 -0.685690 0.142003 128 128 128
-11.206577 76.588585 -3.795223 -0.727866 0.685690 0.000000 128 128 128
-11.206577 -62.820522 -3.795223 -0.727866 -0.685690 0.000000 128 128 128
-11.187363 76.588585 -3.990313 -0.713889 0.685690 -0.141972 128 128 128
-11.187363 -62.820522 -3.990313 -0.713889 -0.685690 -0.141972 128 128 128
-11.130458 76.588585 -4.177906 -0.672475 0.685690 -0.278542 128 128 128
-11.130458 -62.820522 -4.177906 -0.672475 -0.685690 -0.278542 128 128 128
-11.038048 76.588585 -4.350793 -0.605213 0.685690 -0.404370 128 128 128
-11.038048 -62.820522 -4.350793 -0.605213 -0.685690 -0.404370 128 128 128
-10.913685 76.588585 -4.502330 -0.514664 0.685690 -0.514664 128 128 128
-10.913685 -62.820522 -4.502330 -0.514664 -0.685690 -0.514664 128 128 128
-10.762148 76.588585 -4.626693 -0.404370 0.685690 -0.605213 128 128 128
-10.762148 -62.820522 -4.626693 -0.404370 -0.685690 -0.605213 128 128 128
-10.589261 76.588585 -4.719102 -0.278542 0.685690 -0.672475 128 128 128
-10.589261 -62.820522 -4.719102 -0.278542 -0.685690 -0.672475 128 128 128
-10.401668 76.588585 -4.776008 -0.142003 0.685690 -0.713889 128 128 128
-10.401668 -62.820522 -4.776008 -0.142003 -0.685690 -0.713889 128 128 128
-10.206578 76.588585 -4.795223 0.000000 0.685690 -0.727866 128 128 128
-10.206578 -62.820522 -4.795223 0.000000 -0.685690 -0.727866 128 128 128
-10.011487 76.588585 -4.776008 0.142003 0.685690 -0.713889 128 128 128
-10.011487 -62.820522 -4.776008 0.142003 -0.685690 -0.713889 128 128 128
-9.823894 76.588585 -4.719102 0.278542 0.685690 -0.672475 128 128 128
-9.823894 -62.820522 -4.719102 0.278542 -0.685690 -0.672475 128 128 128
-9.651008 76.588585 -4.626692 0.404370 0.685690 -0.605213 128 128 128
-9.651008 -62.820522 -4.626692 0.404370 -0.685690 -0.605213 128 128 128
-9.499471 76.588585 -4.502329 0.514695 0.685690 -0.514664 128 128 128
-9.499471 -62.820522 -4.502329 0.514695 -0.685690 -0.514664 128 128 128
-9.375108 76.588585 -4.350792 0.605213 0.685690 -0.404370 128 128 128
-9.375108 -62.820522 -4.350792 0.605213 -0.685690 -0.404370 128 128 128
-9.282699 76.588585 -4.177906 0.672475 0.685690 -0.278542 128 128 128
-9.282699 -62.820522 -4.177906 0.672475 -0.685690 -0.278542 128 128 128
-9.225793 76.588585 -3.990312 0.713889 0.685690 -0.142003 128 128 128
-9.225793 -62.820522 -3.990312 0.713889 -0.685690 -0.142003 128 128 128
-9.206578 76.588585 -3.795222 0.727866 0.685690 0.000000 128 128 128
-9.206578 -62.820522 -3.795222 0.727866 -0.685690 0.000000 128 128 128
-9.225793 76.588585 -3.600132 0.713889 0.685690 0.142003 128 128 128
-9.225793 -62.820522 -3.600132 0.713889 -0.685690 0.142003 128 128 128
-9.282700 76.588585 -3.412539 0.672475 0.685690 0.278542 128 128 128
-9.282700 -62.820522 -3.412539 0.672475 -0.685690 0.278542 128 128 128
-9.375109 76.588585 -3.239652 0.605213 0.685690 0.404370 128 128 128
-9.375109 -62.820522 -3.239652 0.605213 -0.685690 0.404370 128 128 128
-9.499472 76.588585 -3.088115 0.514664 0.685690 0.514695 128 128 128
-9.499472 -62.820522 -3.088115 0.514664 -0.685690 0.514695 128 128 128
-9.651009 76.588585 -2.963753 0.404370 0.685690 0.605213 128 128 128
-9.651009 -62.820522 -2.963753 0.404370 -0.685690 0.605213 128 128 128
-9.823895 76.588585 -2.871343 0.278542 0.685690 0.672475 128 128 128
-9.823895 -62.820522 -2.871343 0.278542 -0.685690 0.672475 128 128 128
-10.011489 76.588585 -2.814437 0.142003 0.685690 0.713889 128 128 128
-10.011489 -62.820522 -2.814437 0.142003 -0.685690 0.713889 128 128 128
4 0 1 2 3
4 3 2 4 5
4 5 4 6 7
4 7 6 8 9
4 9 8 10 11
4 11 10 12 13
4 13 12 14 15
4 15 14 16 17
4 17 16 18 19
4 19 18 20 21
4 21 20 22 23
4 23 22 24 25
4 25 24 26 27
4 27 26 28 29
4 29 28 30 31
4 31 30 32 33
4 33 32 34 35
4 35 34 36 37
4 37 36 38 39
4 39 38 40 41
4 41 40 42 43
4 43 42 44 45
4 45 44 46 47
4 47 46 48 49
4 49 48 50 51
4 51 50 52 53
4 53 52 54 55
4 55 54 56 57
4 57 56 58 59
4 59 58 60 61
3 2 1 62
3 2 62 60
3 2 60 4
3 60 58 4
3 58 6 4
3 58 56 6
3 56 8 6
3 56 54 8
3 54 10 8
3 54 52 10
3 52 12 10
3 52 50 12
3 50 14 12
3 50 48 14
3 48 16 14
3 48 46 16
3 46 18 16
3 46 44 18
3 44 20 18
3 44 42 20
3 42 22 20
3 42 40 22
3 40 24 22
3 40 38 24
3 38 26 24
3 38 36 26
3 36 28 26
3 36 34 28
3 34 30 28
3 34 32 30
4 1 0 63 62
4 61 60 62 63
4 64 65 66 67
4 67 66 68 69
4 69 68 70 71
4 71 70 72 73
4 73 72 74 75
4 75 74 76 77
4 77 76 78 79
4 79 78 80 81
4 81 80 82 83
4 83 82 84 85
4 85 84 86 87
4 87 86 88 89
4 89 88 90 91
4 91 90 92 93
4 93 92 94 95
4 95 94 96 97
4 97 96 98 99
4 99 98 100 101
4 101 100 102 103
4 103 102 104 105
4 105 104 106 107
4 107 106 108 109
4 109 108 110 111
4 111 110 112 113
4 113 112 114 115
4 115 114 116 117
4 117 116 118 119
4 119 118 120 121
4 121 120 122 123
4 123 122 124 125
3 98 96 94
3 98 94 92
3 100 98 92
3 100 92 90
3 102 100 90
3 102 90 88
3 104 102 88
3 104 88 86
3 106 104 86
3 106 86 84
3 108 106 84
3 108 84 82
3 110 108 82
3 110 82 80
3 112 110 80
3 112 80 78
3 114 112 78
3 114 78 76
3 116 114 76
3 116 76 74
3 118 116 74
3 118 74 72
3 120 118 72
3 120 72 70
3 122 120 70
3 122 70 68
3 124 122 68
3 66 124 68
3 66 126 124
3 66 65 126
4 127 126 65 64
4 125 124 126 127
3 64 67 127
3 67 125 127
3 67 69 125
3 69 123 125
3 69 71 123
3 71 121 123
3 71 73 121
3 73 119 121
3 73 75 119
3 75 117 119
3 75 77 117
3 77 115 117
3 77 79 115
3 79 113 115
3 79 81 113
3 81 111 113
3 81 83 111
3 83 109 111
3 83 85 109
3 85 107 109
3 85 87 107
3 87 105 107
3 87 89 105
3 89 103 105
3 89 91 103
3 91 101 103
3 91 93 101
3 93 95 101
3 95 99 101
3 95 97 99
