ply
format ascii 1.0
comment Created by Blender 2.68 (sub 0) - www.blender.org, source file: 'Test World 1.blend'
element vertex 512
property float x
property float y
property float z
property float nx
property float ny
property float nz
property uchar red
property uchar green
property uchar blue
element face 346
property list uchar uint vertex_indices
end_header
-10.206578 -62.820522 -2.795223 0.000000 0.000000 1.000000 128 128 128
-10.206578 76.588585 -2.795223 0.000000 0.000000 1.000000 128 128 128
-10.401668 76.588585 -2.814438 -0.195074 0.000000 0.980773 128 128 128
-10.401668 -62.820522 -2.814438 -0.195074 0.000000 0.980773 128 128 128
-10.589262 76.588585 -2.871344 -0.382672 0.000000 0.923856 128 128 128
-10.589262 -62.820522 -2.871344 -0.382672 0.000000 0.923856 128 128 128
-10.762148 76.588585 -2.963753 -0.555559 0.000000 0.831446 128 128 128
-10.762148 -62.820522 -2.963753 -0.555559 0.000000 0.831446 128 128 128
-10.913685 76.588585 -3.088116 -0.707083 0.000000 0.707083 128 128 128
-10.913685 -62.820522 -3.088116 -0.707083 0.000000 0.707083 128 128 128
-11.038048 76.588585 -3.239653 -0.831446 0.000000 0.555559 128 128 128
-11.038048 -62.820522 -3.239653 -0.831446 0.000000 0.555559 128 128 128
-11.130458 76.588585 -3.412539 -0.923856 0.000000 0.382672 128 128 128
-11.130458 -62.820522 -3.412539 -0.923856 0.000000 0.382672 128 128 128
-11.187363 76.588585 -3.600133 -0.980773 0.000000 0.195074 128 128 128
-11.187363 -62.820522 -3.600133 -0.980773 0.000000 0.195074 128 128 128
-11.206577 76.588585 -3.795223 -1.000000 0.000000 0.000000 128 128 128
-11.206577 -62.820522 -3.795223 -1.000000 0.000000 0.000000 128 128 128
-11.187363 76.588585 -3.990313 -0.980773 0.000000 -0.195074 128 128 128
-11.187363 -62.820522 -3.990313 -0.980773 0.000000 -0.195074 128 128 128
-11.130458 76.588585 -4.177906 -0.923856 0.000000 -0.382672 128 128 128
-11.130458 -62.820522 -4.177906 -0.923856 0.000000 -0.382672 128 128 128
-11.038048 76.588585 -4.350793 -0.831446 0.000000 -0.555559 128 128 128
-11.038048 -62.820522 -4.350793 -0.831446 0.000000 -0.555559 128 128 128
-10.913685 76.588585 -4.502330 -0.707083 0.000000 -0.707083 128 128 128
-10.913685 -62.820522 -4.502330 -0.707083 0.000000 -0.707083 128 128 128
-10.762148 76.588585 -4.626693 -0.555559 0.000000 -0.831446 128 128 128
-10.762148 -62.820522 -4.626693 -0.555559 0.000000 -0.831446 128 128 128
-10.589261 76.588585 -4.719102 -0.382672 0.000000 -0.923856 128 128 128
-10.589261 -62.820522 -4.719102 -0.382672 0.000000 -0.923856 128 128 128
-10.401668 76.588585 -4.776008 -0.195074 0.000000 -0.980773 128 128 128
-10.401668 -62.820522 -4.776008 -0.195074 0.000000 -0.980773 128 128 128
-10.206578 76.588585 -4.795223 0.000000 0.000000 -1.000000 128 128 128
-10.206578 -62.820522 -4.795223 0.000000 0.000000 -1.000000 128 128 128
-10.011487 76.588585 -4.776008 0.195074 0.000000 -0.980773 128 128 128
-10.011487 -62.820522 -4.776008 0.195074 0.000000 -0.980773 128 128 128
-9.823894 76.588585 -4.719102 0.382672 0.000000 -0.923856 128 128 128
-9.823894 -62.820522 -4.719102 0.382672 0.000000 -0.923856 128 128 128
-9.651008 76.588585 -4.626692 0.555559 0.000000 -0.831446 128 128 128
-9.651008 -62.820522 -4.626692 0.555559 0.000000 -0.831446 128 128 128
-9.499471 76.588585 -4.502329 0.707083 0.000000 -0.707083 128 128 128
-9.499471 -62.820522 -4.502329 0.707083 0.000000 -0.707083 128 128 128
-9.375108 76.588585 -4.350792 0.831446 0.000000 -0.555559 128 128 128
-9.375108 -62.820522 -4.350792 0.831446 0.000000 -0.555559 128 128 128
-9.282699 76.588585 -4.177906 0.923856 0.000000 -0.382672 128 128 128
-9.282699 -62.820522 -4.177906 0.923856 0.000000 -0.382672 128 128 128
-9.225793 76.588585 -3.990312 0.980773 0.000000 -0.195074 128 128 128
-9.225793 -62.820522 -3.990312 0.980773 0.000000 -0.195074 128 128 128
-9.206578 76.588585 -3.795222 1.000000 0.000000 0.000000 128 128 128
-9.206578 -62.820522 -3.795222 1.000000 0.000000 0.000000 128 128 128
-9.225793 76.588585 -3.600132 0.980773 0.000000 0.195074 128 128 128
-9.225793 -62.820522 -3.600132 0.980773 0.000000 0.195074 128 128 128
-9.282700 76.588585 -3.412539 0.923856 0.000000 0.382672 128 128 128
-9.282700 -62.820522 -3.412539 0.923856 0.000000 0.382672 128 128 128
-9.375109 76.588585 -3.239652 0.831446 0.000000 0.555559 128 128 128
-9.375109 -62.820522 -3.239652 0.831446 0.000000 0.555559 128 128 128
-9.499472 76.588585 -3.088115 0.707083 0.000000 0.707083 128 128 128
-9.499472 -62.820522 -3.088115 0.707083 0.000000 0.707083 128 128 128
-9.651009 76.588585 -2.963753 0.555559 0.000000 0.831446 128 128 128
-9.651009 -62.820522 -2.963753 0.555559 0.000000 0.831446 128 128 128
-9.823895 76.588585 -2.871343 0.382672 0.000000 0.923856 128 128 128
-9.823895 -62.820522 -2.871343 0.382672 0.000000 0.923856 128 128 128
-10.011487 76.588585 -4.776008 0.000000 0.999969 0.000000 128 128 128
-10.206578 76.588585 -4.795223 0.000000 1.000000 0.000000 128 128 128
-10.401668 76.588585 -4.776008 0.000000 1.000000 0.000000 128 128 128
-10.589261 76.588585 -4.719102 0.000000 1.000000 0.000000 128 128 128
-9.823894 76.588585 -4.719102 0.000000 1.000000 0.000000 128 128 128
-10.762148 76.588585 -4.626693 0.000000 0.999969 0.000000 128 128 128
-9.651008 76.588585 -4.626692 0.000000 1.000000 0.000000 128 128 128
-10.913685 76.588585 -4.502330 0.000000 1.000000 0.000000 128 128 128
-9.499471 76.588585 -4.502329 0.000000 1.000000 0.000000 128 128 128
-11.038048 76.588585 -4.350793 0.000000 1.000000 0.000000 128 128 128
-9.375108 76.588585 -4.350792 0.000000 1.000000 0.000000 128 128 128
-11.130458 76.588585 -4.177906 0.000000 1.000000 0.000000 128 128 128
-9.282699 76.588585 -4.177906 0.000000 1.000000 0.000000 128 128 128
-11.187363 76.588585 -3.990313 0.000000 1.000000 0.000000 128 128 128
-9.225793 76.588585 -3.990312 0.000000 0.999969 0.000000 128 128 128
-11.206577 76.588585 -3.795223 0.000000 1.000000 0.000000 128 128 128
-9.206578 76.588585 -3.795222 0.000000 1.000000 0.000000 128 128 128
-11.187363 76.588585 -3.600133 0.000000 1.000000 0.000000 128 128 128
-9.225793 76.588585 -3.600132 0.000000 1.000000 0.000000 128 128 128
-11.130458 76.588585 -3.412539 0.000000 1.000000 0.000000 128 128 128
-9.282700 76.588585 -3.412539 0.000000 1.000000 0.000000 128 128 128
-11.038048 76.588585 -3.239653 0.000000 0.999969 0.000000 128 128 128
-9.375109 76.588585 -3.239652 0.000000 1.000000 0.000000 128 128 128
-10.913685 76.588585 -3.088116 0.000000 1.000000 0.000000 128 128 128
-9.499472 76.588585 -3.088115 0.000000 1.000000 0.000000 128 128 128
-10.762148 76.588585 -2.963753 0.000000 1.000000 0.000000 128 128 128
-9.651009 76.588585 -2.963753 0.000000 1.000000 0.000000 128 128 128
-10.589262 76.588585 -2.871344 0.000000 1.000000 0.000000 128 128 128
-9.823895 76.588585 -2.871343 0.000000 1.000000 0.000000 128 128 128
-10.401668 76.588585 -2.814438 0.000000 0.999969 0.000000 128 128 128
-10.011489 76.588585 -2.814437 0.000000 0.999969 0.000000 128 128 128
-10.206578 76.588585 -2.795223 0.000000 1.000000 0.000000 128 128 128
-10.011489 -62.820522 -2.814437 0.195074 0.000000 0.980773 128 128 128
-10.011489 76.588585 -2.814437 0.195074 0.000000 0.980773 128 128 128
-10.206578 -62.820522 -2.795223 0.000000 -1.000000 0.000000 128 128 128
-10.401668 -62.820522 -2.814438 0.000000 -0.999969 0.000000 128 128 128
-10.011489 -62.820522 -2.814437 0.000000 -0.999969 0.000000 128 128 128
-9.823895 -62.820522 -2.871343 0.000000 -1.000000 0.000000 128 128 128
-10.589262 -62.820522 -2.871344 0.000000 -1.000000 0.000000 128 128 128
-9.651009 -62.820522 -2.963753 0.000000 -1.000000 0.000000 128 128 128
-10.762148 -62.820522 -2.963753 0.000000 -1.000000 0.000000 128 128 128
-9.499472 -62.820522 -3.088115 0.000000 -1.000000 0.000000 128 128 128
-10.913685 -62.820522 -3.088116 0.000000 -1.000000 0.000000 128 128 128
-9.375109 -62.820522 -3.239652 0.000000 -1.000000 0.000000 128 128 128
-11.038048 -62.820522 -3.239653 0.000000 -0.999969 0.000000 128 128 128
-9.282700 -62.820522 -3.412539 0.000000 -1.000000 0.000000 128 128 128
-11.130458 -62.820522 -3.412539 0.000000 -1.000000 0.000000 128 128 128
-9.225793 -62.820522 -3.600132 0.000000 -1.000000 0.000000 128 128 128
-11.187363 -62.820522 -3.600133 0.000000 -1.000000 0.000000 128 128 128
-9.206578 -62.820522 -3.795222 0.000000 -1.000000 0.000000 128 128 128
-11.206577 -62.820522 -3.795223 0.000000 -1.000000 0.000000 128 128 128
-9.225793 -62.820522 -3.990312 0.000000 -0.999969 0.000000 128 128 128
-11.187363 -62.820522 -3.990313 0.000000 -1.000000 0.000000 128 128 128
-9.282699 -62.820522 -4.177906 0.000000 -1.000000 0.000000 128 128 128
-11.130458 -62.820522 -4.177906 0.000000 -1.000000 0.000000 128 128 128
-9.375108 -62.820522 -4.350792 0.000000 -1.000000 0.000000 128 128 128
-11.038048 -62.820522 -4.350793 0.000000 -1.000000 0.000000 128 128 128
-9.499471 -62.820522 -4.502329 0.000000 -1.000000 0.000000 128 128 128
-10.913685 -62.820522 -4.502330 0.000000 -1.000000 0.000000 128 128 128
-9.651008 -62.820522 -4.626692 0.000000 -1.000000 0.000000 128 128 128
-10.762148 -62.820522 -4.626693 0.000000 -0.999969 0.000000 128 128 128
-9.823894 -62.820522 -4.719102 0.000000 -1.000000 0.000000 128 128 128
-10.589261 -62.820522 -4.719102 0.000000 -1.000000 0.000000 128 128 128
-10.401668 -62.820522 -4.776008 0.000000 -1.000000 0.000000 128 128 128
-10.011487 -62.820522 -4.776008 0.000000 -0.999969 0.000000 128 128 128
-10.206578 -62.820522 -4.795223 0.000000 -1.000000 0.000000 128 128 128
0.000000 -5.132998 1002.000061 0.000000 0.000000 -1.000000 128 128 128
-49.165813 -5.132998 1000.793091 0.049043 0.000000 -0.998779 128 128 128
-49.165813 948.673767 1000.793091 0.049043 0.000000 -0.998779 128 128 128
0.000000 948.673767 1002.000061 0.000000 0.000000 -1.000000 128 128 128
-98.213173 -5.132998 997.175171 0.097995 0.000000 -0.995178 128 128 128
-98.213173 948.673767 997.175171 0.097995 0.000000 -0.995178 128 128 128
-147.023926 -5.132998 991.154907 0.146702 0.000000 -0.989166 128 128 128
-147.023926 948.673767 991.154907 0.146702 0.000000 -0.989166 128 128 128
-195.480515 -5.132998 982.746887 0.195074 0.000000 -0.980773 128 128 128
-195.480515 948.673767 982.746887 0.195074 0.000000 -0.980773 128 128 128
-243.466171 -5.132998 971.971375 0.242958 0.000000 -0.970031 128 128 128
-243.466171 948.673767 971.971375 0.242958 0.000000 -0.970031 128 128 128
-290.865265 -5.132998 958.854309 0.290262 0.000000 -0.956938 128 128 128
-290.865265 948.673767 958.854309 0.290262 0.000000 -0.956938 128 128 128
-337.563629 -5.132998 943.427185 0.336863 0.000000 -0.941527 128 128 128
-337.563629 948.673767 943.427185 0.336863 0.000000 -0.941527 128 128 128
-383.448822 -5.132998 925.727356 0.382672 0.000000 -0.923856 128 128 128
-383.448822 948.673767 925.727356 0.382672 0.000000 -0.923856 128 128 128
-428.410187 -5.132998 905.797363 0.427534 0.000000 -0.903989 128 128 128
-428.410187 948.673767 905.797363 0.427534 0.000000 -0.903989 128 128 128
-472.339539 -5.132998 883.685181 0.471389 0.000000 -0.881893 128 128 128
-472.339539 948.673767 883.685181 0.471389 0.000000 -0.881893 128 128 128
-515.131042 -5.132998 859.444092 0.514084 0.000000 -0.857723 128 128 128
-515.131042 948.673767 859.444092 0.514084 0.000000 -0.857723 128 128 128
-556.681396 -5.132998 833.132568 0.555559 0.000000 -0.831446 128 128 128
-556.681396 948.673767 833.132568 0.555559 0.000000 -0.831446 128 128 128
-596.890747 -5.132998 804.813965 0.595691 0.000000 -0.803186 128 128 128
-596.890747 948.673767 804.813965 0.595691 0.000000 -0.803186 128 128 128
-635.662109 -5.132998 774.556458 0.634388 0.000000 -0.773003 128 128 128
-635.662109 948.673767 774.556458 0.634388 0.000000 -0.773003 128 128 128
-672.902100 -5.132998 742.433044 0.671529 0.000000 -0.740928 128 128 128
-672.902100 948.673767 742.433044 0.671529 0.000000 -0.740928 128 128 128
-708.521118 -5.132998 708.520996 0.707083 0.000000 -0.707083 128 128 128
-708.521118 948.673767 708.520996 0.707083 0.000000 -0.707083 128 128 128
-742.433105 -5.132998 672.901978 0.740928 0.000000 -0.671529 128 128 128
-742.433105 948.673767 672.901978 0.740928 0.000000 -0.671529 128 128 128
-774.556580 -5.132998 635.662048 0.773003 0.000000 -0.634388 128 128 128
-774.556580 948.673767 635.662048 0.773003 0.000000 -0.634388 128 128 128
-804.814087 -5.132998 596.890564 0.803186 0.000000 -0.595691 128 128 128
-804.814087 948.673767 596.890564 0.803186 0.000000 -0.595691 128 128 128
-833.132690 -5.132998 556.681274 0.831446 0.000000 -0.555559 128 128 128
-833.132690 948.673767 556.681274 0.831446 0.000000 -0.555559 128 128 128
-859.444214 -5.132998 515.130798 0.857723 0.000000 -0.514084 128 128 128
-859.444214 948.673767 515.130798 0.857723 0.000000 -0.514084 128 128 128
-883.685242 -5.132998 472.339355 0.881893 0.000000 -0.471389 128 128 128
-883.685242 948.673767 472.339355 0.881893 0.000000 -0.471389 128 128 128
-905.797424 -5.132998 428.410034 0.903989 0.000000 -0.427534 128 128 128
-905.797424 948.673767 428.410034 0.903989 0.000000 -0.427534 128 128 128
-925.727417 -5.132998 383.448608 0.923856 0.000000 -0.382672 128 128 128
-925.727417 948.673767 383.448608 0.923856 0.000000 -0.382672 128 128 128
-943.427307 -5.132998 337.563385 0.941527 0.000000 -0.336863 128 128 128
-943.427307 948.673767 337.563385 0.941527 0.000000 -0.336863 128 128 128
-958.854370 -5.132998 290.864960 0.956938 0.000000 -0.290262 128 128 128
-958.854370 948.673767 290.864960 0.956938 0.000000 -0.290262 128 128 128
-971.971436 -5.132998 243.465866 0.970031 0.000000 -0.242958 128 128 128
-971.971436 948.673767 243.465866 0.970031 0.000000 -0.242958 128 128 128
-982.747009 -5.132998 195.480209 0.980773 0.000000 -0.195074 128 128 128
-982.747009 948.673767 195.480209 0.980773 0.000000 -0.195074 128 128 128
-991.154968 -5.132998 147.023605 0.989166 0.000000 -0.146702 128 128 128
-991.154968 948.673767 147.023605 0.989166 0.000000 -0.146702 128 128 128
-997.175232 -5.132998 98.212814 0.995178 0.000000 -0.097995 128 128 128
-997.175232 948.673767 98.212814 0.995178 0.000000 -0.097995 128 128 128
-1000.793091 -5.132998 49.165432 0.998779 0.000000 -0.049043 128 128 128
-1000.793091 948.673767 49.165432 0.998779 0.000000 -0.049043 128 128 128
-1002.000061 -5.132998 -0.000402 1.000000 0.000000 0.000000 128 128 128
-1002.000061 948.673767 -0.000402 1.000000 0.000000 0.000000 128 128 128
-1000.793091 -5.132998 -49.166233 0.998779 0.000000 0.049043 128 128 128
-1000.793091 948.673767 -49.166233 0.998779 0.000000 0.049043 128 128 128
-997.175110 -5.132998 -98.213623 0.995178 0.000000 0.097995 128 128 128
-997.175110 948.673767 -98.213623 0.995178 0.000000 0.097995 128 128 128
-991.154846 -5.132998 -147.024414 0.989166 0.000000 0.146702 128 128 128
-991.154846 948.673767 -147.024414 0.989166 0.000000 0.146702 128 128 128
-982.746826 -5.132998 -195.481003 0.980773 0.000000 0.195074 128 128 128
-982.746826 948.673767 -195.481003 0.980773 0.000000 0.195074 128 128 128
-971.971191 -5.132998 -243.466629 0.970031 0.000000 0.242958 128 128 128
-971.971191 948.673767 -243.466629 0.970031 0.000000 0.242958 128 128 128
-958.854126 -5.132998 -290.865784 0.956938 0.000000 0.290262 128 128 128
-958.854126 948.673767 -290.865784 0.956938 0.000000 0.290262 128 128 128
-943.427002 -5.132998 -337.564148 0.941527 0.000000 0.336863 128 128 128
-943.427002 948.673767 -337.564148 0.941527 0.000000 0.336863 128 128 128
-925.727173 -5.132998 -383.449371 0.923856 0.000000 0.382672 128 128 128
-925.727173 948.673767 -383.449371 0.923856 0.000000 0.382672 128 128 128
-905.797119 -5.132998 -428.410645 0.903989 0.000000 0.427534 128 128 128
-905.797119 948.673767 -428.410645 0.903989 0.000000 0.427534 128 128 128
-883.684998 -5.132998 -472.339874 0.881893 0.000000 0.471389 128 128 128
-883.684998 948.673767 -472.339874 0.881893 0.000000 0.471389 128 128 128
-859.443970 -5.132998 -515.131287 0.857723 0.000000 0.514084 128 128 128
-859.443970 948.673767 -515.131287 0.857723 0.000000 0.514084 128 128 128
-833.132507 -5.132998 -556.681519 0.831446 0.000000 0.555559 128 128 128
-833.132507 948.673767 -556.681519 0.831446 0.000000 0.555559 128 128 128
-804.813965 -5.132998 -596.890808 0.803186 0.000000 0.595691 128 128 128
-804.813965 948.673767 -596.890808 0.803186 0.000000 0.595691 128 128 128
-774.556519 -5.132998 -635.662048 0.773003 0.000000 0.634388 128 128 128
-774.556519 948.673767 -635.662048 0.773003 0.000000 0.634388 128 128 128
-742.433167 -5.132998 -672.901978 0.740928 0.000000 0.671529 128 128 128
-742.433167 948.673767 -672.901978 0.740928 0.000000 0.671529 128 128 128
-708.521240 -5.132998 -708.520874 0.707083 0.000000 0.707083 128 128 128
-708.521240 948.673767 -708.520874 0.707083 0.000000 0.707083 128 128 128
-672.902344 -5.132998 -742.432861 0.671529 0.000000 0.740928 128 128 128
-672.902344 948.673767 -742.432861 0.671529 0.000000 0.740928 128 128 128
-635.662415 -5.132998 -774.556213 0.634388 0.000000 0.773003 128 128 128
-635.662415 948.673767 -774.556213 0.634388 0.000000 0.773003 128 128 128
-596.891174 -5.132998 -804.813660 0.595691 0.000000 0.803186 128 128 128
-596.891174 948.673767 -804.813660 0.595691 0.000000 0.803186 128 128 128
-556.682007 -5.132998 -833.132202 0.555559 0.000000 0.831446 128 128 128
-556.682007 948.673767 -833.132202 0.555559 0.000000 0.831446 128 128 128
-515.131531 -5.132998 -859.443787 0.514084 0.000000 0.857723 128 128 128
-515.131531 948.673767 -859.443787 0.514084 0.000000 0.857723 128 128 128
-472.340271 -5.132998 -883.684692 0.471389 0.000000 0.881893 128 128 128
-472.340271 948.673767 -883.684692 0.471389 0.000000 0.881893 128 128 128
-428.411072 -5.132998 -905.796936 0.427534 0.000000 0.903958 128 128 128
-428.411072 948.673767 -905.796936 0.427534 0.000000 0.903958 128 128 128
-383.449738 -5.132998 -925.726990 0.382672 0.000000 0.923856 128 128 128
-383.449738 948.673767 -925.726990 0.382672 0.000000 0.923856 128 128 128
-337.564728 -5.132998 -943.426819 0.336863 0.000000 0.941527 128 128 128
-337.564728 948.673767 -943.426819 0.336863 0.000000 0.941527 128 128 128
-290.866425 -5.132998 -958.853943 0.290262 0.000000 0.956938 128 128 128
-290.866425 948.673767 -958.853943 0.290262 0.000000 0.956938 128 128 128
-243.467438 -5.132998 -971.971008 0.242958 0.000000 0.970031 128 128 128
-243.467438 948.673767 -971.971008 0.242958 0.000000 0.970031 128 128 128
-195.481903 -5.132998 -982.746643 0.195074 0.000000 0.980773 128 128 128
-195.481903 948.673767 -982.746643 0.195074 0.000000 0.980773 128 128 128
-147.025452 -5.132998 -991.154663 0.146702 0.000000 0.989166 128 128 128
-147.025452 948.673767 -991.154663 0.146702 0.000000 0.989166 128 128 128
-98.214798 -5.132998 -997.174988 0.097995 0.000000 0.995178 128 128 128
-98.214798 948.673767 -997.174988 0.097995 0.000000 0.995178 128 128 128
-49.167538 -5.132998 -1000.792969 0.049043 0.000000 0.998779 128 128 128
-49.167538 948.673767 -1000.792969 0.049043 0.000000 0.998779 128 128 128
-0.001824 -5.132998 -1002.000061 0.000000 0.000000 0.999969 128 128 128
-0.001824 948.673767 -1002.000061 0.000000 0.000000 0.999969 128 128 128
49.163895 -5.132998 -1000.793213 -0.049043 0.000000 0.998779 128 128 128
49.163895 948.673767 -1000.793213 -0.049043 0.000000 0.998779 128 128 128
98.211166 -5.132998 -997.175354 -0.097995 0.000000 0.995178 128 128 128
98.211166 948.673767 -997.175354 -0.097995 0.000000 0.995178 128 128 128
147.021851 -5.132998 -991.155212 -0.146702 0.000000 0.989166 128 128 128
147.021851 948.673767 -991.155212 -0.146702 0.000000 0.989166 128 128 128
195.478333 -5.132998 -982.747375 -0.195074 0.000000 0.980773 128 128 128
195.478333 948.673767 -982.747375 -0.195074 0.000000 0.980773 128 128 128
243.463898 -5.132998 -971.971924 -0.242958 0.000000 0.970031 128 128 128
243.463898 948.673767 -971.971924 -0.242958 0.000000 0.970031 128 128 128
290.862976 -5.132998 -958.854980 -0.290262 0.000000 0.956938 128 128 128
290.862976 948.673767 -958.854980 -0.290262 0.000000 0.956938 128 128 128
337.561249 -5.132998 -943.428040 -0.336863 0.000000 0.941527 128 128 128
337.561249 948.673767 -943.428040 -0.336863 0.000000 0.941527 128 128 128
383.446411 -5.132998 -925.728271 -0.382672 0.000000 0.923856 128 128 128
383.446411 948.673767 -925.728271 -0.382672 0.000000 0.923856 128 128 128
428.407776 -5.132998 -905.798462 -0.427534 0.000000 0.903989 128 128 128
428.407776 948.673767 -905.798462 -0.427534 0.000000 0.903989 128 128 128
472.337067 -5.132998 -883.686523 -0.471389 0.000000 0.881893 128 128 128
472.337067 948.673767 -883.686523 -0.471389 0.000000 0.881893 128 128 128
515.128479 -5.132998 -859.445618 -0.514084 0.000000 0.857723 128 128 128
515.128479 948.673767 -859.445618 -0.514084 0.000000 0.857723 128 128 128
556.678955 -5.132998 -833.134277 -0.555559 0.000000 0.831446 128 128 128
556.678955 948.673767 -833.134277 -0.555559 0.000000 0.831446 128 128 128
596.888245 -5.132998 -804.815857 -0.595691 0.000000 0.803186 128 128 128
596.888245 948.673767 -804.815857 -0.595691 0.000000 0.803186 128 128 128
635.659607 -5.132998 -774.558594 -0.634388 0.000000 0.773003 128 128 128
635.659607 948.673767 -774.558594 -0.634388 0.000000 0.773003 128 128 128
672.899719 -5.132998 -742.435303 -0.671529 0.000000 0.740928 128 128 128
672.899719 948.673767 -742.435303 -0.671529 0.000000 0.740928 128 128 128
708.518616 -5.132998 -708.523499 -0.707083 0.000000 0.707083 128 128 128
708.518616 948.673767 -708.523499 -0.707083 0.000000 0.707083 128 128 128
742.430725 -5.132998 -672.904724 -0.740928 0.000000 0.671560 128 128 128
742.430725 948.673767 -672.904724 -0.740928 0.000000 0.671560 128 128 128
774.554443 -5.132998 -635.664734 -0.773003 0.000000 0.634388 128 128 128
774.554443 948.673767 -635.664734 -0.773003 0.000000 0.634388 128 128 128
804.812073 -5.132998 -596.893250 -0.803186 0.000000 0.595691 128 128 128
804.812073 948.673767 -596.893250 -0.803186 0.000000 0.595691 128 128 128
833.130798 -5.132998 -556.683960 -0.831446 0.000000 0.555559 128 128 128
833.130798 948.673767 -556.683960 -0.831446 0.000000 0.555559 128 128 128
859.442627 -5.132998 -515.133484 -0.857723 0.000000 0.514084 128 128 128
859.442627 948.673767 -515.133484 -0.857723 0.000000 0.514084 128 128 128
883.683838 -5.132998 -472.342041 -0.881893 0.000000 0.471389 128 128 128
883.683838 948.673767 -472.342041 -0.881893 0.000000 0.471389 128 128 128
905.796143 -5.132998 -428.412659 -0.903958 0.000000 0.427534 128 128 128
905.796143 948.673767 -428.412659 -0.903958 0.000000 0.427534 128 128 128
925.726379 -5.132998 -383.451141 -0.923856 0.000000 0.382672 128 128 128
925.726379 948.673767 -383.451141 -0.923856 0.000000 0.382672 128 128 128
943.426392 -5.132998 -337.565918 -0.941527 0.000000 0.336863 128 128 128
943.426392 948.673767 -337.565918 -0.941527 0.000000 0.336863 128 128 128
958.853577 -5.132998 -290.867432 -0.956938 0.000000 0.290262 128 128 128
958.853577 948.673767 -290.867432 -0.956938 0.000000 0.290262 128 128 128
971.970825 -5.132998 -243.468201 -0.970000 0.000000 0.242958 128 128 128
971.970825 948.673767 -243.468201 -0.970000 0.000000 0.242958 128 128 128
982.746460 -5.132998 -195.482468 -0.980773 0.000000 0.195074 128 128 128
982.746460 948.673767 -195.482468 -0.980773 0.000000 0.195074 128 128 128
991.154602 -5.132998 -147.025757 -0.989166 0.000000 0.146702 128 128 128
991.154602 948.673767 -147.025757 -0.989166 0.000000 0.146702 128 128 128
997.174988 -5.132998 -98.214867 -0.995178 0.000000 0.097995 128 128 128
997.174988 948.673767 -98.214867 -0.995178 0.000000 0.097995 128 128 128
1000.792969 -5.132998 -49.167370 -0.998779 0.000000 0.049043 128 128 128
1000.792969 948.673767 -49.167370 -0.998779 0.000000 0.049043 128 128 128
1002.000061 -5.132998 -0.001421 -1.000000 0.000000 0.000000 128 128 128
1002.000061 948.673767 -0.001421 -1.000000 0.000000 0.000000 128 128 128
1000.793152 -5.132998 49.164536 -0.998779 0.000000 -0.049043 128 128 128
1000.793152 948.673767 49.164536 -0.998779 0.000000 -0.049043 128 128 128
997.175293 -5.132998 98.212044 -0.995178 0.000000 -0.097995 128 128 128
997.175293 948.673767 98.212044 -0.995178 0.000000 -0.097995 128 128 128
991.155029 -5.132998 147.022964 -0.989166 0.000000 -0.146702 128 128 128
991.155029 948.673767 147.022964 -0.989166 0.000000 -0.146702 128 128 128
982.747070 -5.132998 195.479660 -0.980773 0.000000 -0.195074 128 128 128
982.747070 948.673767 195.479660 -0.980773 0.000000 -0.195074 128 128 128
971.971558 -5.132998 243.465454 -0.970031 0.000000 -0.242958 128 128 128
971.971558 948.673767 243.465454 -0.970031 0.000000 -0.242958 128 128 128
958.854492 -5.132998 290.864685 -0.956938 0.000000 -0.290262 128 128 128
958.854492 948.673767 290.864685 -0.956938 0.000000 -0.290262 128 128 128
943.427368 -5.132998 337.563263 -0.941527 0.000000 -0.336863 128 128 128
943.427368 948.673767 337.563263 -0.941527 0.000000 -0.336863 128 128 128
925.727417 -5.132998 383.448547 -0.923856 0.000000 -0.382672 128 128 128
925.727417 948.673767 383.448547 -0.923856 0.000000 -0.382672 128 128 128
905.797424 -5.132998 428.410065 -0.903989 0.000000 -0.427534 128 128 128
905.797424 948.673767 428.410065 -0.903989 0.000000 -0.427534 128 128 128
883.685181 -5.132998 472.339539 -0.881893 0.000000 -0.471389 128 128 128
883.685181 948.673767 472.339539 -0.881893 0.000000 -0.471389 128 128 128
859.444031 -5.132998 515.131104 -0.857723 0.000000 -0.514084 128 128 128
859.444031 948.673767 515.131104 -0.857723 0.000000 -0.514084 128 128 128
833.132446 -5.132998 556.681580 -0.831446 0.000000 -0.555559 128 128 128
833.132446 948.673767 556.681580 -0.831446 0.000000 -0.555559 128 128 128
804.813721 -5.132998 596.891052 -0.803186 0.000000 -0.595691 128 128 128
804.813721 948.673767 596.891052 -0.803186 0.000000 -0.595691 128 128 128
774.556213 -5.132998 635.662476 -0.773003 0.000000 -0.634388 128 128 128
774.556213 948.673767 635.662476 -0.773003 0.000000 -0.634388 128 128 128
742.432678 -5.132998 672.902649 -0.740928 0.000000 -0.671529 128 128 128
742.432678 948.673767 672.902649 -0.740928 0.000000 -0.671529 128 128 128
708.520508 -5.132998 708.521606 -0.707083 0.000000 -0.707083 128 128 128
708.520508 948.673767 708.521606 -0.707083 0.000000 -0.707083 128 128 128
672.901428 -5.132998 742.433716 -0.671529 0.000000 -0.740928 128 128 128
672.901428 948.673767 742.433716 -0.671529 0.000000 -0.740928 128 128 128
635.661316 -5.132998 774.557251 -0.634388 0.000000 -0.773003 128 128 128
635.661316 948.673767 774.557251 -0.634388 0.000000 -0.773003 128 128 128
596.889771 -5.132998 804.814758 -0.595691 0.000000 -0.803186 128 128 128
596.889771 948.673767 804.814758 -0.595691 0.000000 -0.803186 128 128 128
556.680298 -5.132998 833.133362 -0.555559 0.000000 -0.831446 128 128 128
556.680298 948.673767 833.133362 -0.555559 0.000000 -0.831446 128 128 128
515.129700 -5.132998 859.444824 -0.514084 0.000000 -0.857723 128 128 128
515.129700 948.673767 859.444824 -0.514084 0.000000 -0.857723 128 128 128
472.338104 -5.132998 883.685974 -0.471389 0.000000 -0.881893 128 128 128
472.338104 948.673767 883.685974 -0.471389 0.000000 -0.881893 128 128 128
428.408600 -5.132998 905.798035 -0.427534 0.000000 -0.903989 128 128 128
428.408600 948.673767 905.798035 -0.427534 0.000000 -0.903989 128 128 128
383.447052 -5.132998 925.728088 -0.382672 0.000000 -0.923856 128 128 128
383.447052 948.673767 925.728088 -0.382672 0.000000 -0.923856 128 128 128
337.561737 -5.132998 943.427856 -0.336863 0.000000 -0.941527 128 128 128
337.561737 948.673767 943.427856 -0.336863 0.000000 -0.941527 128 128 128
290.863159 -5.132998 958.854919 -0.290262 0.000000 -0.956938 128 128 128
290.863159 948.673767 958.854919 -0.290262 0.000000 -0.956938 128 128 128
243.463882 -5.132998 971.971924 -0.242958 0.000000 -0.970031 128 128 128
243.463882 948.673767 971.971924 -0.242958 0.000000 -0.970031 128 128 128
195.478088 -5.132998 982.747437 -0.195074 0.000000 -0.980773 128 128 128
195.478088 948.673767 982.747437 -0.195074 0.000000 -0.980773 128 128 128
147.021347 -5.132998 991.155273 -0.146702 0.000000 -0.989166 128 128 128
147.021347 948.673767 991.155273 -0.146702 0.000000 -0.989166 128 128 128
98.210434 -5.132998 997.175476 -0.097995 0.000000 -0.995178 128 128 128
98.210434 948.673767 997.175476 -0.097995 0.000000 -0.995178 128 128 128
49.162914 -5.132998 1000.793213 -0.049043 0.000000 -0.998779 128 128 128
49.162914 948.673767 1000.793213 -0.049043 0.000000 -0.998779 128 128 128
49.163895 -5.132998 -1000.793213 0.000000 1.000000 0.000000 128 128 128
-0.001824 -5.132998 -1002.000061 0.000000 1.000000 0.000000 128 128 128
-49.167538 -5.132998 -1000.792969 0.000000 1.000000 0.000000 128 128 128
98.211166 -5.132998 -997.175354 0.000000 0.999969 0.000000 128 128 128
-98.214798 -5.132998 -997.174988 0.000000 1.000000 0.000000 128 128 128
147.021851 -5.132998 -991.155212 0.000000 1.000000 0.000000 128 128 128
-147.025452 -5.132998 -991.154663 0.000000 0.999969 0.000000 128 128 128
195.478333 -5.132998 -982.747375 0.000000 1.000000 0.000000 128 128 128
-195.481903 -5.132998 -982.746643 0.000000 1.000000 0.000000 128 128 128
243.463898 -5.132998 -971.971924 0.000000 1.000000 0.000000 128 128 128
-243.467438 -5.132998 -971.971008 0.000000 1.000000 0.000000 128 128 128
290.862976 -5.132998 -958.854980 0.000000 1.000000 0.000000 128 128 128
-290.866425 -5.132998 -958.853943 0.000000 1.000000 0.000000 128 128 128
337.561249 -5.132998 -943.428040 0.000000 1.000000 0.000000 128 128 128
-337.564728 -5.132998 -943.426819 0.000000 0.999969 0.000000 128 128 128
383.446411 -5.132998 -925.728271 0.000000 0.999969 0.000000 128 128 128
-383.449738 -5.132998 -925.726990 0.000000 1.000000 0.000000 128 128 128
428.407776 -5.132998 -905.798462 0.000000 1.000000 0.000000 128 128 128
-428.411072 -5.132998 -905.796936 0.000000 0.999969 0.000000 128 128 128
472.337067 -5.132998 -883.686523 0.000000 1.000000 0.000000 128 128 128
-472.340271 -5.132998 -883.684692 0.000000 1.000000 0.000000 128 128 128
515.128479 -5.132998 -859.445618 0.000000 1.000000 0.000000 128 128 128
-515.131531 -5.132998 -859.443787 0.000000 1.000000 0.000000 128 128 128
556.678955 -5.132998 -833.134277 0.000000 1.000000 0.000000 128 128 128
-556.682007 -5.132998 -833.132202 0.000000 0.999969 0.000000 128 128 128
596.888245 -5.132998 -804.815857 0.000000 1.000000 0.000000 128 128 128
-596.891174 -5.132998 -804.813660 0.000000 0.999969 0.000000 128 128 128
635.659607 -5.132998 -774.558594 0.000000 0.999969 0.000000 128 128 128
-635.662415 -5.132998 -774.556213 0.000000 1.000000 0.000000 128 128 128
672.899719 -5.132998 -742.435303 0.000000 1.000000 0.000000 128 128 128
-672.902344 -5.132998 -742.432861 0.000000 1.000000 0.000000 128 128 128
708.518616 -5.132998 -708.523499 0.000000 0.999969 0.000000 128 128 128
-708.521240 -5.132998 -708.520874 0.000000 1.000000 0.000000 128 128 128
742.430725 -5.132998 -672.904724 0.000000 1.000000 0.000000 128 128 128
-742.433167 -5.132998 -672.901978 0.000000 1.000000 0.000000 128 128 128
774.554443 -5.132998 -635.664734 0.000000 1.000000 0.000000 128 128 128
-774.556519 -5.132998 -635.662048 0.000000 1.000000 0.000000 128 128 128
804.812073 -5.132998 -596.893250 0.000000 1.000000 0.000000 128 128 128
-804.813965 -5.132998 -596.890808 0.000000 1.000000 0.000000 128 128 128
833.130798 -5.132998 -556.683960 0.000000 0.999969 0.000000 128 128 128
-833.132507 -5.132998 -556.681519 0.000000 1.000000 0.000000 128 128 128
859.442627 -5.132998 -515.133484 0.000000 1.000000 0.000000 128 128 128
-859.443970 -5.132998 -515.131287 0.000000 1.000000 0.000000 128 128 128
883.683838 -5.132998 -472.342041 0.000000 1.000000 0.000000 128 128 128
-883.684998 -5.132998 -472.339874 0.000000 0.999969 0.000000 128 128 128
905.796143 -5.132998 -428.412659 0.000000 1.000000 0.000000 128 128 128
-905.797119 -5.132998 -428.410645 0.000000 1.000000 0.000000 128 128 128
925.726379 -5.132998 -383.451141 0.000000 0.999969 0.000000 128 128 128
-925.727173 -5.132998 -383.449371 0.000000 1.000000 0.000000 128 128 128
943.426392 -5.132998 -337.565918 0.000000 1.000000 0.000000 128 128 128
-943.427002 -5.132998 -337.564148 0.000000 1.000000 0.000000 128 128 128
958.853577 -5.132998 -290.867432 0.000000 1.000000 0.000000 128 128 128
-958.854126 -5.132998 -290.865784 0.000000 1.000000 0.000000 128 128 128
971.970825 -5.132998 -243.468201 0.000000 1.000000 0.000000 128 128 128
-971.971191 -5.132998 -243.466629 0.000000 1.000000 0.000000 128 128 128
982.746460 -5.132998 -195.482468 0.000000 1.000000 0.000000 128 128 128
-982.746826 -5.132998 -195.481003 0.000000 1.000000 0.000000 128 128 128
991.154602 -5.132998 -147.025757 0.000000 1.000000 0.000000 128 128 128
-991.154846 -5.132998 -147.024414 0.000000 0.999969 0.000000 128 128 128
997.174988 -5.132998 -98.214867 0.000000 1.000000 0.000000 128 128 128
-997.175110 -5.132998 -98.213623 0.000000 1.000000 0.000000 128 128 128
1000.792969 -5.132998 -49.167370 0.000000 1.000000 0.000000 128 128 128
-1000.793091 -5.132998 -49.166233 0.000000 0.999969 0.000000 128 128 128
1002.000061 -5.132998 -0.001421 0.000000 1.000000 0.000000 128 128 128
-1002.000061 -5.132998 -0.000402 0.000000 1.000000 0.000000 128 128 128
1000.793152 -5.132998 49.164536 0.000000 0.999969 0.000000 128 128 128
-1000.793091 -5.132998 49.165432 0.000000 1.000000 0.000000 128 128 128
997.175293 -5.132998 98.212044 0.000000 1.000000 0.000000 128 128 128
-997.175232 -5.132998 98.212814 0.000000 1.000000 0.000000 128 128 128
991.155029 -5.132998 147.022964 0.000000 1.000000 0.000000 128 128 128
-991.154968 -5.132998 147.023605 0.000000 0.999969 0.000000 128 128 128
982.747070 -5.132998 195.479660 0.000000 1.000000 0.000000 128 128 128
-982.747009 -5.132998 195.480209 0.000000 1.000000 0.000000 128 128 128
971.971558 -5.132998 243.465454 0.000000 1.000000 0.000000 128 128 128
-971.971436 -5.132998 243.465866 0.000000 1.000000 0.000000 128 128 128
958.854492 -5.132998 290.864685 0.000000 1.000000 0.000000 128 128 128
-958.854370 -5.132998 290.864960 0.000000 1.000000 0.000000 128 128 128
943.427368 -5.132998 337.563263 0.000000 1.000000 0.000000 128 128 128
-943.427307 -5.132998 337.563385 0.000000 1.000000 0.000000 128 128 128
925.727417 -5.132998 383.448547 0.000000 1.000000 0.000000 128 128 128
-925.727417 -5.132998 383.448608 0.000000 0.999969 0.000000 128 128 128
905.797424 -5.132998 428.410065 0.000000 1.000000 0.000000 128 128 128
-905.797424 -5.132998 428.410034 0.000000 1.000000 0.000000 128 128 128
-883.685242 -5.132998 472.339355 0.000000 0.999969 0.000000 128 128 128
883.685181 -5.132998 472.339539 0.000000 1.000000 0.000000 128 128 128
-859.444214 -5.132998 515.130798 0.000000 1.000000 0.000000 128 128 128
859.444031 -5.132998 515.131104 0.000000 1.000000 0.000000 128 128 128
-833.132690 -5.132998 556.681274 0.000000 1.000000 0.000000 128 128 128
833.132446 -5.132998 556.681580 0.000000 1.000000 0.000000 128 128 128
-804.814087 -5.132998 596.890564 0.000000 1.000000 0.000000 128 128 128
804.813721 -5.132998 596.891052 0.000000 1.000000 0.000000 128 128 128
-774.556580 -5.132998 635.662048 0.000000 1.000000 0.000000 128 128 128
774.556213 -5.132998 635.662476 0.000000 0.999969 0.000000 128 128 128
-742.433105 -5.132998 672.901978 0.000000 1.000000 0.000000 128 128 128
742.432678 -5.132998 672.902649 0.000000 1.000000 0.000000 128 128 128
-708.521118 -5.132998 708.520996 0.000000 1.000000 0.000000 128 128 128
708.520508 -5.132998 708.521606 0.000000 1.000000 0.000000 128 128 128
-672.902100 -5.132998 742.433044 0.000000 0.999969 0.000000 128 128 128
672.901428 -5.132998 742.433716 0.000000 0.999969 0.000000 128 128 128
-635.662109 -5.132998 774.556458 0.000000 1.000000 0.000000 128 128 128
635.661316 -5.132998 774.557251 0.000000 1.000000 0.000000 128 128 128
-596.890747 -5.132998 804.813965 0.000000 1.000000 0.000000 128 128 128
596.889771 -5.132998 804.814758 0.000000 1.000000 0.000000 128 128 128
-556.681396 -5.132998 833.132568 0.000000 1.000000 0.000000 128 128 128
556.680298 -5.132998 833.133362 0.000000 1.000000 0.000000 128 128 128
-515.131042 -5.132998 859.444092 0.000000 0.999969 0.000000 128 128 128
515.129700 -5.132998 859.444824 0.000000 1.000000 0.000000 128 128 128
-472.339539 -5.132998 883.685181 0.000000 1.000000 0.000000 128 128 128
472.338104 -5.132998 883.685974 0.000000 1.000000 0.000000 128 128 128
-428.410187 -5.132998 905.797363 0.000000 1.000000 0.000000 128 128 128
428.408600 -5.132998 905.798035 0.000000 1.000000 0.000000 128 128 128
-383.448822 -5.132998 925.727356 0.000000 1.000000 0.000000 128 128 128
383.447052 -5.132998 925.728088 0.000000 1.000000 0.000000 128 128 128
-337.563629 -5.132998 943.427185 0.000000 1.000000 0.000000 128 128 128
337.561737 -5.132998 943.427856 0.000000 1.000000 0.000000 128 128 128
-290.865265 -5.132998 958.854309 0.000000 1.000000 0.000000 128 128 128
290.863159 -5.132998 958.854919 0.000000 1.000000 0.000000 128 128 128
-243.466171 -5.132998 971.971375 0.000000 0.999969 0.000000 128 128 128
243.463882 -5.132998 971.971924 0.000000 0.999969 0.000000 128 128 128
-195.480515 -5.132998 982.746887 0.000000 1.000000 0.000000 128 128 128
195.478088 -5.132998 982.747437 0.000000 1.000000 0.000000 128 128 128
-147.023926 -5.132998 991.154907 0.000000 0.999969 0.000000 128 128 128
147.021347 -5.132998 991.155273 0.000000 1.000000 0.000000 128 128 128
-98.213173 -5.132998 997.175171 0.000000 1.000000 0.000000 128 128 128
98.210434 -5.132998 997.175476 0.000000 1.000000 0.000000 128 128 128
-49.165813 -5.132998 1000.793091 0.000000 1.000000 0.000000 128 128 128
49.162914 -5.132998 1000.793213 0.000000 1.000000 0.000000 128 128 128
0.000000 -5.132998 1002.000061 0.000000 0.999969 0.000000 128 128 128
4 0 1 2 3
4 3 2 4 5
4 5 4 6 7
4 7 6 8 9
4 9 8 10 11
4 11 10 12 13
4 13 12 14 15
4 15 14 16 17
4 17 16 18 19
4 19 18 20 21
4 21 20 22 23
4 23 22 24 25
4 25 24 26 27
4 27 26 28 29
4 29 28 30 31
4 31 30 32 33
4 33 32 34 35
4 35 34 36 37
4 37 36 38 39
4 39 38 40 41
4 41 40 42 43
4 43 42 44 45
4 45 44 46 47
4 47 46 48 49
4 49 48 50 51
4 51 50 52 53
4 53 52 54 55
4 55 54 56 57
4 57 56 58 59
4 59 58 60 61
3 62 63 64
3 62 64 65
3 66 62 65
3 66 65 67
3 68 66 67
3 68 67 69
3 70 68 69
3 70 69 71
3 72 70 71
3 72 71 73
3 74 72 73
3 74 73 75
3 76 74 75
3 76 75 77
3 78 76 77
3 78 77 79
3 80 78 79
3 80 79 81
3 82 80 81
3 82 81 83
3 84 82 83
3 84 83 85
3 86 84 85
3 86 85 87
3 88 86 87
3 88 87 89
3 90 88 89
3 91 90 89
3 91 92 90
3 91 93 92
4 1 0 94 95
4 61 60 95 94
3 96 97 98
3 97 99 98
3 97 100 99
3 100 101 99
3 100 102 101
3 102 103 101
3 102 104 103
3 104 105 103
3 104 106 105
3 106 107 105
3 106 108 107
3 108 109 107
3 108 110 109
3 110 111 109
3 110 112 111
3 112 113 111
3 112 114 113
3 114 115 113
3 114 116 115
3 116 117 115
3 116 118 117
3 118 119 117
3 118 120 119
3 120 121 119
3 120 122 121
3 122 123 121
3 122 124 123
3 124 125 123
3 125 126 123
3 125 127 126
4 128 129 130 131
4 129 132 133 130
4 132 134 135 133
4 134 136 137 135
4 136 138 139 137
4 138 140 141 139
4 140 142 143 141
4 142 144 145 143
4 144 146 147 145
4 146 148 149 147
4 148 150 151 149
4 150 152 153 151
4 152 154 155 153
4 154 156 157 155
4 156 158 159 157
4 158 160 161 159
4 160 162 163 161
4 162 164 165 163
4 164 166 167 165
4 166 168 169 167
4 168 170 171 169
4 170 172 173 171
4 172 174 175 173
4 174 176 177 175
4 176 178 179 177
4 178 180 181 179
4 180 182 183 181
4 182 184 185 183
4 184 186 187 185
4 186 188 189 187
4 188 190 191 189
4 190 192 193 191
4 192 194 195 193
4 194 196 197 195
4 196 198 199 197
4 198 200 201 199
4 200 202 203 201
4 202 204 205 203
4 204 206 207 205
4 206 208 209 207
4 208 210 211 209
4 210 212 213 211
4 212 214 215 213
4 214 216 217 215
4 216 218 219 217
4 218 220 221 219
4 220 222 223 221
4 222 224 225 223
4 224 226 227 225
4 226 228 229 227
4 228 230 231 229
4 230 232 233 231
4 232 234 235 233
4 234 236 237 235
4 236 238 239 237
4 238 240 241 239
4 240 242 243 241
4 242 244 245 243
4 244 246 247 245
4 246 248 249 247
4 248 250 251 249
4 250 252 253 251
4 252 254 255 253
4 254 256 257 255
4 256 258 259 257
4 258 260 261 259
4 260 262 263 261
4 262 264 265 263
4 264 266 267 265
4 266 268 269 267
4 268 270 271 269
4 270 272 273 271
4 272 274 275 273
4 274 276 277 275
4 276 278 279 277
4 278 280 281 279
4 280 282 283 281
4 282 284 285 283
4 284 286 287 285
4 286 288 289 287
4 288 290 291 289
4 290 292 293 291
4 292 294 295 293
4 294 296 297 295
4 296 298 299 297
4 298 300 301 299
4 300 302 303 301
4 302 304 305 303
4 304 306 307 305
4 306 308 309 307
4 308 310 311 309
4 310 312 313 311
4 312 314 315 313
4 314 316 317 315
4 316 318 319 317
4 318 320 321 319
4 320 322 323 321
4 322 324 325 323
4 324 326 327 325
4 326 328 329 327
4 328 330 331 329
4 330 332 333 331
4 332 334 335 333
4 334 336 337 335
4 336 338 339 337
4 338 340 341 339
4 340 342 343 341
4 342 344 345 343
4 344 346 347 345
4 346 348 349 347
4 348 350 351 349
4 350 352 353 351
4 352 354 355 353
4 354 356 357 355
4 356 358 359 357
4 358 360 361 359
4 360 362 363 361
4 362 364 365 363
4 364 366 367 365
4 366 368 369 367
4 368 370 371 369
4 370 372 373 371
4 372 374 375 373
4 374 376 377 375
4 376 378 379 377
4 378 380 381 379
4 382 128 131 383
4 380 382 383 381
3 384 385 386
3 387 384 386
3 387 386 388
3 389 387 388
3 389 388 390
3 391 389 390
3 391 390 392
3 393 391 392
3 393 392 394
3 395 393 394
3 395 394 396
3 397 395 396
3 397 396 398
3 399 397 398
3 399 398 400
3 401 399 400
3 401 400 402
3 403 401 402
3 403 402 404
3 405 403 404
3 405 404 406
3 407 405 406
3 407 406 408
3 409 407 408
3 409 408 410
3 411 409 410
3 411 410 412
3 413 411 412
3 413 412 414
3 415 413 414
3 415 414 416
3 417 415 416
3 417 416 418
3 419 417 418
3 419 418 420
3 421 419 420
3 421 420 422
3 423 421 422
3 423 422 424
3 425 423 424
3 425 424 426
3 427 425 426
3 427 426 428
3 429 427 428
3 429 428 430
3 431 429 430
3 431 430 432
3 433 431 432
3 433 432 434
3 435 433 434
3 435 434 436
3 437 435 436
3 437 436 438
3 439 437 438
3 439 438 440
3 441 439 440
3 441 440 442
3 443 441 442
3 443 442 444
3 445 443 444
3 445 444 446
3 447 445 446
3 447 446 448
3 449 447 448
3 449 448 450
3 451 449 450
3 451 450 452
3 453 451 452
3 453 452 454
3 455 453 454
3 455 454 456
3 457 455 456
3 457 456 458
3 459 457 458
3 459 458 460
3 461 459 460
3 461 460 462
3 463 461 462
3 463 462 464
3 465 463 464
3 465 464 466
3 465 466 467
3 468 465 467
3 468 467 469
3 470 468 469
3 470 469 471
3 472 470 471
3 472 471 473
3 474 472 473
3 474 473 475
3 476 474 475
3 476 475 477
3 478 476 477
3 478 477 479
3 480 478 479
3 480 479 481
3 482 480 481
3 482 481 483
3 484 482 483
3 484 483 485
3 486 484 485
3 486 485 487
3 488 486 487
3 488 487 489
3 490 488 489
3 490 489 491
3 492 490 491
3 492 491 493
3 494 492 493
3 494 493 495
3 496 494 495
3 496 495 497
3 498 496 497
3 498 497 499
3 500 498 499
3 500 499 501
3 502 500 501
3 502 501 503
3 504 502 503
3 504 503 505
3 506 504 505
3 506 505 507
3 508 506 507
3 508 507 509
3 510 508 509
3 511 510 509
