ply
format ascii 1.0
comment Created by Blender 2.68 (sub 0) - www.blender.org, source file: 'Test World.blend'
element vertex 228
property float x
property float y
property float z
property float nx
property float ny
property float nz
element face 57
property list uchar uint vertex_indices
end_header
-968.885620 -20.202353 968.696350 -1.000000 0.000000 0.000000
-968.885620 39.878120 968.696350 -1.000000 0.000000 0.000000
-968.885620 39.878120 -971.675903 -1.000000 0.000000 0.000000
-968.885620 -20.202353 -971.675903 -1.000000 0.000000 0.000000
971.486633 -20.202353 -971.675903 1.000000 0.000000 0.000000
971.486633 39.878120 -971.675903 1.000000 0.000000 0.000000
971.486633 39.878120 968.696350 1.000000 0.000000 0.000000
971.486633 -20.202353 968.696350 1.000000 0.000000 0.000000
-968.885620 39.878120 968.696350 0.000000 0.000000 1.000000
-968.885620 -20.202353 968.696350 0.000000 0.000000 1.000000
971.486633 -20.202353 968.696350 0.000000 0.000000 1.000000
971.486633 39.878120 968.696350 0.000000 0.000000 1.000000
-968.885620 -20.202353 -971.675903 -0.000000 0.000000 -1.000000
-968.885620 39.878120 -971.675903 -0.000000 0.000000 -1.000000
971.486633 39.878120 -971.675903 -0.000000 0.000000 -1.000000
971.486633 -20.202353 -971.675903 -0.000000 0.000000 -1.000000
14.541864 38.041237 -5.657228 -0.608901 -0.061535 0.790856
11.312862 54.375885 -10.131571 -0.608901 -0.061535 0.790856
-4.956155 54.375885 -19.398287 -0.608901 -0.061535 0.790856
1.977839 38.041237 -18.589821 -0.608901 -0.061535 0.790856
25.738020 76.242355 -42.808510 -0.053934 -0.893063 0.446688
3.060410 92.538261 -13.233307 -0.053934 -0.893063 0.446688
-16.435156 92.276199 -15.844092 -0.053934 -0.893063 0.446688
-19.036066 75.172615 -50.620392 -0.053934 -0.893063 0.446688
6.788558 38.041237 24.074417 -0.793545 -0.031513 -0.607695
11.649284 54.375885 20.583845 -0.793545 -0.031513 -0.607695
19.883352 54.375885 6.127792 -0.793545 -0.031513 -0.607695
18.326445 38.041237 12.711683 -0.793545 -0.031513 -0.607695
-14.542903 38.041237 -15.273438 0.793545 -0.031513 0.607695
-19.403631 54.375885 -11.782864 0.793545 -0.031513 0.607695
-27.637697 54.375885 2.673191 0.793545 -0.031513 0.607695
-26.080791 38.041237 -3.910702 0.793545 -0.031513 0.607695
-22.296213 38.041237 14.458209 0.608901 -0.061535 -0.790856
-19.067207 54.375885 18.932552 0.608901 -0.061535 -0.790856
-2.798191 54.375885 28.199268 0.608901 -0.061535 -0.790856
-9.732185 38.041237 27.390800 0.608901 -0.061535 -0.790856
-3.877172 92.963448 4.400492 0.026292 -0.999584 -0.011850
-10.814754 92.538261 22.034292 0.026292 -0.999584 -0.011850
-25.458126 92.276199 14.490520 0.026292 -0.999584 -0.011850
-23.137529 92.508957 -2.835037 0.026292 -0.999584 -0.011850
44.629990 76.225746 34.675182 -0.452550 -0.890216 -0.052098
15.383183 92.508957 11.636024 -0.452550 -0.890216 -0.052098
17.703781 92.276199 -5.689535 -0.452550 -0.890216 -0.052098
51.742954 75.183319 -8.154828 -0.452550 -0.890216 -0.052098
-52.384335 76.225746 -25.874187 0.452550 -0.890216 0.052098
-23.137529 92.508957 -2.835037 0.452550 -0.890216 0.052098
-25.458126 92.276199 14.490520 0.452550 -0.890216 0.052098
-59.497288 75.183319 16.955811 0.452550 -0.890216 0.052098
-33.492367 76.242355 51.609497 0.053934 -0.893063 -0.446688
-10.814754 92.538261 22.034292 0.053934 -0.893063 -0.446688
8.680809 92.276199 24.645077 0.053934 -0.893063 -0.446688
11.281709 75.172615 59.421383 0.053934 -0.893063 -0.446688
18.326445 38.041237 12.711683 -0.939830 0.065401 0.335323
19.883352 54.375885 6.127792 -0.939830 0.065401 0.335323
11.312862 54.375885 -10.131571 -0.939830 0.065401 0.335323
14.541864 38.041237 -5.657228 -0.939830 0.065401 0.335323
14.960258 21.706591 18.984632 -0.996262 0.063244 0.058839
18.326445 38.041237 12.711683 -0.996262 0.063244 0.058839
14.541864 38.041237 -5.657228 -0.996262 0.063244 0.058839
16.513700 21.706591 -0.423994 -0.996262 0.063244 0.058839
16.513700 21.706591 -0.423994 -0.807726 -0.067432 0.585689
14.541864 38.041237 -5.657228 -0.807726 -0.067432 0.585689
1.977839 38.041237 -18.589821 -0.807726 -0.067432 0.585689
8.390439 21.706591 -16.021353 -0.807726 -0.067432 0.585689
51.742954 75.183319 -8.154828 -0.347826 -0.885759 0.307325
17.703781 92.276199 -5.689535 -0.347826 -0.885759 0.307325
3.060410 92.538261 -13.233307 -0.347826 -0.885759 0.307325
25.738020 76.242355 -42.808510 -0.347826 -0.885759 0.307325
19.883352 54.375885 6.127792 -0.445847 0.835891 0.320165
51.742954 75.183319 -8.154828 -0.445847 0.835891 0.320165
25.738020 76.242355 -42.808510 -0.445847 0.835891 0.320165
11.312862 54.375885 -10.131571 -0.445847 0.835891 0.320165
11.312862 54.375885 -10.131571 -0.167364 0.820353 0.546818
25.738020 76.242355 -42.808510 -0.167364 0.820353 0.546818
-19.036066 75.172615 -50.620392 -0.167364 0.820353 0.546818
-4.956155 54.375885 -19.398287 -0.167364 0.820353 0.546818
-9.732185 38.041237 27.390800 -0.332566 0.042722 -0.942112
-2.798191 54.375885 28.199268 -0.332566 0.042722 -0.942112
11.649284 54.375885 20.583845 -0.332566 0.042722 -0.942112
6.788558 38.041237 24.074417 -0.332566 0.042722 -0.942112
-16.144785 21.706591 24.822334 -0.057208 0.034634 -0.997761
-9.732185 38.041237 27.390800 -0.057208 0.034634 -0.997761
6.788558 38.041237 24.074417 -0.057208 0.034634 -0.997761
1.101013 21.706591 26.202667 -0.057208 0.034634 -0.997761
1.101013 21.706591 26.202667 -0.589890 -0.043867 -0.806291
6.788558 38.041237 24.074417 -0.589890 -0.043867 -0.806291
18.326445 38.041237 12.711683 -0.589890 -0.043867 -0.806291
14.960258 21.706591 18.984632 -0.589890 -0.043867 -0.806291
1.977839 38.041237 -18.589821 0.332566 0.042721 0.942112
-4.956155 54.375885 -19.398287 0.332566 0.042721 0.942112
-19.403631 54.375885 -11.782864 0.332566 0.042721 0.942112
-14.542903 38.041237 -15.273438 0.332566 0.042721 0.942112
8.390439 21.706591 -16.021353 0.057208 0.034634 0.997761
1.977839 38.041237 -18.589821 0.057208 0.034634 0.997761
-14.542903 38.041237 -15.273438 0.057208 0.034634 0.997761
-8.855359 21.706591 -17.401686 0.057208 0.034634 0.997761
-8.855359 21.706591 -17.401686 0.589890 -0.043867 0.806291
-14.542903 38.041237 -15.273438 0.589890 -0.043867 0.806291
-26.080791 38.041237 -3.910702 0.589890 -0.043867 0.806291
-22.714603 21.706591 -10.183652 0.589890 -0.043867 0.806291
-26.080791 38.041237 -3.910702 0.939830 0.065401 -0.335323
-27.637697 54.375885 2.673191 0.939830 0.065401 -0.335323
-19.067207 54.375885 18.932552 0.939830 0.065401 -0.335323
-22.296213 38.041237 14.458209 0.939830 0.065401 -0.335323
-22.714603 21.706591 -10.183652 0.996262 0.063245 -0.058839
-26.080791 38.041237 -3.910702 0.996262 0.063245 -0.058839
-22.296213 38.041237 14.458209 0.996262 0.063245 -0.058839
-24.268047 21.706591 9.224976 0.996262 0.063245 -0.058839
-24.268047 21.706591 9.224976 0.807726 -0.067432 -0.585689
-22.296213 38.041237 14.458209 0.807726 -0.067432 -0.585689
-9.732185 38.041237 27.390800 0.807726 -0.067432 -0.585689
-16.144785 21.706591 24.822334 0.807726 -0.067432 -0.585689
15.383183 92.508957 11.636024 -0.011705 -0.999576 -0.026672
8.680809 92.276199 24.645077 -0.011705 -0.999576 -0.026672
-10.814754 92.538261 22.034292 -0.011705 -0.999576 -0.026672
-3.877172 92.963448 4.400492 -0.011705 -0.999576 -0.026672
17.703781 92.276199 -5.689535 -0.026292 -0.999584 0.011850
15.383183 92.508957 11.636024 -0.026292 -0.999584 0.011850
-3.877172 92.963448 4.400492 -0.026292 -0.999584 0.011850
3.060410 92.538261 -13.233307 -0.026292 -0.999584 0.011850
3.060410 92.538261 -13.233307 0.011705 -0.999576 0.026672
-3.877172 92.963448 4.400492 0.011705 -0.999576 0.026672
-23.137529 92.508957 -2.835037 0.011705 -0.999576 0.026672
-16.435156 92.276199 -15.844092 0.011705 -0.999576 0.026672
11.281709 75.172615 59.421383 -0.299534 -0.888355 -0.348001
8.680809 92.276199 24.645077 -0.299534 -0.888355 -0.348001
15.383183 92.508957 11.636024 -0.299534 -0.888355 -0.348001
44.629990 76.225746 34.675182 -0.299534 -0.888355 -0.348001
-2.798191 54.375885 28.199268 -0.322509 0.833187 -0.449207
11.281709 75.172615 59.421383 -0.322509 0.833187 -0.449207
44.629990 76.225746 34.675182 -0.322509 0.833187 -0.449207
11.649284 54.375885 20.583845 -0.322509 0.833187 -0.449207
11.649284 54.375885 20.583845 -0.542821 0.824384 -0.160424
44.629990 76.225746 34.675182 -0.542821 0.824384 -0.160424
51.742954 75.183319 -8.154828 -0.542821 0.824384 -0.160424
19.883352 54.375885 6.127792 -0.542821 0.824384 -0.160424
-19.036066 75.172615 -50.620392 0.299534 -0.888355 0.348001
-16.435156 92.276199 -15.844092 0.299534 -0.888355 0.348001
-23.137529 92.508957 -2.835037 0.299534 -0.888355 0.348001
-52.384335 76.225746 -25.874187 0.299534 -0.888355 0.348001
-4.956155 54.375885 -19.398287 0.322509 0.833187 0.449208
-19.036066 75.172615 -50.620392 0.322509 0.833187 0.449208
-52.384335 76.225746 -25.874187 0.322509 0.833187 0.449208
-19.403631 54.375885 -11.782864 0.322509 0.833187 0.449208
-19.403631 54.375885 -11.782864 0.542821 0.824384 0.160424
-52.384335 76.225746 -25.874187 0.542821 0.824384 0.160424
-59.497288 75.183319 16.955811 0.542821 0.824384 0.160424
-27.637697 54.375885 2.673191 0.542821 0.824384 0.160424
-59.497288 75.183319 16.955811 0.347826 -0.885759 -0.307325
-25.458126 92.276199 14.490520 0.347826 -0.885759 -0.307325
-10.814754 92.538261 22.034292 0.347826 -0.885759 -0.307325
-33.492367 76.242355 51.609497 0.347826 -0.885759 -0.307325
-27.637697 54.375885 2.673191 0.445847 0.835891 -0.320165
-59.497288 75.183319 16.955811 0.445847 0.835891 -0.320165
-33.492367 76.242355 51.609497 0.445847 0.835891 -0.320165
-19.067207 54.375885 18.932552 0.445847 0.835891 -0.320165
-19.067207 54.375885 18.932552 0.167364 0.820354 -0.546817
-33.492367 76.242355 51.609497 0.167364 0.820354 -0.546817
11.281709 75.172615 59.421383 0.167364 0.820354 -0.546817
-2.798191 54.375885 28.199268 0.167364 0.820354 -0.546817
1.101013 21.706591 26.202667 -0.167639 -0.076444 -0.982880
14.960258 21.706591 18.984632 -0.167639 -0.076444 -0.982880
3.033110 2.194451 27.390697 -0.167639 -0.076444 -0.982880
-12.559473 2.194451 25.195930 -0.167639 -0.076444 -0.982880
-16.144785 21.706591 24.822334 0.380677 0.052272 -0.923229
1.101013 21.706591 26.202667 0.380677 0.052272 -0.923229
-12.559473 2.194451 25.195930 0.380677 0.052272 -0.923229
-25.895180 2.194451 13.966526 0.380677 0.052272 -0.923229
14.960258 21.706591 18.984632 -0.920322 0.094885 -0.379478
16.513700 21.706591 -0.423994 -0.920322 0.094885 -0.379478
15.670815 2.194451 12.382535 -0.920322 0.094885 -0.379478
3.033110 2.194451 27.390697 -0.920322 0.094885 -0.379478
16.513700 21.706591 -0.423994 -0.978384 -0.122139 0.166872
8.390439 21.706591 -16.021353 -0.978384 -0.122139 0.166872
18.140833 2.194451 -5.165545 -0.978384 -0.122139 0.166872
15.670815 2.194451 12.382535 -0.978384 -0.122139 0.166872
-24.268047 21.706591 9.224976 0.978384 -0.122139 -0.166872
-16.144785 21.706591 24.822334 0.978384 -0.122139 -0.166872
-25.895180 2.194451 13.966526 0.978384 -0.122139 -0.166872
-23.425163 2.194451 -3.581554 0.978384 -0.122139 -0.166872
-22.714603 21.706591 -10.183652 0.920322 0.094885 0.379479
-24.268047 21.706591 9.224976 0.920322 0.094885 0.379479
-23.425163 2.194451 -3.581554 0.920322 0.094885 0.379479
-10.787457 2.194451 -18.589714 0.920322 0.094885 0.379479
8.390439 21.706591 -16.021353 -0.380677 0.052272 0.923229
-8.855359 21.706591 -17.401686 -0.380677 0.052272 0.923229
4.805128 2.194451 -16.394949 -0.380677 0.052272 0.923229
18.140833 2.194451 -5.165545 -0.380677 0.052272 0.923229
-8.855359 21.706591 -17.401686 0.167639 -0.076444 0.982880
-22.714603 21.706591 -10.183652 0.167639 -0.076444 0.982880
-10.787457 2.194451 -18.589714 0.167639 -0.076444 0.982880
4.805128 2.194451 -16.394949 0.167639 -0.076444 0.982880
-10.787457 2.194451 -18.589714 0.478971 -0.245789 0.842718
-23.425163 2.194451 -3.581554 0.478971 -0.245789 0.842718
-19.190117 -17.512598 -19.561737 0.478971 -0.245789 0.842718
6.370166 -17.512598 -26.263952 0.478971 -0.245789 0.842718
18.140833 2.194451 -5.165545 -0.826238 -0.311130 0.469604
4.805128 2.194451 -16.394949 -0.826238 -0.311130 0.469604
21.824253 -17.512598 -11.741428 -0.826238 -0.311130 0.469604
27.779596 -17.512598 10.970507 -0.826238 -0.311130 0.469604
-12.559473 2.194451 25.195930 0.427646 -0.431689 -0.794206
3.033110 2.194451 27.390697 0.427646 -0.431689 -0.794206
-14.124514 -17.512598 35.064941 0.427646 -0.431689 -0.794206
-29.578594 -17.512598 20.542404 0.427646 -0.431689 -0.794206
4.805128 2.194451 -16.394949 -0.427646 -0.431689 0.794207
-10.787457 2.194451 -18.589714 -0.427646 -0.431689 0.794207
6.370166 -17.512598 -26.263952 -0.427646 -0.431689 0.794207
21.824253 -17.512598 -11.741428 -0.427646 -0.431689 0.794207
-25.895180 2.194451 13.966526 0.826238 -0.311129 -0.469605
-12.559473 2.194451 25.195930 0.826238 -0.311129 -0.469605
-29.578594 -17.512598 20.542404 0.826238 -0.311129 -0.469605
-35.533943 -17.512598 -2.169526 0.826238 -0.311129 -0.469605
3.033110 2.194451 27.390697 -0.478972 -0.245789 -0.842718
15.670815 2.194451 12.382535 -0.478972 -0.245789 -0.842718
11.435768 -17.512598 28.362713 -0.478972 -0.245789 -0.842718
-14.124514 -17.512598 35.064941 -0.478972 -0.245789 -0.842718
15.670815 2.194451 12.382535 -0.785299 -0.452221 -0.422850
18.140833 2.194451 -5.165545 -0.785299 -0.452221 -0.422850
27.779596 -17.512598 10.970507 -0.785299 -0.452221 -0.422850
11.435768 -17.512598 28.362713 -0.785299 -0.452221 -0.422850
-23.425163 2.194451 -3.581554 0.785299 -0.452221 0.422850
-25.895180 2.194451 13.966526 0.785299 -0.452221 0.422850
-35.533943 -17.512598 -2.169526 0.785299 -0.452221 0.422850
-19.190117 -17.512598 -19.561737 0.785299 -0.452221 0.422850
-968.885620 -20.202353 968.696350 -0.000000 -1.000000 0.000000
-968.885620 -20.202353 -971.675903 -0.000000 -1.000000 0.000000
971.486633 -20.202353 -971.675903 -0.000000 -1.000000 0.000000
971.486633 -20.202353 968.696350 -0.000000 -1.000000 0.000000
4 0 1 2 3
4 4 5 6 7
4 8 9 10 11
4 12 13 14 15
4 16 17 18 19
4 20 21 22 23
4 24 25 26 27
4 28 29 30 31
4 32 33 34 35
4 36 37 38 39
4 40 41 42 43
4 44 45 46 47
4 48 49 50 51
4 52 53 54 55
4 56 57 58 59
4 60 61 62 63
4 64 65 66 67
4 68 69 70 71
4 72 73 74 75
4 76 77 78 79
4 80 81 82 83
4 84 85 86 87
4 88 89 90 91
4 92 93 94 95
4 96 97 98 99
4 100 101 102 103
4 104 105 106 107
4 108 109 110 111
4 112 113 114 115
4 116 117 118 119
4 120 121 122 123
4 124 125 126 127
4 128 129 130 131
4 132 133 134 135
4 136 137 138 139
4 140 141 142 143
4 144 145 146 147
4 148 149 150 151
4 152 153 154 155
4 156 157 158 159
4 160 161 162 163
4 164 165 166 167
4 168 169 170 171
4 172 173 174 175
4 176 177 178 179
4 180 181 182 183
4 184 185 186 187
4 188 189 190 191
4 192 193 194 195
4 196 197 198 199
4 200 201 202 203
4 204 205 206 207
4 208 209 210 211
4 212 213 214 215
4 216 217 218 219
4 220 221 222 223
4 224 225 226 227
